<svg fill="#000000" xmlns="http://www.w3.org/2000/svg" xmlns:xlink="http://www.w3.org/1999/xlink" version="1.1" x="0px" y="0px" viewBox="0 0 64 64" style="enable-background:new 0 0 64 64;" xml:space="preserve"><path d="M62.8,53.1l-1.8-1.8c-0.4-0.4-1-0.4-1.4,0l0,0c-0.4,0.4-0.4,1,0,1.4l1.2,1.2L55,59.5l-0.8-0.8l0.7-0.7c0.4-0.4,0.4-1,0-1.4  c-0.4-0.4-1-0.4-1.4,0l-0.7,0.7l-1.4-1.4l0.7-0.7c0.4-0.4,0.4-1,0-1.4c-0.4-0.4-1-0.4-1.4,0L50,54.5l-1.4-1.4l0.7-0.7  c0.4-0.4,0.4-1,0-1.4c-0.4-0.4-1-0.4-1.4,0l-0.7,0.7l-1.4-1.4l0.7-0.7c0.4-0.4,0.4-1,0-1.4c-0.4-0.4-1-0.4-1.4,0l-0.7,0.7l-1.4-1.4  l0.7-0.7c0,0,0,0,0,0c0.4-0.4,0.4-1,0-1.4c-0.4-0.4-1-0.4-1.4,0L41.5,46l-1.4-1.4l0.7-0.7c0.4-0.4,0.4-1,0-1.4c-0.4-0.4-1-0.4-1.4,0  l-0.7,0.7l-1.4-1.4l0.7-0.7c0.4-0.4,0.4-1,0-1.4c-0.4-0.4-1-0.4-1.4,0l-0.7,0.7L34.4,39l0.7-0.7c0.4-0.4,0.4-1,0-1.4  c-0.4-0.4-1-0.4-1.4,0L33,37.5l-1.4-1.4l0.7-0.7c0.4-0.4,0.4-1,0-1.4c-0.4-0.4-1-0.4-1.4,0l-0.7,0.7c-0.4-0.3-0.9-0.3-1.3,0.1  c0,0,0,0,0,0c-0.4,0.4-0.4,1,0,1.4l25.5,25.4c0.4,0.4,1,0.4,1.4,0l7-7C63.2,54.2,63.2,53.5,62.8,53.1z"></path><path d="M56.4,49.5c0.4,0.4,1,0.4,1.4,0l0,0c0.4-0.4,0.4-1,0-1.4l-1.2-1.2c-0.4-0.4-1-0.4-1.4,0l0,0c-0.4,0.4-0.4,1,0,1.4L56.4,49.5  z"></path><path d="M36,27.9c-0.4,0.4-0.4,1,0,1.4l16.2,16.2c0.4,0.4,1,0.4,1.4,0l0,0c0.4-0.4,0.4-1,0-1.4L37.4,27.9  C37.1,27.5,36.4,27.5,36,27.9L36,27.9z"></path><path d="M4,24.1l-1.1,1.1v-8.5L15.3,4.4c0.4-0.4,1.1-0.4,1.5,0l2.7,2.7c0.4,0.4,0.4,1.1,0,1.5L18.1,10c-0.4,0.4-0.4,1,0,1.4l4.9,4.9  c0.4,0.4,1,0.4,1.4,0c0.4-0.4,0.4-1,0-1.4l-4.2-4.2l0.7-0.7c1.2-1.2,1.2-3.1,0-4.3l-2.7-2.7c-1.2-1.2-3.1-1.2-4.3,0L1.4,15.4  c-0.3,0.3-0.5,0.7-0.5,1.2v10.9c0,0.9,1.1,1.4,1.8,0.7l2.8-2.8c0.4-0.4,0.4-1,0-1.4S4.4,23.7,4,24.1z"></path><path d="M11.8,19.2l4.2,4.2c0.4,0.4,1,0.4,1.4,0c0.4-0.4,0.4-1,0-1.4l0.7-0.7c0.4-0.4,0.4-1,0-1.4c-0.4-0.4-1-0.4-1.4,0L16,20.6  l-1.4-1.4l0.7-0.7c0.4-0.4,0.4-1,0-1.4c-0.4-0.4-1-0.4-1.4,0c0,0,0,0,0,0l-0.7,0.7L12.5,17c-0.4-0.4-1-0.4-1.4,0l-4,4  c-0.4,0.4-0.4,1,0,1.4s1,0.4,1.4,0L11.8,19.2z"></path><path d="M35.2,22.8l-0.9-0.9c0.2-0.4,0.9-2.1-0.6-3.5l-2.7-2.7c-1.2-1.2-3.1-1.2-4.3,0L8.2,34C8,34.3,7.9,34.7,8,35.1  c0.2,0.4,0.5,0.6,0.9,0.6H20c0.4,0,0.8-0.2,1.1-0.5l1.9-1.9l0.8,0.8c1.1,1.1,2.9,1.1,4,0l7.3-7.3C36.3,25.7,36.3,23.9,35.2,22.8z   M33.8,25.4l-7.3,7.3c-0.3,0.3-0.9,0.3-1.2,0l-1.5-1.5c-0.4-0.4-1-0.4-1.4,0l-2.5,2.5h-8.5L28,17.1c0.4-0.4,1.1-0.4,1.5,0l2.7,2.7  c0.2,0.2,0.7,0.9,0.1,1.5c0,0,0,0,0,0c-0.6,0.6-0.2,1.2,0,1.4l1.5,1.5C34.1,24.6,34.1,25.1,33.8,25.4z"></path><path d="M15.3,7.1l-1.4,1.4c-0.4,0.4-0.4,1,0,1.4s1,0.4,1.4,0l1.4-1.4c0.4-0.4,0.4-1,0-1.4C16.3,6.8,15.7,6.8,15.3,7.1z"></path><path d="M12.5,12.8c0.4-0.4,0.4-1,0-1.4s-1-0.4-1.4,0L5.4,17c-0.4,0.4-0.4,1,0,1.4s1,0.4,1.4,0L12.5,12.8z"></path><path d="M29.5,22.7c-0.4-0.4-1-0.4-1.4,0c-0.4,0.4-0.4,1,0,1.4l0.7,0.7L28,25.5c-0.4,0.4-0.4,1,0,1.4c0.4,0.4,1,0.4,1.4,0  c0,0,0,0,0,0l1.4-1.4c0.4-0.4,0.4-1,0-1.4L29.5,22.7z"></path></svg>
