<svg  fill="#000000" xmlns="http://www.w3.org/2000/svg" xmlns:xlink="http://www.w3.org/1999/xlink" version="1.1" x="0px" y="0px" viewBox="0 0 100 100" style="enable-background:new 0 0 100 100;" xml:space="preserve"><g><path d="M73.81,72.737c-0.897-0.642-2.148-0.435-2.79,0.465l-5.939,8.316l-3.685-3.684c-0.781-0.781-2.047-0.781-2.828,0   c-0.781,0.781-0.781,2.047,0,2.828l5.354,5.353c0.377,0.377,0.886,0.586,1.414,0.586c0.055,0,0.109-0.002,0.165-0.007   c0.586-0.048,1.121-0.353,1.463-0.831l7.313-10.237C74.917,74.628,74.709,73.379,73.81,72.737z"></path><path d="M24.61,90.95h31.083c0.169,0,0.331-0.028,0.489-0.067C58.947,93.43,62.626,95,66.673,95   c8.557,0,15.518-6.961,15.518-15.517c0-4.531-1.964-8.602-5.071-11.441v-43.8c0-3.75-3.051-6.801-6.801-6.801h-4.681   c-1.77-3.002-5.029-5.027-8.759-5.027h-0.211C55.748,8.18,51.972,5,47.466,5c-4.505,0-8.281,3.18-9.2,7.414h-0.211   c-3.73,0-6.989,2.025-8.759,5.027H24.61c-3.75,0-6.801,3.051-6.801,6.801v59.897C17.81,87.895,20.86,90.95,24.61,90.95z    M78.19,79.483C78.19,85.833,73.023,91,66.673,91s-11.517-5.167-11.517-11.517s5.166-11.517,11.517-11.517   S78.19,73.132,78.19,79.483z M38.055,16.414h1.997c1.104,0,2-0.896,2-2C42.052,11.429,44.48,9,47.466,9   c2.986,0,5.415,2.429,5.415,5.414c0,1.104,0.896,2,2,2h1.997c2.703,0,5.006,1.747,5.838,4.171H32.217   C33.049,18.161,35.352,16.414,38.055,16.414z M21.81,24.242c0-1.544,1.257-2.801,2.801-2.801h3.342   c-0.042,0.376-0.069,0.757-0.069,1.144c0,1.104,0.896,2,2,2h35.165c1.104,0,2-0.896,2-2c0-0.387-0.026-0.768-0.069-1.144h3.338   c1.544,0,2.801,1.256,2.801,2.801v41.144c-1.966-0.903-4.145-1.42-6.446-1.42c-8.556,0-15.517,6.961-15.517,15.517   c0,2.706,0.699,5.25,1.922,7.467H24.61c-1.544,0-2.801-1.261-2.801-2.811V24.242z"></path><path d="M30.672,40.49c0.376,0.377,0.886,0.586,1.414,0.586c0.055,0,0.109-0.002,0.165-0.007c0.586-0.048,1.121-0.352,1.462-0.831   l4.787-6.701c0.643-0.899,0.435-2.148-0.465-2.79c-0.898-0.642-2.148-0.435-2.789,0.465l-3.415,4.78l-1.521-1.521   c-0.781-0.781-2.047-0.781-2.828,0c-0.781,0.781-0.781,2.047,0,2.829L30.672,40.49z"></path><path d="M43.44,37.726h22.597c1.104,0,2-0.896,2-2s-0.896-2-2-2H43.44c-1.104,0-2,0.896-2,2S42.336,37.726,43.44,37.726z"></path><path d="M30.672,55.102c0.376,0.376,0.886,0.586,1.414,0.586c0.055,0,0.109-0.002,0.165-0.007c0.586-0.048,1.12-0.352,1.462-0.831   L38.5,48.15c0.643-0.899,0.435-2.148-0.464-2.79c-0.9-0.642-2.149-0.434-2.79,0.465l-3.415,4.78l-1.521-1.521   c-0.781-0.781-2.047-0.781-2.828,0c-0.781,0.781-0.781,2.047,0,2.829L30.672,55.102z"></path><path d="M43.44,52.337h22.597c1.104,0,2-0.896,2-2s-0.896-2-2-2H43.44c-1.104,0-2,0.896-2,2S42.336,52.337,43.44,52.337z"></path><path d="M30.672,69.714c0.376,0.377,0.886,0.586,1.414,0.586c0.055,0,0.109-0.002,0.165-0.007c0.586-0.048,1.121-0.352,1.462-0.831   l4.787-6.701c0.643-0.899,0.435-2.148-0.465-2.79c-0.898-0.642-2.148-0.434-2.789,0.465l-3.415,4.78l-1.521-1.521   c-0.781-0.781-2.047-0.781-2.828,0c-0.781,0.781-0.781,2.047,0,2.829L30.672,69.714z"></path><path d="M43.44,66.95h7.967c1.104,0,2-0.896,2-2s-0.896-2-2-2H43.44c-1.104,0-2,0.896-2,2S42.336,66.95,43.44,66.95z"></path><circle cx="47.466" cy="14.545" r="2.794"></circle></g></svg>