<svg fill="#000000" xmlns:dc="http://purl.org/dc/elements/1.1/" xmlns:cc="http://creativecommons.org/ns#" xmlns:rdf="http://www.w3.org/1999/02/22-rdf-syntax-ns#" xmlns:svg="http://www.w3.org/2000/svg" xmlns="http://www.w3.org/2000/svg" viewBox="0 0 64 64" version="1.1" xml:space="preserve" style="" x="0px" y="0px" fill-rule="evenodd" clip-rule="evenodd" stroke-linecap="round" stroke-linejoin="round" stroke-miterlimit="2"><path style="color:#000000;font-style:normal;font-variant:normal;font-weight:normal;font-stretch:normal;font-size:medium;line-height:normal;font-family:sans-serif;font-variant-ligatures:normal;font-variant-position:normal;font-variant-caps:normal;font-variant-numeric:normal;font-variant-alternates:normal;font-variant-east-asian:normal;font-feature-settings:normal;font-variation-settings:normal;text-indent:0;text-align:start;text-decoration:none;text-decoration-line:none;text-decoration-style:solid;text-decoration-color:#000000;letter-spacing:normal;word-spacing:normal;text-transform:none;writing-mode:lr-tb;direction:ltr;text-orientation:mixed;dominant-baseline:auto;baseline-shift:baseline;text-anchor:start;white-space:normal;shape-margin:0;inline-size:0;clip-rule:nonzero;display:inline;overflow:visible;visibility:visible;isolation:auto;mix-blend-mode:normal;color-interpolation:sRGB;color-interpolation-filters:linearRGB;vector-effect:none;fill:#000000;fill-opacity:1;fill-rule:nonzero;stroke:none;stroke-width:3px;stroke-linecap:butt;stroke-linejoin:miter;stroke-miterlimit:2;stroke-dasharray:none;stroke-dashoffset:0;stroke-opacity:1;color-rendering:auto;image-rendering:auto;shape-rendering:auto;text-rendering:auto;enable-background:accumulate;stop-color:#000000;stop-opacity:1;opacity:1" d="M 31.998047 6 C 29.983416 6 28.318359 7.6650563 28.318359 9.6796875 L 28.318359 14.65625 C 26.620149 15.832616 25.5 17.791866 25.5 20 C 25.5 22.544366 26.989072 24.754915 29.134766 25.820312 L 25.080078 40.953125 C 24.452961 40.682435 23.840421 40.382357 23.253906 40.042969 L 26.449219 28.119141 A 1.5 1.5 0 0 0 25.388672 26.28125 A 1.5 1.5 0 0 0 24.980469 26.230469 A 1.5 1.5 0 0 0 23.550781 27.341797 L 20.644531 38.185547 C 18.522549 36.370812 16.832683 34.06595 15.769531 31.4375 A 1.5 1.5 0 0 0 14.40625 30.5 A 1.5 1.5 0 0 0 13.816406 30.609375 A 1.5 1.5 0 0 0 12.988281 32.5625 C 14.41234 36.083229 16.79619 39.107561 19.800781 41.339844 L 17.439453 50.152344 C 17.010057 51.756865 17.643909 53.414364 18.896484 54.371094 L 18.429688 56.111328 A 1.5 1.5 0 0 0 19.490234 57.949219 A 1.5 1.5 0 0 0 21.328125 56.888672 L 21.794922 55.148438 C 23.358009 54.946075 24.735577 53.82658 25.166016 52.222656 L 26.449219 47.4375 A 1.5 1.5 0 0 0 25.388672 45.599609 A 1.5 1.5 0 0 0 23.550781 46.660156 L 22.269531 51.445312 C 22.121314 51.997606 21.595725 52.300161 21.044922 52.152344 A 1.5 1.5 0 0 0 21.042969 52.152344 A 1.5 1.5 0 0 0 21.041016 52.152344 C 20.491559 52.004332 20.190446 51.478686 20.337891 50.927734 L 20.335938 50.927734 L 22.457031 43.015625 C 25.31122 44.522841 28.555008 45.386719 32 45.386719 C 33.669217 45.386719 35.29075 45.180688 36.845703 44.802734 L 38.84375 52.263672 C 39.115549 53.276886 39.779623 54.14125 40.6875 54.666016 A 1.50015 1.50015 0 0 0 40.689453 54.667969 C 41.160308 54.938814 41.677911 55.101903 42.208984 55.164062 L 42.671875 56.888672 A 1.5 1.5 0 0 0 44.509766 57.949219 A 1.5 1.5 0 0 0 45.570312 56.111328 L 45.101562 54.361328 C 46.353269 53.392346 46.982069 51.726031 46.548828 50.113281 L 46.550781 50.113281 L 44.199219 41.339844 C 47.20381 39.107561 49.58766 36.083229 51.011719 32.5625 A 1.5 1.5 0 0 0 50.183594 30.609375 A 1.5 1.5 0 0 0 48.230469 31.4375 C 47.167317 34.06595 45.477451 36.370812 43.355469 38.185547 L 38.498047 20.0625 A 1.5 1.5 0 0 0 38.5 20 A 1.5 1.5 0 0 0 38.380859 19.412109 C 38.195728 17.473721 37.174675 15.770835 35.681641 14.695312 L 35.681641 9.6796875 C 35.681641 8.7046831 35.293754 7.7677113 34.603516 7.078125 C 33.914439 6.3890485 32.977877 6 32.001953 6 L 31.998047 6 z M 31.998047 9 L 32.001953 9 C 32.182029 9 32.351545 9.0702952 32.480469 9.1992188 A 1.50015 1.50015 0 0 0 32.482422 9.2011719 C 32.608961 9.3274014 32.681641 9.4996114 32.681641 9.6796875 L 32.681641 13.539062 C 32.45778 13.515011 32.230632 13.5 32 13.5 C 31.769913 13.5 31.542491 13.513424 31.318359 13.537109 L 31.318359 9.6796875 C 31.318359 9.2863187 31.604678 9 31.998047 9 z M 32 16.5 C 33.950764 16.5 35.5 18.049236 35.5 20 C 35.5 21.950764 33.950764 23.5 32 23.5 C 31.758145 23.5 31.522246 23.475127 31.294922 23.429688 A 1.5 1.5 0 0 0 31.289062 23.429688 C 29.68567 23.106483 28.5 21.706918 28.5 20 C 28.5 18.049236 30.049236 16.5 32 16.5 z M 36.585938 24.515625 L 40.746094 40.042969 C 40.159579 40.382357 39.547039 40.682435 38.919922 40.953125 L 36.148438 30.611328 A 1.5 1.5 0 0 0 34.3125 29.550781 A 1.5 1.5 0 0 0 33.251953 31.388672 L 36.070312 41.908203 C 34.764081 42.219603 33.402397 42.386719 32 42.386719 C 30.597603 42.386719 29.235919 42.219603 27.929688 41.908203 L 32.058594 26.496094 C 33.847142 26.479667 35.440631 25.719579 36.585938 24.515625 z M 41.542969 43.015625 L 43.652344 50.890625 C 43.805762 51.461728 43.487925 52.01085 42.916016 52.164062 C 42.672022 52.229515 42.411345 52.194781 42.189453 52.068359 C 41.96933 51.941125 41.808388 51.733114 41.742188 51.486328 L 39.705078 43.882812 C 40.335795 43.626345 40.945173 43.331304 41.542969 43.015625 z M 29.951172 47.253906 A 1.5 1.5 0 0 0 28.507812 48.595703 A 1.5 1.5 0 0 0 29.84375 50.244141 C 30.551888 50.318511 31.271667 50.357422 32 50.357422 C 32.728333 50.357422 33.448112 50.318511 34.15625 50.244141 A 1.5 1.5 0 0 0 35.492188 48.595703 A 1.5 1.5 0 0 0 33.84375 47.261719 C 33.237888 47.325348 32.621667 47.357422 32 47.357422 C 31.378333 47.357422 30.762112 47.325348 30.15625 47.261719 A 1.5 1.5 0 0 0 29.951172 47.253906 z "></path></svg>