<svg  fill="#000000" xmlns="http://www.w3.org/2000/svg" xmlns:xlink="http://www.w3.org/1999/xlink" version="1.1" x="0px" y="0px" viewBox="0 0 512 512" enable-background="new 0 0 512 512" xml:space="preserve"><g><path d="M165.6,239.4h180.8c7.8,0,14.1-6.3,14.1-14.1V72.6c0-7.8-6.3-14.1-14.1-14.1H165.6c-7.8,0-14.1,6.3-14.1,14.1v152.8   C151.5,233.1,157.8,239.4,165.6,239.4z M179.7,86.7h152.6v124.5H179.7V86.7z"></path><path d="M463.3,256.1C492,229.2,510,191.2,510,148.9C510,67.9,444.1,2,363.1,2H148.9C67.9,2,2,67.9,2,148.9   c0,42.3,18,80.3,46.7,107.1C19.2,283.7,2,322.5,2,363.1C2,444.1,68,510,149.2,510h213.6C444,510,510,444.1,510,363.1   C510,322.5,492.8,283.7,463.3,256.1z M30.2,148.9c0-65.5,53.3-118.7,118.7-118.7h214.1c65.5,0,118.7,53.3,118.7,118.7   c0,65.5-53.3,118.7-118.7,118.7H148.9C83.5,267.7,30.2,214.4,30.2,148.9z M362.8,481.8H149.2c-65.6,0-119-53.3-119-118.7   c0-54.1,41.5-89.4,41.6-89.3c22.4,13.9,48.8,22.1,77.1,22.1h214.1c28.3,0,54.6-8.2,77-22c0.2-0.1,41.7,25.3,41.7,89.2   C481.8,428.5,428.4,481.8,362.8,481.8z"></path><path d="M173.9,366.6h-27.6v-27.6c0-7.8-6.3-14.1-14.1-14.1s-14.1,6.3-14.1,14.1v27.6H90.5c-7.8,0-14.1,6.3-14.1,14.1   c0,7.8,6.3,14.1,14.1,14.1h27.6v27.6c0,7.8,6.3,14.1,14.1,14.1s14.1-6.3,14.1-14.1v-27.6h27.6c7.8,0,14.1-6.3,14.1-14.1   C188,373,181.7,366.6,173.9,366.6z"></path><path d="M217.3,315.7h-19.9c-7.8,0-14.1,6.3-14.1,14.1c0,7.8,6.3,14.1,14.1,14.1h19.9c7.8,0,14.1-6.3,14.1-14.1   C231.4,322,225.1,315.7,217.3,315.7z"></path><path d="M314.7,315.7h-19.9c-7.8,0-14.1,6.3-14.1,14.1c0,7.8,6.3,14.1,14.1,14.1h19.9c7.8,0,14.1-6.3,14.1-14.1   C328.8,322,322.5,315.7,314.7,315.7z"></path><path d="M396.2,327.2h-13.1c-7.8,0-14.1,6.3-14.1,14.1c0,7.8,6.3,14.1,14.1,14.1h13.1c7.8,0,14.1-6.3,14.1-14.1   C410.3,333.5,404,327.2,396.2,327.2z"></path><path d="M396.2,406.1h-13.1c-7.8,0-14.1,6.3-14.1,14.1c0,7.8,6.3,14.1,14.1,14.1h13.1c7.8,0,14.1-6.3,14.1-14.1   C410.3,412.4,404,406.1,396.2,406.1z"></path><path d="M429.2,360.1c-7.8,0-14.1,6.3-14.1,14.1v13c0,7.8,6.3,14.1,14.1,14.1s14.1-6.3,14.1-14.1v-13   C443.3,366.4,437,360.1,429.2,360.1z"></path><path d="M350.2,360.1c-7.8,0-14.1,6.3-14.1,14.1v13c0,7.8,6.3,14.1,14.1,14.1c7.8,0,14.1-6.3,14.1-14.1v-13   C364.3,366.4,358,360.1,350.2,360.1z"></path></g></svg>