<svg  fill="#000000" xmlns="http://www.w3.org/2000/svg" xmlns:xlink="http://www.w3.org/1999/xlink" version="1.1" x="0px" y="0px" viewBox="0 0 100 100" style="enable-background:new 0 0 100 100;" xml:space="preserve"><g><path d="M85.847,5H71.512c-3.715,0-6.736,3.022-6.736,6.736v40.681c0,8.147-6.628,14.775-14.775,14.775   c-0.187,0-0.375-0.003-0.571-0.011c-7.832-0.295-14.203-7.124-14.203-15.223V11.737C35.226,8.022,32.204,5,28.489,5H14.154   c-3.715,0-6.736,3.022-6.736,6.736v39.958c0,23.331,18.643,42.752,41.56,43.294c0.297,0.007,0.589,0.011,0.884,0.012h0.137   c23.48,0,42.584-19.272,42.584-42.961V11.736C92.582,8.021,89.561,5,85.847,5z M71.512,11h14.335c0.405,0,0.735,0.33,0.735,0.736   v23.333H70.775V11.736C70.775,11.33,71.105,11,71.512,11z M14.154,11h14.335c0.406,0,0.736,0.331,0.736,0.737v23.332H13.418V11.736   C13.418,11.33,13.748,11,14.154,11z M49.998,89h-0.116c-0.255-0.001-0.51-0.004-0.764-0.01c-19.686-0.465-35.7-17.196-35.7-37.296   V41.069h15.808v10.89c0,11.285,8.962,20.803,19.968,21.218c11.848,0.472,21.582-9.038,21.582-20.759V41.069h15.807v10.97   C86.582,72.419,70.171,89,49.998,89z"></path></g></svg>