<svg  fill="#000000" xmlns="http://www.w3.org/2000/svg" viewBox="0 0 24 24" x="0px" y="0px"><title>Artboard 4</title><g data-name="Layer 101"><path d="M3,13h9a1,1,0,0,0,1-1V3a1,1,0,0,0-1-1H3A1,1,0,0,0,2,3v9A1,1,0,0,0,3,13ZM4,4h7v7H4Z"></path><path d="M21,16a1,1,0,0,0-1,1v1.5859L15.707,14.293a1,1,0,0,0-1.414,1.414L18.5859,20H17a1,1,0,0,0,0,2h4a1,1,0,0,0,.3828-.0762l.0029-.0017c.0084-.0035.0146-.01.0229-.0138a1.0361,1.0361,0,0,0,.4758-.4643.9238.9238,0,0,0,.045-.0948A.9858.9858,0,0,0,22,21V17A1,1,0,0,0,21,16Z"></path></g></svg>