<svg  fill="#000000" xmlns="http://www.w3.org/2000/svg" viewBox="0 0 24 24" x="0px" y="0px"><title>Artboard 233</title><g data-name="Layer 101"><path d="M14.293,6.707a1,1,0,0,0,1.414-1.414l-3-3a.9857.9857,0,0,0-.2984-.1983.9522.9522,0,0,0-.0934-.0333.9776.9776,0,0,0-.2546-.05c-.0326-.002-.0634-.0061-.0961-.0049a.983.983,0,0,0-.3178.0619c-.0085.0032-.0176.0031-.026.0065l-.0035.0009a.9813.9813,0,0,0-.2941.1968c-.0091.0085-.0213.0111-.03.02l-3,3A1,1,0,1,0,9.707,6.707L11,5.4141V8.142a3.9807,3.9807,0,0,0,0,7.716v2.7279L9.707,17.293a1,1,0,0,0-1.414,1.414l2.9987,2.9987a1.003,1.003,0,0,0,1.4166,0L15.707,18.707a1,1,0,0,0-1.414-1.414L13,18.5859V15.858a3.9807,3.9807,0,0,0,0-7.716V5.4141ZM14,12a2,2,0,1,1-2-2A2.0027,2.0027,0,0,1,14,12Z"></path></g></svg>