<svg  fill="#000000" xmlns="http://www.w3.org/2000/svg" viewBox="0 0 24 24" x="0px" y="0px"><title>Artboard 7</title><g data-name="Layer 101"><path d="M2.0606,12.3115a.9561.9561,0,0,0,.0353.099.9858.9858,0,0,0,.1971.2965l2.8281,2.8286a1,1,0,1,0,1.4141-1.414L5.4141,13H11a1,1,0,0,0,0-2H5.4138L6.5352,9.8784a1,1,0,1,0-1.4141-1.414L2.293,11.293c-.0091.009-.0117.0212-.02.03a.9824.9824,0,0,0-.1965.2937l-.0009.0036c-.0035.0085-.0033.0175-.0065.0261a1.0357,1.0357,0,0,0-.0082.6646Z"></path><path d="M21,2H15a1,1,0,0,0-1,1V21a1,1,0,0,0,1,1h6a1,1,0,0,0,1-1V3A1,1,0,0,0,21,2ZM20,20H16V4h4Z"></path></g></svg>