<svg  fill="#000000" xmlns="http://www.w3.org/2000/svg" viewBox="0 0 24 24" x="0px" y="0px"><title>Artboard 140</title><g data-name="Layer 101"><path d="M17.7083,2.2943a1.0031,1.0031,0,0,0-1.4166,0L12.293,6.293a1,1,0,0,0,1.414,1.414L16,5.4141V21a1,1,0,0,0,2,0V5.4141L20.293,7.707a1,1,0,0,0,1.414-1.414Z"></path><path d="M3,22h7a1,1,0,0,0,1-1V14a1,1,0,0,0-1-1H3a1,1,0,0,0-1,1v7A1,1,0,0,0,3,22Zm1-7H9v5H4Z"></path><path d="M3,11H5A1,1,0,0,0,5,9H4V8A1,1,0,0,0,2,8v2A1,1,0,0,0,3,11Z"></path><path d="M8,11h2a1,1,0,0,0,1-1V8A1,1,0,0,0,9,8V9H8a1,1,0,0,0,0,2Z"></path><path d="M10,6a1,1,0,0,0,1-1V3a1,1,0,0,0-1-1H8A1,1,0,0,0,8,4H9V5A1,1,0,0,0,10,6Z"></path><path d="M3,6A1,1,0,0,0,4,5V4H5A1,1,0,0,0,5,2H3A1,1,0,0,0,2,3V5A1,1,0,0,0,3,6Z"></path></g></svg>