<svg  fill="#000000" xmlns="http://www.w3.org/2000/svg" viewBox="0 0 24 24" x="0px" y="0px"><title>Artboard 8</title><g data-name="Layer 101"><path d="M13,13h5.5862l-1.1214,1.1216a1,1,0,1,0,1.4141,1.414L21.707,12.707c.0091-.009.0117-.0212.02-.03a.9824.9824,0,0,0,.1965-.2937l.0009-.0036c.0035-.0084.0033-.0174.0065-.0259a.9833.9833,0,0,0,.0615-.3163.9687.9687,0,0,0-.0051-.1007.98.98,0,0,0-.0483-.248.9254.9254,0,0,0-.0351-.0986.9882.9882,0,0,0-.1972-.2967L18.8789,8.4644a1,1,0,1,0-1.4141,1.414L18.5859,11H13a1,1,0,0,0,0,2Z"></path><path d="M3,22H9a1,1,0,0,0,1-1V3A1,1,0,0,0,9,2H3A1,1,0,0,0,2,3V21A1,1,0,0,0,3,22ZM4,4H8V20H4Z"></path></g></svg>