<svg  fill="#000000" xmlns="http://www.w3.org/2000/svg" viewBox="0 0 24 24" x="0px" y="0px"><title>Artboard 6</title><g data-name="Layer 101"><path d="M9.8789,6.5356,11,5.4146V11a1,1,0,0,0,2,0V5.4144l1.1211,1.1212a1,1,0,1,0,1.4141-1.414L12.707,2.293c-.0092-.0093-.0218-.0121-.0313-.0209a.9863.9863,0,0,0-.2929-.1959l-.0035-.0009c-.0085-.0035-.0175-.0033-.026-.0065a.9842.9842,0,0,0-.3165-.0617c-.0338-.0012-.0657.003-.0994.0051a.9824.9824,0,0,0-.25.0487.9262.9262,0,0,0-.0967.0344.9845.9845,0,0,0-.2976.1977L8.4648,5.1216a1,1,0,1,0,1.4141,1.414Z"></path><path d="M21,14H3a1,1,0,0,0-1,1v6a1,1,0,0,0,1,1H21a1,1,0,0,0,1-1V15A1,1,0,0,0,21,14Zm-1,6H4V16H20Z"></path></g></svg>