<svg fill="#000000" xmlns="http://www.w3.org/2000/svg" xmlns:xlink="http://www.w3.org/1999/xlink" version="1.1" x="0px" y="0px" viewBox="0 0 64 64" style="enable-background:new 0 0 64 64;" xml:space="preserve"><path d="M59.5771,15.7368l-11.314-11.314c-0.3906-0.3906-1.0234-0.3906-1.4141,0L4.4229,46.8491  c-0.3906,0.3906-0.3906,1.0234,0,1.4141l11.314,11.314c0.1953,0.1953,0.4512,0.293,0.707,0.293s0.5117-0.0977,0.707-0.293  l42.4263-42.4263C59.9678,16.7603,59.9678,16.1274,59.5771,15.7368z M55.3347,18.5652l-2.1218-2.1214  c-0.3906-0.3906-1.0234-0.3906-1.4141,0s-0.3906,1.0239,0,1.4141l2.1218,2.1214l-2.1215,2.1215l-4.2429-4.2429  c-0.3906-0.3906-1.0234-0.3906-1.4141,0s-0.3906,1.0234,0,1.4141l4.2429,4.2429l-2.1213,2.1213l-2.1216-2.1216  c-0.3906-0.3906-1.0234-0.3906-1.4141,0s-0.3906,1.0234,0,1.4141l2.1216,2.1216l-2.1216,2.1216l-4.2427-4.2427  c-0.3906-0.3906-1.0234-0.3906-1.4141,0s-0.3906,1.0234,0,1.4141l4.2427,4.2427l-2.1214,2.1214l-2.1218-2.1214  c-0.3906-0.3906-1.0234-0.3906-1.4141,0s-0.3906,1.0239,0,1.4141l2.1218,2.1214l-2.1215,2.1215L33.4141,32  c-0.3906-0.3906-1.0234-0.3906-1.4141,0s-0.3906,1.0234,0,1.4141l4.2429,4.2429l-2.1215,2.1215L32,37.6567  c-0.3906-0.3906-1.0234-0.3906-1.4141,0c-0.3906,0.3901-0.3906,1.0234,0,1.4141l2.1214,2.1218l-2.1214,2.1214l-4.2427-4.2427  c-0.3906-0.3906-1.0234-0.3906-1.4141,0s-0.3906,1.0234,0,1.4141l4.2427,4.2427l-2.1216,2.1216l-2.1216-2.1216  c-0.3906-0.3906-1.0234-0.3906-1.4141,0s-0.3906,1.0234,0,1.4141l2.1216,2.1216l-2.1213,2.1213l-4.2429-4.2429  c-0.3906-0.3906-1.0234-0.3906-1.4141,0s-0.3906,1.0234,0,1.4141l4.2429,4.2429l-2.1215,2.1215l-2.1214-2.1218  c-0.3906-0.3906-1.0234-0.3906-1.4141,0c-0.3906,0.3901-0.3906,1.0234,0,1.4141l2.1214,2.1218l-2.1214,2.1214l-9.8999-9.8999  L47.5562,6.5439l9.8999,9.8999L55.3347,18.5652z"></path></svg>