<svg  fill="#000000" xmlns="http://www.w3.org/2000/svg" xmlns:xlink="http://www.w3.org/1999/xlink" version="1.1" x="0px" y="0px" viewBox="0 0 100 100" enable-background="new 0 0 100 100" xml:space="preserve"><g><path d="M26.718,60.63c-0.996-1.917-2.958-3.107-5.121-3.107c-1.128,0-2.225,0.33-3.171,0.955l-4.618,3.049   c-0.641,0.423-0.858,1.262-0.504,1.944l8.944,17.209c0.196,0.377,0.543,0.653,0.954,0.76c0.125,0.033,0.251,0.048,0.377,0.048   c0.291,0,0.579-0.085,0.827-0.248l5.363-3.541c2.471-1.631,3.304-4.843,1.938-7.47L26.718,60.63z M28.115,75.195l-3.973,2.624   l-7.553-14.533l3.49-2.304c0.454-0.3,0.979-0.458,1.518-0.458c1.039,0,1.981,0.571,2.459,1.491l4.989,9.599   C29.7,72.873,29.3,74.413,28.115,75.195z"></path><path d="M94.991,20.259c-0.002-0.032,0.002-0.064-0.002-0.096c-0.002-0.012-0.006-0.024-0.008-0.036   c-0.008-0.054-0.022-0.106-0.036-0.159c-0.012-0.045-0.022-0.09-0.037-0.132c-0.016-0.044-0.038-0.087-0.059-0.13   c-0.023-0.047-0.044-0.095-0.072-0.139c-0.007-0.011-0.011-0.024-0.018-0.035l-5.8-8.941c-0.218-0.335-0.561-0.57-0.952-0.652   c-0.392-0.083-0.799-0.003-1.133,0.217L33.535,45.409c-0.997-0.864-2.279-1.359-3.636-1.359c-1.09,0-2.148,0.319-3.061,0.921   L7.157,57.979c-2.036,1.346-2.741,4.003-1.639,6.181l11.785,23.295c0.823,1.627,2.468,2.639,4.294,2.639c0,0,0,0,0,0   c0.941,0,1.856-0.276,2.646-0.797l14.762-9.756c1.399-0.925,2.355-2.341,2.691-3.986l1.042-5.104l2.955-0.372   c0.683-0.086,1.219-0.625,1.302-1.309l0.259-2.145l2.14-0.268c0.684-0.085,1.222-0.626,1.303-1.31l0.256-2.14l2.138-0.267   c0.685-0.085,1.223-0.626,1.304-1.311l0.254-2.135l2.131-0.263c0.685-0.085,1.224-0.625,1.305-1.311l0.255-2.138l2.136-0.266   c0.685-0.085,1.223-0.626,1.304-1.311l0.254-2.136l2.136-0.266c0.685-0.085,1.223-0.626,1.304-1.312l0.253-2.134l2.134-0.265   c0.685-0.085,1.223-0.627,1.305-1.312l0.253-2.133l2.134-0.265c0.685-0.085,1.223-0.627,1.305-1.312l0.252-2.132l2.129-0.263   c0.686-0.084,1.225-0.626,1.306-1.312l0.253-2.133l2.132-0.264c0.686-0.085,1.224-0.627,1.305-1.313l0.251-2.128l2.126-0.262   c0.686-0.084,1.226-0.626,1.307-1.313l0.251-2.13l2.132-0.264c0.685-0.085,1.224-0.626,1.305-1.312l0.253-2.133l2.131-0.264   c0.685-0.085,1.224-0.626,1.306-1.312l0.253-2.134l2.132-0.264c0.013-0.002,0.024-0.006,0.036-0.008   c0.053-0.008,0.105-0.022,0.158-0.036c0.045-0.012,0.091-0.022,0.135-0.038c0.042-0.015,0.082-0.036,0.123-0.056   c0.051-0.024,0.101-0.047,0.148-0.076c0.01-0.006,0.022-0.01,0.032-0.016c0.027-0.017,0.048-0.04,0.073-0.059   c0.044-0.033,0.088-0.065,0.128-0.103c0.036-0.033,0.067-0.069,0.099-0.105c0.032-0.036,0.064-0.072,0.092-0.11   c0.029-0.04,0.055-0.083,0.08-0.126c0.024-0.041,0.047-0.081,0.067-0.124c0.02-0.044,0.037-0.089,0.053-0.134   c0.016-0.046,0.032-0.092,0.044-0.14c0.012-0.047,0.019-0.094,0.026-0.142c0.007-0.047,0.014-0.094,0.016-0.143   C94.997,20.367,94.994,20.313,94.991,20.259z M38.757,74.954c-0.173,0.848-0.686,1.607-1.407,2.083L22.59,86.793   c-0.297,0.196-0.641,0.3-0.992,0.3c-0.688,0-1.308-0.38-1.618-0.993L8.195,62.805c-0.414-0.819-0.149-1.818,0.617-2.324   l19.681-13.008c0.42-0.277,0.906-0.424,1.406-0.424c0.864,0,1.663,0.429,2.138,1.148l8.724,13.199   c0.377,0.57,0.509,1.252,0.373,1.922L38.757,74.954z M90.017,19.267c-0.685,0.085-1.224,0.626-1.305,1.312l-0.254,2.134   l-2.131,0.264c-0.686,0.085-1.224,0.626-1.306,1.312l-0.253,2.134l-2.133,0.264c-0.686,0.085-1.224,0.627-1.305,1.313l-0.251,2.128   l-2.126,0.262c-0.686,0.084-1.226,0.626-1.307,1.313l-0.251,2.13l-2.131,0.264c-0.685,0.085-1.224,0.626-1.305,1.312l-0.253,2.133   l-2.129,0.263c-0.686,0.084-1.225,0.626-1.306,1.312l-0.252,2.133l-2.134,0.265c-0.685,0.085-1.223,0.627-1.305,1.312l-0.253,2.133   l-2.134,0.265c-0.685,0.085-1.223,0.626-1.305,1.312l-0.253,2.135l-2.135,0.266c-0.684,0.085-1.223,0.626-1.304,1.311l-0.254,2.136   l-2.135,0.266c-0.685,0.085-1.223,0.625-1.304,1.311l-0.255,2.137l-2.132,0.264c-0.685,0.085-1.224,0.626-1.305,1.312l-0.254,2.136   l-2.137,0.267c-0.684,0.085-1.222,0.625-1.304,1.31l-0.256,2.14l-2.139,0.268c-0.684,0.085-1.221,0.625-1.303,1.309l-0.259,2.146   l-0.784,0.099l0.7-3.429c0.297-1.455,0.009-2.938-0.809-4.176l-7.896-11.947l51.898-34.303l3.673,5.661L90.017,19.267z"></path><path d="M51.648,39.824l-7.737,5.114c-0.691,0.457-0.881,1.387-0.424,2.079c0.289,0.437,0.766,0.673,1.253,0.673   c0.284,0,0.571-0.081,0.826-0.249l7.737-5.114c0.691-0.457,0.881-1.387,0.424-2.079C53.27,39.558,52.341,39.369,51.648,39.824z"></path></g></svg>