<svg  fill="#000000" xmlns="http://www.w3.org/2000/svg" xmlns:xlink="http://www.w3.org/1999/xlink" version="1.1" x="0px" y="0px" viewBox="0 0 100 100" style="enable-background:new 0 0 100 100;" xml:space="preserve"><g><path d="M87.799,5c-1.923,0-3.732,0.749-5.092,2.109L48.83,40.987c-1.604,1.604-2.288,3.782-2.059,5.878L32.651,60.985   l-9.299-9.299l-2.103-2.103c-0.78-0.781-2.048-0.781-2.828,0c-0.781,0.781-0.781,2.047,0,2.828L19.11,53.1l-7.106,7.106   c-5.448,5.448-7.945,13.237-6.678,20.838l1.712,10.274c0.14,0.843,0.801,1.504,1.644,1.644l10.274,1.712   C20.252,94.891,21.575,95,22.888,95c6.387,0,12.391-2.487,16.907-7.004L46.9,80.89l0.689,0.689c0.39,0.391,0.902,0.586,1.414,0.586   s1.024-0.195,1.414-0.586c0.781-0.781,0.781-2.047,0-2.828l-2.103-2.103l-9.299-9.299L53.13,53.233   c0.261,0.028,0.525,0.046,0.791,0.046c1.923,0,3.731-0.749,5.091-2.109l33.878-33.878c1.36-1.36,2.109-3.168,2.109-5.092   s-0.749-3.732-2.109-5.091C91.531,5.749,89.723,5,87.799,5z M36.966,85.168C33.206,88.929,28.206,91,22.888,91   c-1.093,0-2.194-0.091-3.274-0.271l-8.865-1.478l-1.478-8.865c-1.055-6.329,1.024-12.816,5.561-17.353l7.106-7.105l7.107,7.107   l-0.047,0.047c-0.781,0.781-0.781,2.047,0.001,2.828c0.39,0.39,0.902,0.585,1.414,0.585c0.512,0,1.024-0.195,1.415-0.586   l0.046-0.046l2.263,2.263l-6.862,6.862c-0.621,0.62-1.633,0.617-2.256-0.006c-0.624-0.624-0.627-1.636-0.007-2.256l3.316-3.316   c0.781-0.781,0.781-2.047,0-2.828c-0.78-0.781-2.048-0.781-2.828,0l-3.316,3.316c-2.179,2.18-2.176,5.729,0.007,7.913   c1.093,1.093,2.528,1.639,3.962,1.639c1.431,0,2.862-0.544,3.95-1.632l6.863-6.863l7.107,7.107L36.966,85.168z M36.19,64.517   l-0.707-0.707l13.01-13.011c0.109,0.126,0.217,0.252,0.336,0.372c0.119,0.119,0.245,0.227,0.371,0.336L36.19,64.517z    M90.063,14.464L56.185,48.342c-1.209,1.209-3.318,1.208-4.526,0c-1.248-1.248-1.248-3.279,0-4.527L85.536,9.938   C86.141,9.333,86.944,9,87.799,9s1.659,0.333,2.263,0.938C90.667,10.542,91,11.346,91,12.201S90.667,13.859,90.063,14.464z"></path></g></svg>