<svg fill="#000000" xmlns="http://www.w3.org/2000/svg" xmlns:xlink="http://www.w3.org/1999/xlink" version="1.1" x="0px" y="0px" viewBox="0 0 100 100" enable-background="new 0 0 100 100" xml:space="preserve"><g><g><path d="M69.8,55.564c2.291,0,4.091,1.8,4.091,4.091c0,2.236-1.8,4.091-4.091,4.091H53.927c-2.236,0-4.091-1.855-4.091-4.091    c0-2.291,1.855-4.091,4.091-4.091H69.8z"></path><path d="M42.745,47.109c1.582,1.582,1.582,4.2,0,5.782l-9.655,9.655c-1.582,1.582-4.145,1.582-5.782,0    c-1.582-1.582-1.582-4.2,0-5.782L34.073,50l-6.764-6.709c-1.582-1.636-1.582-4.2,0-5.782c1.636-1.636,4.2-1.636,5.782,0    L42.745,47.109z"></path><path d="M86.818,71.327V28.673c0-4.036-3.273-7.309-7.309-7.309H20.491c-4.036,0-7.255,3.273-7.309,7.309v42.655    c0.055,4.036,3.273,7.309,7.309,7.309h59.018C83.545,78.636,86.818,75.364,86.818,71.327z M95,28.673v42.655    c0,8.564-6.927,15.491-15.491,15.491H20.491C11.927,86.818,5,79.891,5,71.327V28.673c0-8.564,6.927-15.491,15.491-15.491h59.018    C88.073,13.182,95,20.109,95,28.673z"></path></g></g></svg>
