<svg  fill="#000000" xmlns="http://www.w3.org/2000/svg" xmlns:xlink="http://www.w3.org/1999/xlink" viewBox="0 0 50 58" version="1.1" x="0px" y="0px"><title>91 -Cube- (Outline)</title><desc>Created with Sketch.</desc><g stroke="none" stroke-width="1" fill="none" fill-rule="evenodd"><g transform="translate(-118.000000, -1410.000000)" fill="#000000"><g transform="translate(118.000000, 1410.000000)"><path d="M2.0002,43.4043 L24.0002,55.3213 L24.0002,29.5743 L2.0002,16.7413 L2.0002,43.4043 Z M25.0002,58.0003 C24.8362,58.0003 24.6722,57.9603 24.5242,57.8793 L0.5242,44.8793 C0.2012,44.7043 0.0002,44.3673 0.0002,44.0003 L0.0002,15.0003 C0.0002,14.6413 0.1912,14.3113 0.5022,14.1333 C0.8132,13.9533 1.1952,13.9583 1.5042,14.1353 L25.5042,28.1353 C25.8112,28.3153 26.0002,28.6443 26.0002,29.0003 L26.0002,57.0003 C26.0002,57.3523 25.8142,57.6783 25.5122,57.8593 C25.3542,57.9533 25.1772,58.0003 25.0002,58.0003 L25.0002,58.0003 Z"></path><path d="M25.0012,58 C24.6462,58 24.3022,57.811 24.1212,57.477 C23.8572,56.99 24.0382,56.384 24.5242,56.121 L48.0002,43.404 L48.0002,16.741 L25.5042,29.864 C25.0252,30.141 24.4152,29.979 24.1362,29.504 C23.8582,29.026 24.0192,28.414 24.4962,28.136 L48.4962,14.136 C48.8052,13.958 49.1872,13.953 49.4982,14.133 C49.8092,14.312 50.0002,14.642 50.0002,15 L50.0002,44 C50.0002,44.367 49.7992,44.704 49.4762,44.879 L25.4762,57.879 C25.3252,57.961 25.1622,58 25.0012,58"></path><path d="M48.9992,16 C48.8282,16 48.6552,15.956 48.4962,15.864 L25.0002,2.157 L1.5042,15.864 C1.0262,16.141 0.4152,15.979 0.1362,15.504 C-0.1418,15.026 0.0192,14.414 0.4962,14.136 L24.4962,0.136 C24.8082,-0.046 25.1922,-0.046 25.5042,0.136 L49.5042,14.136 C49.9812,14.414 50.1422,15.026 49.8642,15.504 C49.6782,15.822 49.3432,16 48.9992,16"></path><path d="M18.0012,21 C17.6682,21 17.3422,20.834 17.1522,20.53 C16.8592,20.062 17.0012,19.444 17.4702,19.152 L33.4702,9.152 C33.9382,8.858 34.5562,9.002 34.8482,9.47 C35.1412,9.938 34.9992,10.556 34.5302,10.848 L18.5302,20.848 C18.3652,20.951 18.1822,21 18.0012,21"></path><path d="M33.9992,21 C33.8182,21 33.6352,20.951 33.4702,20.848 L17.4702,10.848 C17.0012,10.556 16.8592,9.938 17.1522,9.47 C17.4452,9.001 18.0622,8.857 18.5302,9.152 L34.5302,19.152 C34.9992,19.444 35.1412,20.062 34.8482,20.53 C34.6582,20.834 34.3322,21 33.9992,21"></path></g></g></g></svg>