<svg  fill="#000000" xmlns="http://www.w3.org/2000/svg" xmlns:xlink="http://www.w3.org/1999/xlink" viewBox="0 0 60 60" version="1.1" x="0px" y="0px"><title>72 -Cube- (Outline)</title><desc>Created with Sketch.</desc><g stroke="none" stroke-width="1" fill="none" fill-rule="evenodd"><g transform="translate(-233.000000, -1169.000000)" fill="#000000"><g transform="translate(233.000000, 1168.000000)"><path d="M2,59 L44,59 L44,17 L2,17 L2,59 Z M45,61 L1,61 C0.448,61 0,60.553 0,60 L0,16 C0,15.447 0.448,15 1,15 L45,15 C45.552,15 46,15.447 46,16 L46,60 C46,60.553 45.552,61 45,61 L45,61 Z"></path><path d="M3.4142,15 L44.5862,15 L56.5862,3 L15.4142,3 L3.4142,15 Z M45.0002,17 L1.0002,17 C0.5962,17 0.2312,16.757 0.0762,16.383 C-0.0788,16.009 0.0072,15.579 0.2932,15.293 L14.2932,1.293 C14.4802,1.105 14.7352,1 15.0002,1 L59.0002,1 C59.4042,1 59.7692,1.243 59.9242,1.617 C60.0792,1.991 59.9932,2.421 59.7072,2.707 L45.7072,16.707 C45.5192,16.895 45.2652,17 45.0002,17 L45.0002,17 Z"></path><path d="M46.0002,16.4141 L46.0002,57.5861 L58.0002,45.5861 L58.0002,4.4141 L46.0002,16.4141 Z M45.0002,61.0001 C44.8712,61.0001 44.7412,60.9761 44.6172,60.9241 C44.2442,60.7691 44.0002,60.4041 44.0002,60.0001 L44.0002,16.0001 C44.0002,15.7341 44.1052,15.4801 44.2932,15.2931 L58.2932,1.2931 C58.5792,1.0071 59.0072,0.9201 59.3832,1.0761 C59.7562,1.2301 60.0002,1.5961 60.0002,2.0001 L60.0002,46.0001 C60.0002,46.2661 59.8952,46.5191 59.7072,46.7071 L45.7072,60.7071 C45.5162,60.8981 45.2602,61.0001 45.0002,61.0001 L45.0002,61.0001 Z"></path><path d="M1.0002,53.4883 C0.7422,53.4883 0.4842,53.3883 0.2882,53.1903 C-0.0998,52.7973 -0.0948,52.1643 0.2982,51.7763 L37.3052,15.2813 C37.6992,14.8923 38.3322,14.8983 38.7192,15.2913 C39.1072,15.6843 39.1032,16.3173 38.7092,16.7053 L1.7022,53.2003 C1.5072,53.3923 1.2532,53.4883 1.0002,53.4883"></path><path d="M7.6008,61.0303 C7.3448,61.0303 7.0888,60.9323 6.8938,60.7373 C6.5028,60.3463 6.5028,59.7143 6.8938,59.3233 L44.2958,21.9213 C44.6868,21.5303 45.3198,21.5303 45.7098,21.9213 C46.1008,22.3113 46.1008,22.9443 45.7098,23.3353 L8.3078,60.7373 C8.1128,60.9323 7.8568,61.0303 7.6008,61.0303"></path><path d="M1.0002,46.418 C0.7442,46.418 0.4882,46.32 0.2932,46.125 C-0.0978,45.734 -0.0978,45.102 0.2932,44.711 L29.7112,15.293 C30.1022,14.902 30.7342,14.902 31.1252,15.293 C31.5162,15.684 31.5162,16.316 31.1252,16.707 L1.7072,46.125 C1.5122,46.32 1.2562,46.418 1.0002,46.418"></path><path d="M1.0002,39.3467 C0.7442,39.3467 0.4882,39.2487 0.2932,39.0537 C-0.0978,38.6627 -0.0978,38.0307 0.2932,37.6397 L22.6402,15.2927 C23.0302,14.9027 23.6632,14.9027 24.0542,15.2927 C24.4442,15.6837 24.4442,16.3167 24.0542,16.7067 L1.7072,39.0537 C1.5122,39.2487 1.2562,39.3467 1.0002,39.3467"></path><path d="M1.0002,32.2754 C0.7442,32.2754 0.4882,32.1774 0.2932,31.9824 C-0.0978,31.5914 -0.0978,30.9594 0.2932,30.5684 L15.5352,15.3264 C15.9262,14.9354 16.5592,14.9354 16.9492,15.3264 C17.3402,15.7164 17.3402,16.3494 16.9492,16.7404 L1.7072,31.9824 C1.5122,32.1774 1.2562,32.2754 1.0002,32.2754"></path><path d="M1.0002,25.2051 C0.7442,25.2051 0.4882,25.1071 0.2932,24.9121 C-0.0978,24.5211 -0.0978,23.8891 0.2932,23.4981 L8.4642,15.3261 C8.8542,14.9351 9.4872,14.9351 9.8782,15.3261 C10.2692,15.7171 10.2692,16.3501 9.8782,16.7401 L1.7072,24.9121 C1.5122,25.1071 1.2562,25.2051 1.0002,25.2051"></path><path d="M1.0305,60.5303 C0.7745,60.5303 0.5185,60.4323 0.3235,60.2373 C-0.0675,59.8463 -0.0675,59.2143 0.3235,58.8233 L43.8535,15.2933 C44.2435,14.9023 44.8765,14.9023 45.2675,15.2933 C45.6575,15.6833 45.6575,16.3163 45.2675,16.7073 L1.7375,60.2373 C1.5425,60.4323 1.2865,60.5303 1.0305,60.5303"></path><path d="M14.4909,60.998 C14.2319,60.998 13.9739,60.898 13.7779,60.699 C13.3909,60.306 13.3959,59.672 13.7899,59.285 L44.2989,29.287 C44.6929,28.899 45.3249,28.904 45.7129,29.299 C46.0999,29.692 46.0949,30.326 45.7009,30.713 L15.1919,60.711 C14.9969,60.902 14.7439,60.998 14.4909,60.998"></path><path d="M28.7111,60.9199 C28.4551,60.9199 28.1991,60.8219 28.0041,60.6269 C27.6131,60.2359 27.6131,59.6039 28.0041,59.2129 L44.2961,42.9209 C44.6871,42.5299 45.3191,42.5299 45.7101,42.9209 C46.1011,43.3119 46.1011,43.9439 45.7101,44.3349 L29.4181,60.6269 C29.2231,60.8219 28.9671,60.9199 28.7111,60.9199"></path><path d="M35.6013,61.0303 C35.3453,61.0303 35.0893,60.9323 34.8943,60.7373 C34.5033,60.3463 34.5033,59.7143 34.8943,59.3233 L44.2963,49.9213 C44.6863,49.5303 45.3193,49.5303 45.7103,49.9213 C46.1013,50.3113 46.1013,50.9443 45.7103,51.3353 L36.3083,60.7373 C36.1133,60.9323 35.8573,61.0303 35.6013,61.0303"></path><path d="M21.5305,61.0303 C21.2745,61.0303 21.0185,60.9323 20.8235,60.7373 C20.4325,60.3463 20.4325,59.7143 20.8235,59.3233 L44.2815,35.8643 C44.6725,35.4733 45.3045,35.4733 45.6955,35.8643 C46.0865,36.2553 46.0865,36.8873 45.6955,37.2783 L22.2375,60.7373 C22.0425,60.9323 21.7865,61.0303 21.5305,61.0303"></path></g></g></g></svg>