<svg  fill="#000000" xmlns:dc="http://purl.org/dc/elements/1.1/" xmlns:cc="http://creativecommons.org/ns#" xmlns:rdf="http://www.w3.org/1999/02/22-rdf-syntax-ns#" xmlns:svg="http://www.w3.org/2000/svg" xmlns="http://www.w3.org/2000/svg" version="1.1" viewBox="0 0 100 100" x="0px" y="0px"><g transform="translate(0,-952.36216)"><path style="color:black;font-style:normal;font-variant:normal;font-weight:normal;font-stretch:normal;font-size:medium;line-height:normal;font-family:sans-serif;text-indent:0;text-align:start;text-decoration:none;text-decoration-line:none;text-decoration-style:solid;letter-spacing:normal;word-spacing:normal;text-transform:none;direction:ltr;writing-mode:lr-tb;baseline-shift:baseline;text-anchor:start;white-space:normal;clip-rule:nonzero;display:inline;overflow:visible;visibility:visible;isolation:auto;mix-blend-mode:normal;color-interpolation:sRGB;color-interpolation-filters:linearRGB;fill:#000000;fill-opacity:1;fill-rule:evenodd;stroke:none;stroke-width:5;stroke-linecap:round;stroke-linejoin:round;stroke-miterlimit:4;stroke-dasharray:none;stroke-dashoffset:0;stroke-opacity:1;marker:none;color-rendering:auto;image-rendering:auto;shape-rendering:auto;text-rendering:auto;enable-background:accumulate" d="m 10,959.86113 c -1.3806999,10e-5 -2.4998999,1.1193 -2.4999999,2.5 l 0,60.00007 c 10e-5,1.3807 1.1193,2.4999 2.4999999,2.5 l 17.5,0 0,17.502 c 10e-5,1.3807 1.1193,2.4999 2.5,2.5 l 60,0 c 1.3807,-10e-5 2.4999,-1.1193 2.5,-2.5 l 0,-60.00007 c -1e-4,-1.3807 -1.1193,-2.4999 -2.5,-2.5 l -17.5,0 0,-17.502 c -1e-4,-1.3807 -1.1193,-2.4999 -2.5,-2.5 z m 2.5,5 55,0 0,15.002 -37.5,0 c -1.3807,1e-4 -2.4999,1.1193 -2.5,2.5 l 0,37.49807 -15,0 z m 20,20.002 55,0 0,55.00007 -55,0 z"></path></g></svg>
