<svg  fill="#000000" xmlns="http://www.w3.org/2000/svg" xmlns:xlink="http://www.w3.org/1999/xlink" viewBox="0 0 60 60" version="1.1" x="0px" y="0px"><title>74 -Cube- (Outline)</title><desc>Created with Sketch.</desc><g stroke="none" stroke-width="1" fill="none" fill-rule="evenodd"><g transform="translate(-473.000000, -1169.000000)" fill="#000000"><g transform="translate(473.000000, 1168.000000)"><path d="M2,59 L44,59 L44,17 L2,17 L2,59 Z M45,61 L1,61 C0.448,61 0,60.553 0,60 L0,16 C0,15.447 0.448,15 1,15 L45,15 C45.552,15 46,15.447 46,16 L46,60 C46,60.553 45.552,61 45,61 L45,61 Z"></path><path d="M3.4142,15 L44.5862,15 L56.5862,3 L15.4142,3 L3.4142,15 Z M45.0002,17 L1.0002,17 C0.5962,17 0.2312,16.757 0.0762,16.383 C-0.0788,16.009 0.0072,15.579 0.2932,15.293 L14.2932,1.293 C14.4802,1.105 14.7352,1 15.0002,1 L59.0002,1 C59.4042,1 59.7692,1.243 59.9242,1.617 C60.0792,1.991 59.9932,2.421 59.7072,2.707 L45.7072,16.707 C45.5192,16.895 45.2652,17 45.0002,17 L45.0002,17 Z"></path><path d="M46.0002,16.4141 L46.0002,57.5861 L58.0002,45.5861 L58.0002,4.4141 L46.0002,16.4141 Z M45.0002,61.0001 C44.8712,61.0001 44.7412,60.9761 44.6172,60.9241 C44.2442,60.7691 44.0002,60.4041 44.0002,60.0001 L44.0002,16.0001 C44.0002,15.7341 44.1052,15.4801 44.2932,15.2931 L58.2932,1.2931 C58.5792,1.0071 59.0072,0.9201 59.3832,1.0761 C59.7562,1.2301 60.0002,1.5961 60.0002,2.0001 L60.0002,46.0001 C60.0002,46.2661 59.8952,46.5191 59.7072,46.7071 L45.7072,60.7071 C45.5162,60.8981 45.2602,61.0001 45.0002,61.0001 L45.0002,61.0001 Z"></path><path d="M23.4758,17.0176 C23.2138,17.0176 22.9528,16.9146 22.7558,16.7116 C22.3728,16.3146 22.3838,15.6816 22.7818,15.2976 L37.2608,1.3296 C37.6588,0.9456 38.2918,0.9576 38.6748,1.3546 C39.0588,1.7516 39.0468,2.3846 38.6498,2.7686 L24.1698,16.7376 C23.9758,16.9246 23.7258,17.0176 23.4758,17.0176"></path><path d="M37.6354,17 C37.3794,17 37.1234,16.902 36.9284,16.707 C36.5374,16.316 36.5374,15.684 36.9284,15.293 L50.9284,1.293 C51.3194,0.902 51.9514,0.902 52.3424,1.293 C52.7334,1.684 52.7334,2.316 52.3424,2.707 L38.3424,16.707 C38.1474,16.902 37.8914,17 37.6354,17"></path><path d="M16.4221,17 C16.1661,17 15.9101,16.902 15.7151,16.707 C15.3241,16.316 15.3241,15.684 15.7151,15.293 L29.6951,1.312 C30.0861,0.922 30.7181,0.922 31.1091,1.312 C31.5001,1.703 31.5001,2.336 31.1091,2.727 L17.1291,16.707 C16.9341,16.902 16.6781,17 16.4221,17"></path><path d="M9.363,16.9883 C9.107,16.9883 8.851,16.8903 8.656,16.6953 C8.265,16.3043 8.265,15.6723 8.656,15.2813 L22.614,1.3223 C23.005,0.9313 23.638,0.9313 24.029,1.3223 C24.419,1.7133 24.419,2.3453 24.029,2.7363 L10.07,16.6953 C9.875,16.8903 9.619,16.9883 9.363,16.9883"></path><path d="M30.6623,16.9023 C30.4063,16.9023 30.1503,16.8043 29.9553,16.6093 C29.5643,16.2183 29.5643,15.5863 29.9553,15.1953 L43.7213,1.4293 C44.1113,1.0393 44.7443,1.0393 45.1353,1.4293 C45.5253,1.8203 45.5253,2.4533 45.1353,2.8433 L31.3693,16.6093 C31.1743,16.8043 30.9183,16.9023 30.6623,16.9023"></path></g></g></g></svg>