<svg fill="#000000" xmlns="http://www.w3.org/2000/svg" xmlns:xlink="http://www.w3.org/1999/xlink" version="1.1" x="0px" y="0px" viewBox="0 0 68 68" enable-background="new 0 0 68 68" xml:space="preserve"><g><path d="M59.9736328,35.0673828h-0.6650391c-0.5527344,0-1,0.4472656-1,1v2.3105469h-3.5644531   c0-6.8429031,0-12.069109,0-22.4580078c0-4.0325317-3.0445557-7.3626099-6.9541016-7.8248901   c-0.4619751-3.4349976-3.4055176-6.0950317-6.9658203-6.0950317H27.1757813c-3.5603027,0-6.5038452,2.6600344-6.9658203,6.0950317   c-3.9095459,0.4622803-6.9541016,3.7923584-6.9541016,7.8248901c0,10.2831812,0,15.5243998,0,22.4580078H9.6914063v-2.3105469   c0-0.5527344-0.4472656-1-1-1H8.0263672c-3.6972656,0-6.7050781,3.0078125-6.7050781,6.7050781   s3.0078125,6.7050781,6.7050781,6.7050781h0.6650391c0.5527344,0,1-0.4472656,1-1v-2.3103638l3.5644531,0.0006104v0.7892456   c0,0.5527344,0.4472656,1,1,1h0.6923828v10.5087891h-3.3349609c-0.5527344,0-1,0.4472656-1,1V65c0,0.5527344,0.4472656,1,1,1   h44.7734375c0.5527344,0,1-0.4472656,1-1v-6.5341797c0-0.5527344-0.4472656-1-1-1h-3.3349609V46.9570313h0.6923828   c0.5527344,0,1-0.4472656,1-1v-0.789856l3.5644531,0.0006104v2.3097534c0,0.5527344,0.4472656,1,1,1h0.6650391   c3.6972656,0,6.7050781-3.0078125,6.7050781-6.7050781S63.6708984,35.0673828,59.9736328,35.0673828z M20.4472656,57.4658203   V46.9570313h0.6923828c0.5527344,0,1-0.4472656,1-1v-0.5234375h4.6923218   c0.4484863,1.927063,2.1523438,3.3694458,4.2022095,3.4165649c0.1877899,1.6734695-0.574625,3.9857788,1,3.9857788H33v2.9208984h2   v-2.9208984c0.2227898-0.0506897,1.9658203,0.2974396,1.9658203-1v-2.9857788   c2.0498657-0.0471191,3.7537231-1.489502,4.2022095-3.4165649h4.6923218v0.5234375c0,0.5527344,0.4472656,1,1,1h0.6923828   v10.5087891H20.4472656z M15.2558594,44.9570313c0-2.8041039,0-5.2921524,0-6.3671875h4.8837891   c0,0.1026878,0,6.4698753,0,6.3671875C18.1392288,44.9570313,17.0224457,44.9570313,15.2558594,44.9570313z M26.7080078,10.0351572   v26.5546875h-4.5683594V10.0351572H26.7080078z M34.9658203,50.8359375h-1.9316406v-1.9755859h1.9316406V50.8359375z    M36.8652344,46.8603516c-0.1609879,0-5.8331547,0-5.7304688,0c-0.9814453,0-1.8291016-0.5859375-2.2109375-1.4267578h10.1523438   C38.6943359,46.2744141,37.8466797,46.8603516,36.8652344,46.8603516z M22.1396484,43.4335938v-4.84375h23.7207031v4.84375   C37.314537,43.4335938,31.0167313,43.4335938,22.1396484,43.4335938z M45.8603516,36.5898438h-4.5683594V10.0351572h4.5683594   V36.5898438z M39.2919922,36.5898438H28.7080078V10.0351572h10.5839844V36.5898438z M47.8603516,44.9570313   c0-0.1484833,0-6.5167885,0-6.3671875h4.8837891v6.3671875C50.743721,44.9570313,49.6269379,44.9570313,47.8603516,44.9570313z    M52.7441406,15.9199228v20.6699219h-4.8837891V10.1201181C50.6298828,10.5966806,52.7441406,13.015626,52.7441406,15.9199228z    M27.1757813,4.000001h13.6484375c2.4345703,0,4.4716797,1.7363281,4.9365234,4.0351563H22.2392578   C22.7041016,5.7363291,24.7412109,4.000001,27.1757813,4.000001z M15.2558594,15.9199228   c0-2.9042969,2.1142387-5.3232422,4.8837891-5.7998047v26.4697266h-4.8837891V15.9199228z M7.6914063,46.4658203   c-2.4384766-0.1728516-4.3701172-2.2119141-4.3701172-4.6933594s1.9316406-4.5205078,4.3701172-4.6933594V46.4658203z    M9.6923828,43.1669922l-0.0009766-2.7890625h3.5644531v2.7900391L9.6923828,43.1669922z M16.9482422,46.9570313h1.4990234   v10.5087891h-1.4990234V46.9570313z M55.3867188,64H12.6132813v-4.5341797c12.6203842,0,30.2038994,0,42.7734375,0V64z    M51.0517578,57.4658203h-1.4990234V46.9570313h1.4990234V57.4658203z M54.7460938,43.1669922l-0.0019531-2.7890625h3.5644531   v2.7900391L54.7460938,43.1669922z M60.3085938,46.4658203c0-3.2806664,0-6.1059189,0-9.3867188   c2.4384766,0.1728516,4.3701172,2.2119141,4.3701172,4.6933594S62.7470703,46.2929688,60.3085938,46.4658203z"></path></g></svg>