<svg height='100px' width='100px'  fill="#000000" xmlns="http://www.w3.org/2000/svg" xmlns:xlink="http://www.w3.org/1999/xlink" version="1.1" x="0px" y="0px" viewBox="0 0 100 100" style="enable-background:new 0 0 100 100;" xml:space="preserve"><g><path d="M19.324,58V10.243c0-1.381-1.119-2.5-2.5-2.5s-2.5,1.119-2.5,2.5v47.759C9.002,59.155,5,63.896,5,69.559   s4.002,10.403,9.324,11.556v8.642c0,1.381,1.119,2.5,2.5,2.5s2.5-1.119,2.5-2.5v-8.639c5.327-1.149,9.334-5.893,9.334-11.559   S24.652,59.149,19.324,58z M16.858,76.386c-0.012,0-0.022-0.003-0.034-0.003c-0.01,0-0.02,0.003-0.031,0.003   C13.044,76.367,10,73.312,10,69.559c0-3.76,3.055-6.819,6.813-6.828c0.004,0,0.007,0.001,0.011,0.001   c0.005,0,0.01-0.001,0.015-0.001c3.761,0.005,6.819,3.066,6.819,6.829C23.658,73.314,20.61,76.37,16.858,76.386z"></path><path d="M52.5,18.884v-8.641c0-1.381-1.119-2.5-2.5-2.5s-2.5,1.119-2.5,2.5v8.641c-5.325,1.151-9.329,5.893-9.329,11.558   s4.004,10.406,9.329,11.558v47.758c0,1.381,1.119,2.5,2.5,2.5s2.5-1.119,2.5-2.5V41.999c5.325-1.151,9.329-5.893,9.329-11.558   S57.825,20.035,52.5,18.884z M50.013,37.27c-0.004,0-0.008-0.001-0.013-0.001s-0.008,0.001-0.013,0.001   c-3.76-0.007-6.816-3.067-6.816-6.828c0-3.755,3.046-6.81,6.797-6.827c0.011,0,0.021,0.003,0.032,0.003s0.021-0.003,0.032-0.003   c3.751,0.018,6.797,3.073,6.797,6.827C56.829,34.203,53.773,37.263,50.013,37.27z"></path><path d="M85.666,42.933v-32.69c0-1.381-1.119-2.5-2.5-2.5s-2.5,1.119-2.5,2.5v32.693c-5.322,1.153-9.324,5.894-9.324,11.556   s4.002,10.403,9.324,11.556v23.708c0,1.381,1.119,2.5,2.5,2.5s2.5-1.119,2.5-2.5V66.051C90.993,64.902,95,60.158,95,54.492   S90.993,44.083,85.666,42.933z M83.171,61.321c-3.766,0-6.829-3.063-6.829-6.829s3.063-6.829,6.829-6.829S90,50.727,90,54.492   S86.937,61.321,83.171,61.321z"></path></g></svg>