<svg height='100px' width='100px'  fill="#000000" xmlns="http://www.w3.org/2000/svg" xmlns:xlink="http://www.w3.org/1999/xlink" version="1.1" x="0px" y="0px" viewBox="0 0 100 100" style="enable-background:new 0 0 100 100;" xml:space="preserve"><g><path d="M89.757,14.324H41.998C40.845,9.002,36.104,5,30.441,5s-10.403,4.002-11.556,9.324h-8.642c-1.381,0-2.5,1.119-2.5,2.5   s1.119,2.5,2.5,2.5h8.639c1.149,5.327,5.893,9.334,11.559,9.334S40.851,24.652,42,19.324h47.757c1.381,0,2.5-1.119,2.5-2.5   S91.138,14.324,89.757,14.324z M30.441,23.658c-3.756,0-6.812-3.048-6.828-6.8c0-0.012,0.003-0.022,0.003-0.034   c0-0.01-0.003-0.02-0.003-0.031C23.633,13.044,26.688,10,30.441,10c3.76,0,6.819,3.055,6.828,6.813   c0,0.004-0.001,0.007-0.001,0.011c0,0.005,0.001,0.01,0.001,0.015C37.265,20.6,34.204,23.658,30.441,23.658z"></path><path d="M89.757,47.5h-8.641c-1.151-5.325-5.893-9.329-11.558-9.329S59.152,42.175,58.001,47.5H10.243c-1.381,0-2.5,1.119-2.5,2.5   s1.119,2.5,2.5,2.5h47.758c1.151,5.325,5.893,9.329,11.558,9.329s10.406-4.004,11.558-9.329h8.641c1.381,0,2.5-1.119,2.5-2.5   S91.138,47.5,89.757,47.5z M69.559,56.829c-3.761,0-6.821-3.057-6.828-6.816c0-0.004,0.001-0.008,0.001-0.013   s-0.001-0.008-0.001-0.013c0.007-3.76,3.067-6.816,6.828-6.816c3.755,0,6.81,3.046,6.827,6.797c0,0.011-0.003,0.021-0.003,0.032   s0.003,0.021,0.003,0.032C76.368,53.783,73.313,56.829,69.559,56.829z"></path><path d="M89.757,80.666H57.064c-1.153-5.322-5.894-9.324-11.556-9.324s-10.403,4.002-11.556,9.324H10.243   c-1.381,0-2.5,1.119-2.5,2.5s1.119,2.5,2.5,2.5h23.706C35.098,90.993,39.842,95,45.508,95s10.41-4.007,11.559-9.334h32.69   c1.381,0,2.5-1.119,2.5-2.5S91.138,80.666,89.757,80.666z M45.508,90c-3.766,0-6.829-3.063-6.829-6.829s3.063-6.829,6.829-6.829   s6.829,3.063,6.829,6.829S49.273,90,45.508,90z"></path></g></svg>