<svg  fill="#000000" xmlns="http://www.w3.org/2000/svg" xmlns:xlink="http://www.w3.org/1999/xlink" version="1.1" x="0px" y="0px" viewBox="0 0 100 100" style="enable-background:new 0 0 100 100;" xml:space="preserve"><path d="M75.092,61.925c0-3.239-2.635-5.874-5.873-5.874h-0.014V35.613c0-7.747-4.706-14.584-11.824-17.391v-6.34  C57.381,8.087,54.294,5,50.5,5c-3.795,0-6.882,3.087-6.882,6.881v6.329c-6.994,2.747-11.828,9.531-11.828,17.402v20.439h-0.014  c-3.238,0-5.873,2.635-5.873,5.874s2.635,5.874,5.873,5.874h11.353v1.091c0,4.063,3.306,7.369,7.369,7.369  c4.063,0,7.368-3.306,7.368-7.369v-1.091h11.353C72.457,67.799,75.092,65.164,75.092,61.925z M54.866,68.89  c0,2.409-1.96,4.369-4.368,4.369c-2.409,0-4.369-1.96-4.369-4.369v-1.091h8.737V68.89z M69.219,64.799H56.366H44.629H31.776  c-1.584,0-2.873-1.289-2.873-2.874s1.289-2.874,2.873-2.874H39c0.828,0,1.5-0.671,1.5-1.5s-0.672-1.5-1.5-1.5h-4.21V35.613  c0-8.066,6.041-14.782,14.051-15.621c0.824-0.086,1.422-0.824,1.336-1.648c-0.087-0.825-0.84-1.427-1.648-1.335  c-0.649,0.068-1.284,0.174-1.91,0.306v-5.432C46.618,9.741,48.359,8,50.5,8c2.14,0,3.881,1.741,3.881,3.881v6.786  c-0.014,0.034-0.032,0.065-0.044,0.101c-0.251,0.779,0.171,1.61,0.941,1.874c0.015,0.007,0.031,0.013,0.046,0.019  c6.509,2.099,10.881,8.105,10.881,14.951v20.439H47.496c-0.828,0-1.5,0.671-1.5,1.5s0.672,1.5,1.5,1.5h21.723  c1.584,0,2.873,1.289,2.873,2.874S70.803,64.799,69.219,64.799z"></path><path d="M50,84.028c-0.828,0-1.5,0.671-1.5,1.5V93.5c0,0.829,0.672,1.5,1.5,1.5s1.5-0.671,1.5-1.5v-7.972  C51.5,84.7,50.828,84.028,50,84.028z"></path><path d="M63.164,82.02c-0.323-0.763-1.207-1.121-1.966-0.795c-0.763,0.323-1.119,1.204-0.796,1.966l2.487,5.869  c0.242,0.572,0.797,0.915,1.382,0.915c0.195,0,0.394-0.039,0.584-0.12c0.763-0.323,1.119-1.204,0.796-1.966L63.164,82.02z"></path><path d="M73.865,73.801c-0.559-0.613-1.506-0.654-2.119-0.098c-0.612,0.558-0.656,1.507-0.098,2.119l6.251,6.855  c0.296,0.325,0.702,0.489,1.108,0.489c0.361,0,0.723-0.129,1.011-0.392c0.612-0.558,0.656-1.507,0.098-2.119L73.865,73.801z"></path><path d="M26.135,73.801l-6.251,6.855c-0.559,0.612-0.515,1.561,0.098,2.119c0.288,0.262,0.649,0.392,1.011,0.392  c0.406,0,0.813-0.165,1.108-0.489l6.251-6.855c0.559-0.612,0.515-1.561-0.098-2.119C27.642,73.146,26.693,73.188,26.135,73.801z"></path><path d="M38.802,81.225c-0.759-0.322-1.643,0.033-1.966,0.795l-2.487,5.869c-0.323,0.763,0.033,1.643,0.796,1.966  c0.19,0.081,0.389,0.12,0.584,0.12c0.584,0,1.14-0.343,1.382-0.915l2.487-5.869C39.921,82.428,39.564,81.548,38.802,81.225z"></path><path d="M59.767,51.909c0.828,0,1.5-0.671,1.5-1.5v-6.633c0-0.829-0.672-1.5-1.5-1.5s-1.5,0.671-1.5,1.5v6.633  C58.267,51.237,58.938,51.909,59.767,51.909z"></path><path d="M59.767,38.898c0.828,0,1.5-0.671,1.5-1.5v-3.146c0-0.829-0.672-1.5-1.5-1.5s-1.5,0.671-1.5,1.5v3.146  C58.267,38.227,58.938,38.898,59.767,38.898z"></path><circle cx="50.498" cy="12.023" r="2.198"></circle></svg>