<svg fill="#000000" xmlns="http://www.w3.org/2000/svg" data-name="Layer 1" viewBox="0 0 100 100" x="0px" y="0px"><title>Artboard 4</title><path d="M11.86,93H88.14A10.55,10.55,0,0,0,98.68,82.43V17.22A10.19,10.19,0,0,0,88.5,7H82.69a2.5,2.5,0,0,0-2.5,2.5V18.2H19.81V9.54A2.5,2.5,0,0,0,17.31,7H11.5A10.19,10.19,0,0,0,1.32,17.22V82.43A10.55,10.55,0,0,0,11.86,93ZM85.19,12H88.5a5.18,5.18,0,0,1,5.18,5.18V73.45a10.54,10.54,0,0,0-5.54-1.56h-3ZM6.32,17.22A5.18,5.18,0,0,1,11.5,12h3.31V71.89h-3a10.54,10.54,0,0,0-5.54,1.56Zm0,64.62a2.43,2.43,0,0,0,.07-.32,5.51,5.51,0,0,1,5.46-4.63h5.45a2.5,2.5,0,0,0,2.5-2.5V23.2H80.19V74.39a2.5,2.5,0,0,0,2.5,2.5h5.45a5.51,5.51,0,0,1,5.46,4.63,2.43,2.43,0,0,0,.07.32v.59A5.54,5.54,0,0,1,88.14,88H11.86a5.54,5.54,0,0,1-5.54-5.54Z"></path><path d="M29.7,69.16H41a2.5,2.5,0,0,0,2.5-2.5V49.72H50.7a2.5,2.5,0,0,0,2.5-2.5V35.89a2.5,2.5,0,0,0-2.5-2.5h-21a2.5,2.5,0,0,0-2.5,2.5V66.66A2.5,2.5,0,0,0,29.7,69.16Zm2.5-30.76h16v6.33H41a2.5,2.5,0,0,0-2.5,2.5V64.16H32.2Z"></path><path d="M39.26,74.72A2.5,2.5,0,0,0,41,79a2.74,2.74,0,0,0,.49,0A2.57,2.57,0,0,0,42,78.8a3.56,3.56,0,0,0,.43-.23,2.88,2.88,0,0,0,.38-.31,2.51,2.51,0,0,0,0-3.54A2.6,2.6,0,0,0,39.26,74.72Z"></path><circle cx="60.54" cy="76.49" r="2.5"></circle><circle cx="50.79" cy="76.49" r="2.5"></circle><circle cx="70.3" cy="66.73" r="2.5"></circle><path d="M70.3,59.48A2.5,2.5,0,1,0,67.8,57,2.5,2.5,0,0,0,70.3,59.48Z"></path><circle cx="60.54" cy="47.22" r="2.5"></circle><path d="M70.3,49.72a2.5,2.5,0,1,0-2.5-2.5A2.5,2.5,0,0,0,70.3,49.72Z"></path><path d="M70.3,79a2.5,2.5,0,1,0-2.5-2.5A2.5,2.5,0,0,0,70.3,79Z"></path></svg>