<svg height='100px' width='100px'  fill="#000000" xmlns="http://www.w3.org/2000/svg" xmlns:xlink="http://www.w3.org/1999/xlink" version="1.1" x="0px" y="0px" viewBox="0 0 100 100" style="enable-background:new 0 0 100 100;" xml:space="preserve"><g><path d="M12.75,51.164c0,0.132,0.014,0.263,0.039,0.393c0.011,0.058,0.033,0.111,0.049,0.167c0.02,0.069,0.036,0.139,0.064,0.206   c0.027,0.064,0.063,0.122,0.096,0.183c0.029,0.054,0.053,0.11,0.088,0.162c0.066,0.098,0.142,0.189,0.224,0.274   c0.009,0.01,0.015,0.021,0.025,0.03l18.613,18.623c0.007,0.007,0.015,0.012,0.023,0.018c0.087,0.085,0.181,0.162,0.282,0.23   c0.053,0.035,0.109,0.06,0.165,0.089c0.06,0.032,0.117,0.069,0.18,0.095c0.068,0.028,0.138,0.044,0.208,0.065   c0.055,0.016,0.108,0.037,0.165,0.049c0.129,0.026,0.261,0.04,0.392,0.04h17.959c0.862,1.464,1.958,2.773,3.247,3.866V93   c0,0.75,0.419,1.437,1.086,1.779c0.667,0.343,1.47,0.283,2.079-0.154l6.533-4.683l6.542,4.683C71.155,94.874,71.563,95,71.973,95   c0.313,0,0.626-0.073,0.914-0.221c0.667-0.343,1.086-1.029,1.086-1.779V75.649c1.287-1.092,2.381-2.399,3.242-3.861h3.626   c3.534,0,6.409-2.875,6.409-6.408V11.409C87.25,7.875,84.375,5,80.841,5H19.159c-3.534,0-6.409,2.875-6.409,6.409V51.164z    M31.364,64.958L19.577,53.166h9.378c1.328,0,2.409,1.081,2.409,2.409V64.958z M69.973,89.108l-4.542-3.252   c-0.696-0.499-1.633-0.499-2.329,0l-4.532,3.249V78.092c1.759,0.724,3.682,1.13,5.699,1.13c2.019,0,3.944-0.406,5.705-1.132V89.108   z M19.159,9h61.682c1.328,0,2.409,1.081,2.409,2.409V65.38c0,1.328-1.081,2.408-2.409,2.408h-1.997   c0.285-1.154,0.453-2.354,0.453-3.594c0-8.287-6.742-15.028-15.028-15.028c-2.274,0-4.46,0.496-6.498,1.474   c-0.996,0.479-1.416,1.673-0.938,2.669c0.478,0.996,1.671,1.414,2.669,0.938c1.492-0.717,3.096-1.08,4.766-1.08   c6.081,0,11.028,4.947,11.028,11.028S70.35,75.222,64.269,75.222S53.24,70.275,53.24,64.194c0-2.014,0.547-3.984,1.583-5.698   c0.572-0.945,0.269-2.175-0.677-2.746c-0.945-0.573-2.174-0.269-2.746,0.677c-1.414,2.337-2.161,5.023-2.161,7.767   c0,1.241,0.168,2.44,0.453,3.594H35.364V55.574c0-3.534-2.875-6.409-6.409-6.409H16.75V11.409C16.75,10.081,17.831,9,19.159,9z"></path><path d="M26.319,31.291h47.361c1.104,0,2-0.896,2-2s-0.896-2-2-2H26.319c-1.104,0-2,0.896-2,2S25.215,31.291,26.319,31.291z"></path><path d="M26.319,19.152h32.639c1.104,0,2-0.896,2-2s-0.896-2-2-2H26.319c-1.104,0-2,0.896-2,2S25.215,19.152,26.319,19.152z"></path><path d="M66.334,19.152h7.346c1.104,0,2-0.896,2-2s-0.896-2-2-2h-7.346c-1.104,0-2,0.896-2,2S65.23,19.152,66.334,19.152z"></path><path d="M26.319,43.429h6.546h0.583c1.104,0,2-0.896,2-2s-0.896-2-2-2h-0.583h-6.546c-1.104,0-2,0.896-2,2   S25.215,43.429,26.319,43.429z"></path><path d="M51.686,39.429H41c-1.104,0-2,0.896-2,2s0.896,2,2,2h10.686c1.104,0,2-0.896,2-2S52.791,39.429,51.686,39.429z"></path></g></svg>