<svg height='100px' width='100px'  fill="#000000" xmlns="http://www.w3.org/2000/svg" xmlns:xlink="http://www.w3.org/1999/xlink" version="1.1" x="0px" y="0px" viewBox="0 0 100 100" style="enable-background:new 0 0 100 100;" xml:space="preserve"><path d="M89.243,57.469c-0.021,0.008-2.121,0.762-4.158,1.266c-0.099,0.026-0.198,0.052-0.298,0.076  c0.728-2.874,1.095-5.826,1.095-8.814c0-2.665-0.297-5.329-0.885-7.932c0.059-0.111,0.12-0.227,0.182-0.347  c0.624-1.138,1.28-2.688,1.936-4.569c0.656-1.757,1.025-3.496,1.321-4.893l0.348-1.832l0.099-0.757  c0.158-1.315-0.215-2.816-1.028-4.127l-0.172-0.276c-0.146-0.243-0.364-0.585-0.647-0.957l-1.721-2.306  c-0.498-0.688-1.057-1.297-1.506-1.786c-0.179-0.194-0.348-0.377-0.537-0.595l-0.919-1c-0.863-0.903-2-1.421-3.121-1.421  c-1.611,0-2.904,1.072-3.142,2.594c-0.003,0.021-0.351,2.119-0.988,4.172c-0.029,0.101-0.059,0.2-0.088,0.299  c-4.062-3.96-8.978-6.89-14.409-8.57c-0.071-0.11-0.147-0.228-0.228-0.352c-0.355-0.544-0.788-1.181-1.298-1.89  c-0.524-0.704-1.116-1.388-1.696-2.057c-0.587-0.669-1.205-1.34-1.882-2.037c-0.62-0.602-1.229-1.14-1.772-1.615  c-1.036-0.899-1.795-1.5-1.796-1.5C50.969,5.43,49.639,5,48.085,5c-0.106,0-0.213,0.002-0.354,0.008l-1.253,0.07  c-0.854,0.019-1.839,0.167-2.883,0.325l-0.2,0.03c-2.227,0.273-4.354,0.859-4.405,0.874c-1.641,0.42-2.855,1.541-3.171,2.925  c-0.258,1.134,0.13,2.266,1.026,3.02c0.017,0.015,1.718,1.469,3.188,3.011c0.057,0.057,0.112,0.114,0.168,0.171  c-5.446,1.532-10.444,4.333-14.635,8.218c-0.138,0.006-0.287,0.013-0.448,0.021c-1.207,0.092-3.023,0.254-4.904,0.615  c-1.144,0.248-3.309,0.75-4.986,1.335c-1.325,0.478-2.231,0.854-2.231,0.854c-1.374,0.57-2.521,1.685-3.127,3.013l-0.784,1.622  c-0.328,0.683-0.735,1.533-1.042,2.431l-1.018,2.813c-0.259,0.809-0.393,1.375-0.392,1.376c-0.367,1.39-0.138,2.801,0.612,3.775  c0.831,1.078,2.285,1.476,3.51,1.024c0.021-0.008,2.121-0.762,4.158-1.266c0.074-0.02,0.149-0.039,0.224-0.058  c-0.723,2.866-1.088,5.81-1.088,8.788c0,2.701,0.305,5.399,0.906,8.029c-0.044,0.084-0.088,0.169-0.134,0.257  c-0.624,1.138-1.28,2.688-1.936,4.569c-0.656,1.757-1.025,3.496-1.321,4.893l-0.348,1.832l-0.099,0.757  c-0.158,1.316,0.215,2.817,1.024,4.119l0.176,0.284c0.146,0.244,0.365,0.586,0.647,0.957l1.721,2.306  c0.498,0.688,1.057,1.297,1.506,1.786c0.179,0.194,0.348,0.377,0.537,0.595l0.919,1c0.863,0.903,2,1.421,3.121,1.421  c1.611,0,2.904-1.072,3.142-2.594c0.003-0.021,0.351-2.119,0.988-4.172c0.025-0.085,0.05-0.169,0.075-0.254  c4.072,3.953,8.996,6.873,14.434,8.542c0.068,0.106,0.141,0.219,0.218,0.338c0.355,0.542,0.787,1.179,1.297,1.887  c0.524,0.704,1.116,1.388,1.696,2.057c0.587,0.669,1.205,1.34,1.882,2.037c0.62,0.602,1.229,1.14,1.771,1.615  c1.035,0.899,1.795,1.5,1.797,1.5C49.031,94.57,50.361,95,51.916,95c0.106,0,0.213-0.002,0.357-0.008l1.251-0.07  c0.846-0.02,1.821-0.166,2.854-0.321l0.226-0.034c2.227-0.273,4.354-0.859,4.405-0.874c1.641-0.42,2.855-1.541,3.171-2.925  c0.258-1.134-0.13-2.266-1.026-3.02c-0.017-0.015-1.718-1.469-3.188-3.011c-0.063-0.063-0.125-0.127-0.188-0.191  c5.423-1.534,10.4-4.326,14.576-8.194c0.162-0.006,0.337-0.014,0.528-0.024c1.207-0.092,3.022-0.254,4.903-0.615  c1.145-0.248,3.312-0.75,4.985-1.335c1.326-0.478,2.232-0.854,2.232-0.854c1.374-0.57,2.521-1.684,3.129-3.015l0.782-1.62  c0.328-0.683,0.735-1.533,1.042-2.431l1.018-2.813c0.26-0.81,0.393-1.376,0.393-1.377c0.367-1.39,0.138-2.801-0.612-3.775  C91.923,57.415,90.47,57.019,89.243,57.469z M89.188,62.354l-1.006,2.775c-0.243,0.709-0.58,1.411-0.876,2.031l-0.794,1.645  c-0.246,0.538-0.716,0.888-1.043,1.023c-0.021,0.009-0.85,0.352-2.037,0.779c-1.077,0.376-2.673,0.801-4.448,1.186  c-1.634,0.313-3.297,0.462-4.361,0.543c-0.439,0.023-0.799,0.03-1.102,0.033l-0.799,0.007l-0.574,0.556  c-4.545,4.396-10.218,7.318-16.407,8.449l-3.264,0.597l2.051,2.607c0.605,0.77,1.547,1.909,2.57,2.94  c0.87,0.913,1.805,1.788,2.486,2.405c-0.665,0.166-2.077,0.495-3.518,0.672l-0.281,0.043c-0.865,0.13-1.76,0.264-2.416,0.28  L51.916,91c-0.673,0-1.094-0.154-1.319-0.343c-0.017-0.014-0.726-0.573-1.695-1.415c-0.491-0.43-1.048-0.921-1.572-1.428  c-0.57-0.588-1.151-1.217-1.695-1.838c-0.548-0.634-1.067-1.231-1.483-1.791c-0.454-0.631-0.852-1.217-1.177-1.713  c-0.234-0.358-0.418-0.651-0.576-0.906l-0.409-0.66l-0.747-0.211c-6.065-1.72-11.446-5.178-15.56-9.999l-2.184-2.56l-1.205,3.141  c-0.333,0.867-0.817,2.202-1.226,3.605c-0.384,1.236-0.672,2.479-0.857,3.375l-0.495-0.538c-0.172-0.199-0.369-0.414-0.578-0.642  c-0.418-0.455-0.85-0.925-1.228-1.447l-1.75-2.345c-0.186-0.243-0.322-0.458-0.429-0.636l-0.192-0.309  c-0.392-0.632-0.488-1.221-0.452-1.52l0.39-2.248c0.269-1.268,0.603-2.846,1.17-4.365c0.589-1.688,1.17-3.072,1.703-4.045  c0.185-0.356,0.341-0.647,0.481-0.902l0.376-0.688l-0.191-0.761c-0.642-2.552-0.968-5.182-0.968-7.816  c0-3.659,0.62-7.257,1.842-10.695l1.116-3.137l-3.938,0.585c-0.81,0.139-2.034,0.348-3.145,0.641  c-1.226,0.303-2.452,0.683-3.321,0.968c0.05-0.186,0.12-0.434,0.208-0.711l1.006-2.775c0.243-0.709,0.58-1.411,0.876-2.031  l0.795-1.646c0.245-0.537,0.715-0.887,1.042-1.022c0.02-0.009,0.85-0.352,2.036-0.778c1.08-0.377,2.676-0.802,4.449-1.187  c1.634-0.313,3.297-0.462,4.362-0.543c0.406-0.021,0.74-0.028,1.032-0.032l0.795-0.01l0.571-0.554  c4.56-4.413,10.254-7.341,16.467-8.466l3.271-0.592l-2.056-2.612c-0.601-0.765-1.537-1.896-2.557-2.924  c-0.87-0.913-1.805-1.788-2.486-2.405c0.666-0.166,2.077-0.495,3.52-0.673l0.257-0.038c0.873-0.132,1.776-0.269,2.441-0.284  L48.085,9c0.672,0,1.093,0.154,1.318,0.343c0.017,0.013,0.726,0.573,1.695,1.415c0.491,0.43,1.048,0.921,1.572,1.428  c0.57,0.588,1.151,1.217,1.695,1.838c0.548,0.634,1.067,1.231,1.483,1.791c0.454,0.63,0.851,1.214,1.178,1.715  c0.238,0.364,0.425,0.661,0.585,0.92l0.407,0.656l0.743,0.213c6.06,1.733,11.431,5.202,15.533,10.032l2.18,2.565l1.211-3.141  c0.277-0.719,0.808-2.153,1.246-3.658c0.384-1.236,0.672-2.479,0.857-3.375l0.495,0.538c0.172,0.199,0.369,0.414,0.578,0.642  c0.418,0.455,0.85,0.925,1.228,1.447l1.749,2.343c0.185,0.244,0.322,0.459,0.43,0.638l0.191,0.308  c0.393,0.632,0.488,1.222,0.452,1.521l-0.39,2.248c-0.269,1.268-0.603,2.846-1.17,4.365c-0.589,1.688-1.17,3.072-1.702,4.044  c-0.207,0.398-0.379,0.717-0.528,0.988l-0.375,0.686l0.188,0.759c0.629,2.528,0.948,5.128,0.948,7.729  c0,3.666-0.622,7.271-1.848,10.713l-1.119,3.143l4.015-0.601c0.81-0.139,2.034-0.348,3.145-0.641  c1.226-0.304,2.452-0.683,3.322-0.968C89.347,61.827,89.276,62.075,89.188,62.354z"></path><path d="M50,39.747c-5.653,0-10.253,4.6-10.253,10.253S44.347,60.253,50,60.253S60.253,55.653,60.253,50S55.653,39.747,50,39.747z   M50,56.253c-3.448,0-6.253-2.805-6.253-6.253s2.805-6.253,6.253-6.253s6.253,2.805,6.253,6.253S53.448,56.253,50,56.253z"></path></svg>