<svg fill="#000000" xmlns="http://www.w3.org/2000/svg" xmlns:xlink="http://www.w3.org/1999/xlink" version="1.1" x="0px" y="0px" viewBox="0 0 100 100" style="enable-background:new 0 0 100 100;" xml:space="preserve"><g><g><path d="M88.45,83.28h-76.9c-2.92,0-5.3-2.38-5.3-5.3V22.02c0-2.92,2.38-5.3,5.3-5.3h76.9c2.92,0,5.3,2.38,5.3,5.3v55.96    C93.75,80.9,91.37,83.28,88.45,83.28z M11.55,21.72c-0.17,0-0.3,0.13-0.3,0.3v55.96c0,0.17,0.13,0.3,0.3,0.3h76.9    c0.17,0,0.3-0.13,0.3-0.3V22.02c0-0.17-0.13-0.3-0.3-0.3H11.55z"></path></g></g><g><g><path d="M22.58,53.03c-0.38,0-0.77-0.15-1.06-0.44c-0.59-0.59-0.59-1.54,0-2.12l8.19-8.19l-8.51-8.51c-0.59-0.59-0.59-1.54,0-2.12    c0.59-0.59,1.54-0.59,2.12,0l9.57,9.57c0.59,0.59,0.59,1.54,0,2.12l-9.25,9.25C23.35,52.88,22.97,53.03,22.58,53.03z"></path></g><g><path d="M55.44,53.03H37.95c-0.83,0-1.5-0.67-1.5-1.5c0-0.83,0.67-1.5,1.5-1.5h17.49c0.83,0,1.5,0.67,1.5,1.5    C56.94,52.36,56.27,53.03,55.44,53.03z"></path></g></g></svg>
