<svg  fill="#000000" xmlns="http://www.w3.org/2000/svg" xmlns:xlink="http://www.w3.org/1999/xlink" version="1.1" x="0px" y="0px" viewBox="0 0 1024 1024" style="enable-background:new 0 0 1024 1024;" xml:space="preserve"><g><rect x="206.1" y="563.2" width="165.6" height="40"></rect><rect x="268.8" y="500.4" width="40" height="165.6"></rect><path d="M741.3,553.7c-16.9,0-30.6-13.7-30.6-30.6c0-16.9,13.7-30.6,30.6-30.6s30.6,13.7,30.6,30.6   C771.9,540,758.2,553.7,741.3,553.7z M741.3,513.7c-5.2,0-9.4,4.2-9.4,9.4s4.2,9.4,9.4,9.4s9.4-4.2,9.4-9.4   S746.5,513.7,741.3,513.7z"></path><path d="M741.3,673.9c-16.9,0-30.6-13.7-30.6-30.6s13.7-30.6,30.6-30.6s30.6,13.7,30.6,30.6S758.2,673.9,741.3,673.9z M741.3,633.9   c-5.2,0-9.4,4.2-9.4,9.4s4.2,9.4,9.4,9.4s9.4-4.2,9.4-9.4S746.5,633.9,741.3,633.9z"></path><path d="M681.2,613.8c-16.9,0-30.6-13.7-30.6-30.6s13.7-30.6,30.6-30.6s30.6,13.7,30.6,30.6S698.1,613.8,681.2,613.8z M681.2,573.8   c-5.2,0-9.4,4.2-9.4,9.4s4.2,9.4,9.4,9.4c5.2,0,9.4-4.2,9.4-9.4S686.4,573.8,681.2,573.8z"></path><path d="M801.4,613.8c-16.9,0-30.6-13.7-30.6-30.6s13.7-30.6,30.6-30.6s30.6,13.7,30.6,30.6S818.3,613.8,801.4,613.8z M801.4,573.8   c-5.2,0-9.4,4.2-9.4,9.4s4.2,9.4,9.4,9.4s9.4-4.2,9.4-9.4S806.5,573.8,801.4,573.8z"></path><path d="M851.8,878h-40.5c-22.5,0-45-5.2-65.2-15.1c-20.2-9.9-38.1-24.5-51.9-42.3l-68.4-88.4c-4.5-5.8-11.5-9.2-18.7-9.2H416.9   c-7.4,0-14.2,3.3-18.7,9.2l-68.4,88.4c-13.7,17.8-31.7,32.4-51.9,42.3c-20.2,9.9-42.7,15.1-65.2,15.1h-40.5   c-25.7,0-50.3-11-67.4-30.1s-25.4-44.8-22.6-70.3l29-263.6c8.2-74.7,71-131,146.1-131h161.1c14.6,0,28.4,7.1,36.9,19l14.8,20.8   c1,1.4,2.6,2.2,4.4,2.2h74.9c1.7,0,3.4-0.8,4.4-2.2l14.8-20.7c8.5-11.9,22.3-19,36.9-19h45.1v40h-45.1c-1.7,0-3.4,0.8-4.4,2.2   L586.4,446c-8.5,11.9-22.3,19-36.9,19h-74.9c-14.6,0-28.4-7.1-36.9-19l-14.8-20.7c-1-1.4-2.6-2.2-4.4-2.2H257.3   c-54.7,0-100.4,41-106.4,95.3L122,782c-1.6,14.5,2.9,28.4,12.6,39.2c9.7,10.8,23.1,16.8,37.6,16.8h40.5c33.2,0,65.1-15.7,85.4-41.9   l68.5-88.4c12.2-15.7,30.5-24.7,50.4-24.7h190.2c19.6,0,38.4,9.2,50.4,24.7l68.5,88.4c20.3,26.2,52.2,41.9,85.4,41.9h40.5   c14.6,0,27.9-6,37.6-16.8c9.7-10.8,14.2-24.8,12.6-39.2l-29-263.6c-6-54.4-51.7-95.3-106.4-95.3h-76.1v-40h76.1   c75.1,0,137.9,56.3,146.1,131l29,263.6c2.8,25.5-5.4,51.2-22.6,70.3C902.1,867,877.5,878,851.8,878z"></path><path d="M532,445h-40v-85.9c0-46.4,37.7-84.1,84.1-84.1h130.2c24.3,0,44.1-19.8,44.1-44.1V146h40v84.9c0,46.4-37.7,84.1-84.1,84.1   H576.1c-24.3,0-44.1,19.8-44.1,44.1V445z"></path><rect x="443.5" y="563.2" width="50" height="40"></rect><rect x="530.5" y="563.2" width="50" height="40"></rect></g></svg>