<svg height='100px' width='100px'  fill="#000000" xmlns="http://www.w3.org/2000/svg" xmlns:xlink="http://www.w3.org/1999/xlink" version="1.1" x="0px" y="0px" viewBox="0 0 100 100" style="enable-background:new 0 0 100 100;" xml:space="preserve"><g><path d="M13.836,45.813c0.013,0.791,0.026,1.581,0.028,2.368c0.019,7.346,0.012,14.69,0.005,22.035   c-0.004,3.795-0.007,7.59-0.007,11.385C13.862,88.989,19.873,95,27.262,95H50h22.738c7.389,0,13.399-6.011,13.399-13.399   c0-3.795-0.003-7.59-0.007-11.385c-0.007-7.345-0.014-14.689,0.005-22.035c0.002-0.787,0.015-1.577,0.028-2.368   c0.079-4.879,0.16-9.924-2.192-14.698c-1.543-3.133-3.875-5.638-6.132-8.06c-0.654-0.701-1.307-1.402-1.938-2.118   C72.796,17.422,71.374,13.95,71.087,9h1.08c1.104,0,2-0.896,2-2s-0.896-2-2-2H27.833c-1.104,0-2,0.896-2,2s0.896,2,2,2h1.08   c-0.287,4.95-1.71,8.422-4.815,11.937c-0.631,0.716-1.285,1.417-1.938,2.118c-2.256,2.422-4.589,4.927-6.132,8.06   C13.676,35.889,13.758,40.934,13.836,45.813z M19.616,32.882c1.283-2.604,3.317-4.789,5.471-7.101   c0.678-0.728,1.355-1.455,2.01-2.196c3.766-4.264,5.515-8.598,5.822-14.585h34.162c0.307,5.987,2.056,10.321,5.822,14.585   c0.654,0.741,1.332,1.469,2.01,2.196c2.153,2.312,4.188,4.496,5.471,7.101c1.925,3.908,1.854,8.26,1.78,12.866   c-0.013,0.809-0.026,1.617-0.028,2.423c-0.019,7.35-0.012,14.699-0.005,22.049c0.004,3.794,0.007,7.587,0.007,11.381   c0,5.183-4.217,9.399-9.399,9.399H50H27.262c-5.183,0-9.399-4.217-9.399-9.399c0-3.794,0.003-7.587,0.007-11.381   c0.007-7.35,0.014-14.699-0.005-22.049c-0.002-0.806-0.015-1.614-0.028-2.423C17.762,41.142,17.691,36.79,19.616,32.882z"></path><path d="M28.695,70.455L49,82.179c0.024,0.014,0.051,0.018,0.076,0.031c0.106,0.055,0.216,0.101,0.331,0.137   c0.042,0.013,0.082,0.028,0.124,0.039c0.151,0.036,0.306,0.061,0.468,0.061s0.318-0.025,0.468-0.061   c0.042-0.01,0.083-0.026,0.124-0.039c0.116-0.036,0.226-0.081,0.331-0.137c0.025-0.013,0.052-0.017,0.076-0.031l20.305-11.724   c0.619-0.357,1-1.018,1-1.732V45.277c0-0.027-0.009-0.052-0.011-0.079c-0.005-0.12-0.021-0.239-0.047-0.358   c-0.01-0.042-0.016-0.085-0.029-0.126c-0.043-0.147-0.099-0.292-0.179-0.431c-0.002-0.003-0.004-0.007-0.006-0.01   c-0.08-0.138-0.178-0.259-0.283-0.37c-0.03-0.031-0.063-0.058-0.095-0.088c-0.09-0.083-0.185-0.156-0.287-0.221   c-0.023-0.014-0.04-0.035-0.063-0.049L51,31.821c-0.619-0.357-1.381-0.357-2,0L28.695,43.545c-0.023,0.013-0.04,0.034-0.062,0.048   c-0.103,0.065-0.199,0.139-0.29,0.223c-0.031,0.029-0.063,0.055-0.092,0.085c-0.108,0.113-0.207,0.236-0.289,0.377   c-0.081,0.141-0.138,0.288-0.182,0.438c-0.012,0.04-0.018,0.081-0.027,0.121c-0.027,0.121-0.044,0.241-0.048,0.363   c-0.001,0.026-0.01,0.051-0.01,0.078v23.445C27.695,69.438,28.077,70.098,28.695,70.455z M50,35.863l16.305,9.414L50,54.69   l-8.506-4.911c-0.956-0.553-2.18-0.225-2.732,0.732s-0.225,2.18,0.732,2.732L48,58.155v12.012c0,1.104,0.896,2,2,2s2-0.896,2-2   V58.155l16.305-9.413v18.827L52,76.982V75.75c0-1.104-0.896-2-2-2s-2,0.896-2,2v1.232l-16.305-9.414V48.742l2.799,1.616   c0.315,0.182,0.659,0.268,0.998,0.268c0.691,0,1.364-0.358,1.734-1c0.552-0.957,0.225-2.18-0.732-2.732l-2.799-1.616L50,35.863z"></path></g></svg>