<svg height='100px' width='100px'  fill="#000000" xmlns="http://www.w3.org/2000/svg" viewBox="0 0 66 68" x="0px" y="0px"><path fill="#000000" fill-rule="evenodd" d="M225,178 C225,176.895431 225.895431,176 227,176 L239,176 C240.104569,176 241,176.895431 241,178 L241,227.801961 L242.961161,237.607768 C243.138039,238.492156 242.701113,239.385511 241.894427,239.788854 L233.894427,243.788854 C233.331372,244.070382 232.668628,244.070382 232.105573,243.788854 L224.105573,239.788854 C223.298887,239.385511 222.861961,238.492156 223.038839,237.607768 L225,227.801961 L225,178 Z M237.108152,228.738801 L237.108152,228.738801 L228.304969,231.673196 L227.260747,236.894305 L233,239.763932 L238.739253,236.894305 L237.108152,228.738801 Z M237,218.774852 L229,221.441518 L229,227.225148 L237,224.558482 L237,218.774852 Z M237,208.774852 L229,211.441518 L229,217.225148 L237,214.558482 L237,208.774852 Z M237,198.774852 L229,201.441518 L229,207.225148 L237,204.558482 L237,198.774852 Z M237,194.558482 L237,180 L229,180 L229,197.225148 L237,194.558482 L237,194.558482 Z M179,176 L191,176 C192.104569,176 193,176.895431 193,178 L193,238 C193,238.668706 192.665798,239.293169 192.1094,239.664101 L186.1094,243.664101 C185.437602,244.111966 184.562398,244.111966 183.8906,243.664101 L177.8906,239.664101 C177.334202,239.293169 177,238.668706 177,238 L177,178 C177,176.895431 177.895431,176 179,176 Z M189,232.774852 L181,235.441518 L181,236.929632 L185,239.596299 L189,236.929632 L189,232.774852 Z M189,222.774852 L189,222.774852 L181,225.441518 L181,231.225148 L189,228.558482 L189,222.774852 Z M189,212.774852 L189,212.774852 L181,215.441518 L181,221.225148 L189,218.558482 L189,212.774852 Z M189,202.774852 L181,205.441518 L181,211.225148 L189,208.558482 L189,202.774852 Z M189,198.558482 L189,180 L181,180 L181,201.225148 L189,198.558482 Z M210,238 L210,238 L210,242 C210,243.104569 209.104569,244 208,244 C206.895431,244 206,243.104569 206,242 L206,238 L202,238 C200.895431,238 200,237.104569 200,236 L200,178 C200,176.895431 200.895431,176 202,176 L214,176 C215.104569,176 216,176.895431 216,178 L216,236 C216,237.104569 215.104569,238 214,238 L210,238 Z M204,231.441518 L204,234 L212,234 L212,228.774852 L204,231.441518 L204,231.441518 Z M204,221.441518 L204,227.225148 L212,224.558482 L212,218.774852 L204,221.441518 L204,221.441518 Z M204,211.441518 L204,217.225148 L212,214.558482 L212,208.774852 L204,211.441518 Z M204,201.441518 L204,207.225148 L212,204.558482 L212,198.774852 L204,201.441518 L204,201.441518 Z M204,197.225148 L204,197.225148 L212,194.558482 L212,180 L204,180 L204,197.225148 Z" transform="translate(-177 -176)"></path></svg>