<svg  fill="#000000" xmlns="http://www.w3.org/2000/svg" xmlns:xlink="http://www.w3.org/1999/xlink" version="1.1" x="0px" y="0px" viewBox="0 0 100 100" style="enable-background:new 0 0 100 100;" xml:space="preserve"><g><path d="M36.539,43.833l-8.91,8.91c-0.781,0.781-0.781,2.047,0,2.828c0.39,0.391,0.902,0.586,1.414,0.586s1.024-0.195,1.414-0.586   l8.91-8.91c0.781-0.781,0.781-2.047,0-2.828C38.586,43.052,37.319,43.052,36.539,43.833z"></path><path d="M23.6,56.772l-2.649,2.649c-0.781,0.781-0.781,2.047,0,2.828c0.39,0.391,0.902,0.586,1.414,0.586s1.024-0.195,1.414-0.586   l2.649-2.649c0.781-0.781,0.781-2.047,0-2.828C25.648,55.991,24.38,55.991,23.6,56.772z"></path><path d="M71.521,16.814l-4.456,4.456l-1.042-1.042c-1.085-1.084-2.527-1.682-4.061-1.682c-1.534,0-2.976,0.598-4.061,1.682   l-4.132,4.132c-4.516,0.133-7.774,1.227-9.908,3.361L16.557,55.027c-3.625,3.625-3.623,9.528,0.007,13.158l6.862,6.863   c2.571,2.57,6.351,3.376,9.67,2.197l2.434,2.966c0.088,0.327,0.252,0.638,0.508,0.894c0.158,0.158,0.339,0.275,0.528,0.369   l9.306,11.344c0.042,0.051,0.085,0.099,0.132,0.146c1.312,1.312,3.055,2.035,4.909,2.037c0.001,0,0.003,0,0.005,0   c1.852,0,3.592-0.721,4.901-2.029l3.974-3.974c2.667-2.667,2.7-6.987,0.101-9.703l-7.916-10.568l0.446-0.446   c2.359-2.359,2.359-6.198,0-8.558l-0.253-0.253l11.72-11.72c2.274-2.274,3.379-5.796,3.379-10.767c0-0.017-0.005-0.034-0.005-0.051   l3.67-3.67c1.085-1.084,1.682-2.527,1.682-4.061c0-1.534-0.597-2.976-1.682-4.06l-1.042-1.042l4.457-4.457   c0.781-0.781,0.781-2.047,0-2.828C73.569,16.033,72.302,16.033,71.521,16.814z M61.062,44.921l-3.595,3.595l-8.288-8.288   c-0.781-0.781-2.048-0.781-2.828,0c-0.781,0.781-0.781,2.047,0,2.828l8.288,8.288l-6.682,6.682c-0.01,0.01-0.022,0.016-0.032,0.026   c-0.781,0.781-0.781,2.047,0,2.829l1.67,1.669c0.799,0.8,0.799,2.101,0,2.901l-1.67,1.67c-0.013,0.013-0.021,0.028-0.033,0.041   c-0.056,0.059-0.104,0.122-0.152,0.186c-0.032,0.042-0.065,0.083-0.092,0.128c-0.042,0.067-0.075,0.136-0.109,0.206   c-0.022,0.047-0.047,0.094-0.065,0.142c-0.028,0.072-0.047,0.146-0.066,0.221c-0.012,0.049-0.027,0.098-0.036,0.147   c-0.014,0.078-0.018,0.157-0.023,0.237c-0.003,0.048-0.008,0.094-0.007,0.142c0.001,0.082,0.012,0.162,0.023,0.244   c0.006,0.046,0.01,0.091,0.02,0.136c0.017,0.079,0.043,0.156,0.069,0.234c0.016,0.046,0.03,0.093,0.049,0.138   c0.031,0.072,0.071,0.141,0.111,0.211c0.027,0.046,0.052,0.093,0.083,0.138c0.014,0.021,0.023,0.043,0.038,0.064l9.034,12.06   c0.057,0.076,0.119,0.148,0.187,0.215c1.148,1.148,1.151,3.013,0.007,4.157l-3.974,3.974C52.438,90.695,51.702,91,50.918,91   c0,0-0.001,0-0.002,0c-0.757,0-1.472-0.286-2.021-0.805l-0.613-0.747l1.362-1.362c0.781-0.781,0.781-2.048,0-2.829   c-0.782-0.781-2.048-0.78-2.829,0l-1.082,1.083l-1.452-1.77l1.284-1.284c0.781-0.781,0.781-2.048,0-2.829   c-0.782-0.78-2.048-0.781-2.829,0l-1.004,1.005l-1.452-1.77l1.116-1.116c0.781-0.781,0.781-2.047,0-2.828   c-0.78-0.781-2.048-0.781-2.828,0l-0.836,0.836l-1.208-1.473l1.246-1.246c0.781-0.781,0.781-2.047,0-2.828   c-0.78-0.781-2.048-0.781-2.828,0l-1.833,1.833c-0.155,0.045-0.308,0.103-0.452,0.187c-2.064,1.208-4.696,0.864-6.399-0.839   l-6.862-6.862c-2.07-2.07-2.074-5.436-0.008-7.502l20.882-20.881l2.651,2.651c0.391,0.39,0.902,0.585,1.414,0.585   s1.024-0.195,1.415-0.586c0.781-0.781,0.781-2.047,0-2.829l-2.651-2.65l3.595-3.595c1.375-1.375,3.707-2.098,7.116-2.203   l9.452,9.452C63.162,41.208,62.44,43.542,61.062,44.921z M68.107,30.434L64.83,33.71l-7.376-7.376l3.276-3.277   c0.658-0.658,1.806-0.658,2.465,0l4.912,4.913c0.329,0.329,0.51,0.767,0.51,1.231C68.617,29.667,68.436,30.104,68.107,30.434z"></path><path d="M77.319,11.017L75.335,13c-0.781,0.781-0.781,2.047,0,2.828c0.39,0.391,0.902,0.586,1.414,0.586s1.024-0.195,1.414-0.586   l1.983-1.983c0.781-0.781,0.781-2.047,0-2.828C79.367,10.236,78.099,10.236,77.319,11.017z"></path><path d="M82.749,5.586l-1.524,1.525c-0.781,0.781-0.781,2.047,0,2.828c0.39,0.391,0.902,0.586,1.414,0.586s1.024-0.195,1.414-0.586   l1.526-1.526c0.78-0.781,0.78-2.048-0.001-2.829C84.796,4.805,83.53,4.804,82.749,5.586z"></path></g></svg>