<svg height='100px' width='100px'  fill="#000000" xmlns="http://www.w3.org/2000/svg" xmlns:xlink="http://www.w3.org/1999/xlink" version="1.1" x="0px" y="0px" viewBox="0 0 100 100" style="enable-background:new 0 0 100 100;" xml:space="preserve"><g><path d="M71.021,32.53c-1.513,0-3.003,0.226-4.431,0.671c-2.471,0.772-4.675,2.174-6.55,4.167   c-0.948,1.008-2.177,1.563-3.462,1.563h-4.483c1.015-11.245,10.488-20.088,21.994-20.088c1.104,0,2-0.896,2-2s-0.896-2-2-2   c-13.712,0-24.978,10.635-26.004,24.088h-4.662c-1.285,0-2.515-0.556-3.463-1.564c-1.874-1.992-4.077-3.394-6.549-4.166   c-1.427-0.445-2.918-0.671-4.43-0.671c-9.385,0-18.566,8.413-22.327,20.459C2.239,67.128,7.06,81.257,17.4,84.485   c1.427,0.445,2.917,0.671,4.429,0.671c6.474,0,13.144-4.143,17.842-11.082c2.097-3.095,5.581-4.943,9.319-4.943h2.021   c3.738,0,7.222,1.848,9.318,4.943c4.699,6.938,11.369,11.082,17.842,11.082c0,0,0,0,0,0c1.512,0,3.001-0.226,4.429-0.671   c10.34-3.229,15.16-17.357,10.746-31.496C89.586,40.943,80.405,32.53,71.021,32.53z M81.409,80.667   c-1.041,0.325-2.129,0.489-3.236,0.489c0,0-0.001,0-0.001,0c-5.145,0-10.577-3.486-14.53-9.324   c-2.841-4.196-7.563-6.701-12.63-6.701H48.99c-5.067,0-9.789,2.505-12.631,6.701c-3.954,5.839-9.386,9.324-14.53,9.324   c-1.107,0-2.196-0.164-3.237-0.489c-8.234-2.571-11.877-14.452-8.12-26.486c3.193-10.228,10.977-17.65,18.508-17.65   c1.108,0,2.198,0.164,3.238,0.489c1.807,0.564,3.431,1.604,4.827,3.087c1.687,1.796,4.011,2.825,6.377,2.825h13.155   c2.366,0,4.69-1.029,6.376-2.824c1.397-1.484,3.021-2.523,4.828-3.088c1.041-0.325,2.131-0.489,3.239-0.489   c7.531,0,15.315,7.423,18.508,17.65C93.285,66.215,89.643,78.096,81.409,80.667z"></path><path d="M80.13,47.387c-0.474,0-0.95,0.054-1.417,0.158c-3.465,0.779-5.65,4.232-4.871,7.697c0.666,2.961,3.249,5.029,6.28,5.029   c0.475,0,0.952-0.053,1.418-0.158c1.679-0.377,3.11-1.386,4.03-2.84s1.219-3.179,0.841-4.856   C85.746,49.455,83.163,47.387,80.13,47.387z M82.528,55.349c-0.406,0.642-1.037,1.086-1.778,1.253   c-1.506,0.333-3.06-0.658-3.395-2.148c-0.344-1.529,0.62-3.053,2.148-3.396c0.207-0.046,0.418-0.069,0.627-0.069   c1.315,0,2.479,0.934,2.769,2.22C83.065,53.946,82.934,54.707,82.528,55.349z"></path><path d="M64.303,47.387c-0.474,0-0.95,0.054-1.417,0.158c-3.465,0.779-5.65,4.232-4.871,7.697c0.666,2.961,3.249,5.029,6.28,5.029   c0.475,0,0.952-0.053,1.418-0.158c1.679-0.377,3.11-1.386,4.03-2.84s1.219-3.179,0.841-4.856   C69.918,49.455,67.335,47.387,64.303,47.387z M66.701,55.349c-0.406,0.642-1.037,1.086-1.778,1.253   c-1.507,0.333-3.06-0.658-3.395-2.148c-0.344-1.529,0.62-3.053,2.148-3.396c0.207-0.046,0.418-0.069,0.627-0.069   c1.315,0,2.48,0.933,2.769,2.22C67.238,53.946,67.106,54.707,66.701,55.349z"></path><path d="M33.692,47.352h-0.072v-0.072c0-3.572-2.906-6.478-6.478-6.478s-6.478,2.905-6.478,6.478v0.072h-0.072   c-3.572,0-6.478,2.905-6.478,6.478s2.906,6.479,6.478,6.479h0.072v0.071c0,3.572,2.906,6.479,6.478,6.479s6.478-2.906,6.478-6.479   v-0.071h0.072c3.572,0,6.478-2.906,6.478-6.479S37.265,47.352,33.692,47.352z M33.692,56.708h-1.872c-0.994,0-1.8,0.806-1.8,1.8   v1.871c0,1.587-1.292,2.879-2.878,2.879s-2.878-1.292-2.878-2.879v-1.871c0-0.994-0.806-1.8-1.8-1.8h-1.872   c-1.587,0-2.878-1.292-2.878-2.879s1.292-2.878,2.878-2.878h1.872c0.994,0,1.8-0.806,1.8-1.8v-1.872   c0-1.587,1.292-2.878,2.878-2.878s2.878,1.291,2.878,2.878v1.872c0,0.994,0.806,1.8,1.8,1.8h1.872c1.587,0,2.878,1.291,2.878,2.878   S35.279,56.708,33.692,56.708z"></path></g></svg>