<svg height='100px' width='100px'  fill="#000000" xmlns="http://www.w3.org/2000/svg" xmlns:xlink="http://www.w3.org/1999/xlink" version="1.1" x="0px" y="0px" viewBox="0 0 100 100" style="enable-background:new 0 0 100 100;" xml:space="preserve"><path d="M43.313,50c0,3.688,3,6.688,6.688,6.688s6.688-3,6.688-6.688s-3-6.688-6.688-6.688S43.313,46.313,43.313,50z M50,46.313  c2.033,0,3.688,1.654,3.688,3.688S52.033,53.688,50,53.688S46.313,52.033,46.313,50S47.967,46.313,50,46.313z"></path><path d="M27.619,47.257h12.128c0.608,0,1.156-0.367,1.388-0.93c0.961-2.339,2.854-4.231,5.192-5.193  c0.563-0.231,0.93-0.779,0.93-1.387V27.619c0-2.534-2.061-4.595-4.594-4.595c-0.483,0-0.964,0.077-1.429,0.229  c-8.48,2.778-15.203,9.5-17.981,17.982c-0.462,1.414-0.225,2.917,0.65,4.124C24.778,46.565,26.133,47.257,27.619,47.257z   M26.104,42.168c2.481-7.577,8.487-13.582,16.063-16.063c0.163-0.053,0.33-0.08,0.496-0.08c0.767,0,1.594,0.609,1.594,1.595v11.169  c-2.341,1.198-4.271,3.128-5.469,5.469H27.619c-0.514,0-0.983-0.24-1.287-0.659C26.027,43.178,25.944,42.656,26.104,42.168z"></path><path d="M72.381,52.743H60.253c-0.608,0-1.156,0.367-1.388,0.93c-0.961,2.339-2.854,4.231-5.192,5.193  c-0.563,0.231-0.93,0.779-0.93,1.387v12.128c0,2.534,2.061,4.595,4.594,4.595c0.483,0,0.964-0.077,1.429-0.229  c8.48-2.778,15.203-9.5,17.981-17.982c0.462-1.414,0.225-2.917-0.65-4.124C75.222,53.435,73.867,52.743,72.381,52.743z   M73.896,57.832c-2.481,7.577-8.487,13.582-16.063,16.063c-0.916,0.3-2.09-0.316-2.09-1.515V61.212  c2.341-1.198,4.271-3.128,5.469-5.469h11.169c0.514,0,0.983,0.24,1.287,0.659C73.973,56.822,74.056,57.344,73.896,57.832z"></path><path d="M41.235,76.747c0.464,0.152,0.944,0.229,1.428,0.229c2.533,0,4.594-2.061,4.594-4.595V60.253  c0-0.608-0.367-1.156-0.93-1.387c-2.339-0.961-4.231-2.854-5.192-5.193c-0.231-0.563-0.779-0.93-1.388-0.93H27.619  c-1.486,0-2.841,0.692-3.716,1.898c-0.875,1.207-1.112,2.71-0.65,4.125C26.031,67.247,32.754,73.969,41.235,76.747z M26.332,56.402  c0.304-0.419,0.773-0.659,1.287-0.659h11.169c1.198,2.341,3.128,4.271,5.469,5.469v11.169c0,1.198-1.179,1.812-2.089,1.515  c-7.576-2.482-13.582-8.487-16.063-16.063C25.944,57.344,26.027,56.822,26.332,56.402z"></path><path d="M53.673,41.134c2.339,0.961,4.231,2.854,5.192,5.193c0.231,0.563,0.779,0.93,1.388,0.93h12.128  c1.486,0,2.841-0.692,3.716-1.898c0.875-1.207,1.112-2.71,0.65-4.125c-2.778-8.481-9.501-15.203-17.982-17.981  c-0.464-0.152-0.944-0.229-1.428-0.229c-2.533,0-4.594,2.061-4.594,4.595v12.128C52.743,40.355,53.11,40.903,53.673,41.134z   M55.743,27.619c0-1.199,1.179-1.813,2.089-1.515c7.576,2.482,13.582,8.487,16.063,16.063c0.16,0.489,0.077,1.011-0.228,1.431  c-0.304,0.419-0.773,0.659-1.287,0.659H61.212c-1.198-2.341-3.128-4.271-5.469-5.469V27.619z"></path><path d="M8.094,55.954l6.107,0.472c0.182,1.02,0.404,2.025,0.661,2.99c0.258,0.959,0.567,1.941,0.963,2.832l-5.095,3.55  c-1.298,0.906-1.772,2.715-1.081,4.118c0.859,1.747,1.844,3.454,2.924,5.071c0.586,0.877,1.638,1.422,2.745,1.422  c0.476,0,0.947-0.103,1.362-0.298l5.523-2.641c1.315,1.559,2.771,3.014,4.32,4.23l-2.633,5.614  c-0.683,1.458-0.199,3.225,1.126,4.109c1.621,1.081,3.325,2.065,5.064,2.924c1.403,0.693,3.223,0.211,4.122-1.08l3.459-5.045  c1.913,0.691,3.901,1.224,5.856,1.506l0.527,6.184c0.136,1.578,1.466,2.893,3.026,2.994C48.036,94.968,49.013,95,49.978,95  c0.979,0,1.972-0.033,2.95-0.098c1.563-0.104,2.892-1.419,3.025-2.996l0.472-6.107c1.022-0.182,2.028-0.405,2.989-0.662  c0.958-0.257,1.94-0.566,2.833-0.961l3.551,5.093c0.867,1.246,2.757,1.752,4.117,1.082c1.745-0.859,3.451-1.843,5.072-2.924  c1.302-0.87,1.796-2.673,1.124-4.107l-2.643-5.523c1.56-1.317,3.016-2.773,4.231-4.32l5.613,2.632c0.436,0.205,0.92,0.313,1.4,0.313  c1.096,0,2.108-0.538,2.708-1.438c1.081-1.621,2.065-3.325,2.926-5.065c0.704-1.429,0.239-3.2-1.081-4.121l-5.044-3.459  c0.689-1.911,1.223-3.899,1.506-5.856l6.182-0.527c1.577-0.134,2.893-1.463,2.996-3.027c0.126-1.944,0.124-3.914-0.004-5.854  c-0.104-1.561-1.419-2.89-2.996-3.025l-6.107-0.472c-0.181-1.019-0.403-2.024-0.661-2.99c-0.258-0.96-0.567-1.942-0.963-2.832  l5.095-3.55c1.298-0.906,1.772-2.715,1.081-4.118c-0.859-1.748-1.844-3.454-2.924-5.071c-0.586-0.877-1.638-1.422-2.745-1.422  c-0.476,0-0.947,0.103-1.362,0.298l-5.522,2.642c-1.316-1.558-2.772-3.014-4.321-4.23l2.633-5.614  c0.683-1.458,0.199-3.224-1.126-4.108c-1.617-1.079-3.321-2.063-5.064-2.924c-1.4-0.692-3.224-0.209-4.122,1.08l-3.459,5.045  c-1.913-0.691-3.901-1.224-5.856-1.506l-0.527-6.184c-0.136-1.578-1.466-2.893-3.027-2.994c-1.938-0.127-3.911-0.126-5.854,0.003  c-1.563,0.103-2.892,1.419-3.025,2.996l-0.472,6.107c-1.022,0.182-2.028,0.405-2.989,0.662c-0.962,0.258-1.945,0.567-2.833,0.961  l-3.551-5.093c-0.868-1.248-2.757-1.752-4.118-1.082c-1.747,0.861-3.453,1.845-5.071,2.924c-1.302,0.87-1.796,2.673-1.124,4.107  l2.643,5.522c-1.561,1.318-3.017,2.774-4.231,4.321l-5.613-2.632c-0.436-0.205-0.92-0.313-1.4-0.313  c-1.096,0-2.108,0.538-2.708,1.438c-1.078,1.616-2.063,3.32-2.926,5.066c-0.704,1.429-0.239,3.2,1.081,4.121l5.044,3.459  c-0.689,1.911-1.223,3.899-1.506,5.856l-6.181,0.527c-1.577,0.134-2.894,1.463-2.997,3.027c-0.126,1.944-0.124,3.914,0.004,5.854  C5.201,54.49,6.517,55.819,8.094,55.954z M8.088,47.271c0.008-0.078,0.158-0.227,0.258-0.235l6.181-0.527  c1.31-0.111,2.387-1.101,2.619-2.404c0.332-1.845,0.821-3.669,1.454-5.422c0.45-1.248,0.014-2.643-1.064-3.395l-5.087-3.545  c-0.112-0.079-0.158-0.225-0.105-0.332c0.806-1.629,1.725-3.22,2.731-4.73c0.063-0.095,0.178-0.102,0.212-0.102  c0.044,0,0.087,0.01,0.127,0.028l5.613,2.632c1.173,0.551,2.633,0.222,3.472-0.775c1.202-1.425,2.537-2.761,3.97-3.971  c1.011-0.855,1.328-2.281,0.772-3.469l-2.635-5.617c-0.043-0.092,0.01-0.292,0.073-0.339c1.509-1.007,3.101-1.925,4.788-2.735  c0.121,0,0.241,0.066,0.274,0.113l3.551,5.093c0.737,1.059,2.169,1.509,3.395,1.065c0.896-0.324,1.796-0.608,2.676-0.844  c0.879-0.236,1.8-0.44,2.738-0.607c1.307-0.232,2.296-1.31,2.407-2.619l0.527-6.186C47.044,8.25,47.192,8.1,47.27,8.091  c1.812-0.119,3.652-0.121,5.461-0.002c0.079,0.008,0.226,0.156,0.234,0.256l0.527,6.183c0.11,1.307,1.1,2.384,2.403,2.619  c1.843,0.331,3.667,0.82,5.423,1.454c1.225,0.44,2.658-0.009,3.394-1.065l3.545-5.086c0.065-0.094,0.163-0.13,0.331-0.106  c1.628,0.805,3.22,1.723,4.729,2.73c0.1,0.066,0.133,0.216,0.074,0.339l-2.632,5.613c-0.559,1.189-0.239,2.617,0.775,3.472  c1.427,1.204,2.762,2.539,3.969,3.969c0.84,0.994,2.299,1.323,3.471,0.773l5.707-2.648c0.121,0,0.227,0.057,0.25,0.088  c1.008,1.509,1.926,3.101,2.728,4.73c0.032,0.074-0.023,0.274-0.105,0.332l-5.095,3.55c-1.077,0.751-1.515,2.147-1.063,3.395  c0.324,0.897,0.608,1.797,0.844,2.673c0.235,0.883,0.439,1.805,0.606,2.741c0.232,1.305,1.31,2.295,2.62,2.408l6.186,0.527  c0.099,0.008,0.248,0.157,0.257,0.234c0.12,1.81,0.122,3.648,0.004,5.459c-0.008,0.078-0.158,0.227-0.257,0.235l-6.182,0.527  c-1.31,0.111-2.387,1.101-2.619,2.405c-0.332,1.845-0.821,3.669-1.453,5.421c-0.451,1.247-0.015,2.643,1.063,3.395l5.087,3.545  c0.112,0.079,0.158,0.225,0.105,0.332c-0.803,1.624-1.722,3.215-2.731,4.73c-0.063,0.095-0.178,0.102-0.212,0.102  c-0.044,0-0.087-0.01-0.127-0.028l-5.613-2.632c-1.171-0.55-2.632-0.221-3.472,0.774c-1.202,1.425-2.538,2.761-3.969,3.97  c-1.013,0.855-1.331,2.283-0.773,3.47l2.635,5.617c0.043,0.092-0.01,0.292-0.073,0.339c-1.512,1.009-3.104,1.927-4.788,2.735  c-0.121,0-0.241-0.066-0.274-0.113l-3.551-5.093c-0.737-1.059-2.169-1.507-3.395-1.065c-0.899,0.326-1.8,0.61-2.676,0.844  c-0.879,0.236-1.8,0.44-2.738,0.607c-1.307,0.232-2.296,1.31-2.407,2.619l-0.527,6.186c-0.009,0.098-0.157,0.249-0.234,0.258  c-1.813,0.119-3.653,0.12-5.462,0.003c-0.079-0.009-0.225-0.157-0.233-0.257l-0.527-6.183c-0.11-1.307-1.1-2.384-2.403-2.619  c-1.843-0.331-3.667-0.82-5.423-1.454c-0.324-0.117-0.663-0.176-1.007-0.176c-0.953,0-1.846,0.464-2.387,1.242l-3.545,5.085  c-0.066,0.094-0.168,0.128-0.332,0.106c-1.624-0.802-3.215-1.721-4.729-2.73c-0.101-0.067-0.133-0.216-0.074-0.34l2.633-5.615  c0.557-1.189,0.237-2.616-0.776-3.47c-1.426-1.204-2.762-2.539-3.969-3.968c-0.839-0.995-2.298-1.324-3.471-0.774l-5.707,2.648  c-0.121,0-0.227-0.057-0.25-0.088c-1.008-1.509-1.926-3.101-2.728-4.73c-0.032-0.074,0.023-0.274,0.105-0.332l5.095-3.55  c1.077-0.752,1.515-2.147,1.063-3.394c-0.325-0.898-0.609-1.799-0.844-2.675c-0.235-0.882-0.439-1.804-0.606-2.74  c-0.232-1.305-1.31-2.295-2.62-2.408l-6.187-0.527c-0.098-0.008-0.247-0.157-0.256-0.234C7.972,50.919,7.97,49.082,8.088,47.271z"></path></svg>