<svg fill="#000000" xmlns="http://www.w3.org/2000/svg" xmlns:xlink="http://www.w3.org/1999/xlink" version="1.1" x="0px" y="0px" viewBox="0 0 100 100" style="enable-background:new 0 0 100 100;" xml:space="preserve"><path d="M87.024,69.606c0.271,0.059,0.549,0.089,0.825,0.089c0.001,0,0,0,0.001,0c1.59,0,3.016-0.959,3.633-2.442  c1.041-2.505,1.859-5.112,2.432-7.749c0.388-1.792-0.561-3.635-2.257-4.383l-6.306-2.78c0.116-1.716,0.109-3.425-0.021-5.106  l6.226-2.744c1.713-0.754,2.655-2.633,2.24-4.466c-0.303-1.344-0.664-2.665-1.073-3.924c-0.409-1.261-0.894-2.542-1.438-3.806  c-0.733-1.705-2.627-2.689-4.438-2.296l-6.649,1.439c-0.884-1.438-1.883-2.825-2.985-4.144l3.469-5.955  c0.933-1.602,0.616-3.651-0.752-4.873c-2.017-1.799-4.21-3.427-6.521-4.839c-1.583-0.967-3.768-0.653-4.992,0.717l-4.506,5.042  c-1.624-0.695-3.306-1.271-5.026-1.721l-0.7-6.908c-0.187-1.83-1.634-3.299-3.441-3.495c-2.67-0.289-5.385-0.339-8.045-0.147  c-1.921,0.139-3.454,1.618-3.648,3.516l-0.679,6.699c-1.247,0.26-2.357,0.551-3.417,0.896c-0.679,0.221-1.357,0.464-2.029,0.728  l-4.595-5.142c-1.195-1.337-3.298-1.69-4.844-0.803c-2.297,1.319-4.489,2.853-6.517,4.558c-1.474,1.24-1.845,3.339-0.884,4.989  l3.372,5.79c-1.321,1.487-2.528,3.106-3.606,4.837l-6.722-1.455c-1.804-0.392-3.689,0.589-4.433,2.289  c-1.041,2.384-1.879,4.868-2.492,7.385c-0.454,1.864,0.48,3.774,2.222,4.542l6.173,2.721c-0.203,2.102-0.221,4.198-0.053,6.26  l-6.211,2.738c-1.719,0.757-2.66,2.64-2.238,4.476c0.297,1.299,0.646,2.567,1.037,3.771c0.394,1.208,0.856,2.44,1.377,3.66  c0.729,1.711,2.626,2.701,4.441,2.306l6.635-1.436c1.076,1.766,2.322,3.451,3.723,5.033l-3.396,5.829  c-0.958,1.645-0.591,3.74,0.873,4.98c1.979,1.679,4.117,3.196,6.355,4.509c1.579,0.926,3.723,0.599,4.933-0.753l4.583-5.128  c1.89,0.767,3.817,1.368,5.761,1.793l0.675,6.665c0.192,1.901,1.726,3.381,3.647,3.519C47.795,94.962,48.863,95,49.918,95  c1.588,0,3.195-0.086,4.777-0.256c1.812-0.195,3.261-1.666,3.446-3.497l0.695-6.859c0.696-0.181,1.389-0.383,2.069-0.604  c1.06-0.345,2.129-0.761,3.291-1.284l5.539,6.198c0.628,0.703,1.66,0.871,2.48,0.406c2.823-1.606,5.483-3.534,7.905-5.73  c1.35-1.223,1.656-3.264,0.73-4.852l-3.493-6c1.128-1.375,2.149-2.829,3.054-4.346L87.024,69.606z M77.641,64.96  c-1.158,2.146-2.577,4.168-4.218,6.011c-0.575,0.646-0.67,1.589-0.234,2.336l4.174,7.168c-1.786,1.611-3.712,3.062-5.742,4.327  l-5.435-6.082c-0.597-0.668-1.567-0.858-2.371-0.463c-1.546,0.757-2.863,1.304-4.145,1.72c-1.016,0.33-2.06,0.612-3.104,0.838  C55.72,81,55.088,81.708,55,82.57l-0.832,8.208c-2.354,0.247-4.819,0.188-7.06,0.189c-0.011,0-0.021,0-0.032,0l-0.825-8.141  c-0.091-0.893-0.766-1.617-1.65-1.769c-2.584-0.446-5.157-1.244-7.648-2.373c-0.798-0.36-1.734-0.162-2.316,0.489l-5.466,6.169  c-2.041-1.198-3.99-2.581-5.797-4.027l4.139-7.106c0.449-0.772,0.332-1.749-0.287-2.393c-1.939-2.016-3.582-4.237-4.883-6.603  c-0.427-0.775-1.312-1.182-2.176-0.991L12.192,66c-0.475-1.111-0.896-2.231-1.252-3.327c-0.354-1.091-0.672-2.244-0.99-3.351  l7.543-3.325c0.81-0.357,1.288-1.203,1.178-2.081c-0.339-2.68-0.314-5.443,0.07-8.211c0.123-0.885-0.356-1.745-1.175-2.105  l-7.474-3.252c0.559-2.293,1.322-4.557,2.192-6.71l8.127,1.759c0.853,0.185,1.729-0.207,2.161-0.965  c1.353-2.377,2.966-4.536,4.794-6.416c0.626-0.644,0.746-1.625,0.295-2.401l-4.115-6.987c1.819-1.531,3.786-2.911,5.847-4.1  l5.497,6.151c0.576,0.645,1.501,0.848,2.297,0.498c0.982-0.432,1.993-0.818,3.004-1.146c1.28-0.416,2.667-0.748,4.364-1.044  c0.883-0.154,1.556-0.877,1.646-1.769l0.786-8.113c2.388-0.172,4.825-0.13,7.225,0.124l0.836,8.253  c0.088,0.861,0.719,1.568,1.563,1.752c2.411,0.526,4.748,1.328,6.945,2.384c0.804,0.386,1.765,0.194,2.357-0.47l5.409-6.107  c2.078,1.27,4.051,2.73,5.868,4.343l-4.156,7.136c-0.438,0.753-0.339,1.704,0.247,2.35c1.63,1.797,3.034,3.749,4.174,5.801  c0.427,0.769,1.302,1.17,2.171,0.983l7.984-1.777c0.496,1.152,0.937,2.316,1.308,3.459c0.371,1.143,0.699,2.343,1.024,3.494  l-7.553,3.329c-0.807,0.355-1.285,1.197-1.179,2.072c0.284,2.327,0.296,4.731,0.034,7.146c-0.094,0.866,0.384,1.694,1.182,2.045  l7.556,3.331c-0.521,2.369-1.257,4.71-2.114,6.943l-8.047-1.742C78.951,63.765,78.063,64.177,77.641,64.96z"></path><path d="M49.936,26.094c-2.503,0-4.99,0.396-7.393,1.176c-6.073,1.974-11.016,6.194-13.915,11.884  c-2.899,5.69-3.409,12.169-1.436,18.244c3.212,9.884,12.349,16.526,22.734,16.526c0.001,0,0.001,0,0.002,0  c2.503,0,4.989-0.396,7.392-1.176c12.538-4.074,19.424-17.589,15.351-30.128C69.459,32.735,60.322,26.094,49.936,26.094z   M56.084,68.943c-2.002,0.651-4.073,0.98-6.155,0.98c-0.001,0-0.001,0-0.001,0c-8.648,0-16.256-5.531-18.931-13.763  c-1.644-5.058-1.219-10.453,1.195-15.191c2.414-4.739,6.529-8.253,11.587-9.896c2.002-0.651,4.073-0.98,6.156-0.98  c8.648,0,16.256,5.531,18.931,13.763C72.259,54.297,66.524,65.551,56.084,68.943z"></path></svg>
