<svg  fill="#000000" xmlns="http://www.w3.org/2000/svg" xmlns:xlink="http://www.w3.org/1999/xlink" version="1.1" x="0px" y="0px" viewBox="0 0 100 100" style="enable-background:new 0 0 100 100;" xml:space="preserve"><g><path d="M26.635,60.17c-0.717-0.839-1.98-0.941-2.819-0.223l-6.991,5.964c-0.845,0.721-1.358,1.728-1.446,2.835   c-0.088,1.108,0.262,2.184,0.982,3.028L28.154,85.6c0.741,0.868,1.821,1.365,2.962,1.365c0.925,0,1.822-0.331,2.525-0.931   l1.936-1.651c1.812-1.545,2.912-3.703,3.101-6.076c0.188-2.373-0.56-4.677-2.104-6.488L26.635,60.17z M32.981,81.34l-1.854,1.582   L19.403,69.179c-0.049-0.058-0.039-0.176,0.018-0.225l5.469-4.666l8.641,10.127c0.852,0.998,1.264,2.268,1.16,3.576   C34.586,79.299,33.979,80.488,32.981,81.34z"></path><path d="M61.706,34.517c0.459,0,0.921-0.157,1.297-0.479l11.741-10.018c0.84-0.717,0.939-1.979,0.223-2.82   c-0.72-0.84-1.979-0.94-2.82-0.222L60.407,30.995c-0.841,0.717-0.94,1.979-0.224,2.819C60.579,34.278,61.141,34.517,61.706,34.517z   "></path><path d="M77.775,20.781c0.478,0,0.958-0.164,1.343-0.492l4.008-3.42c0.841-0.717,0.94-1.979,0.224-2.82   c-0.718-0.84-1.98-0.94-2.819-0.223l-4.002,3.415c-0.002,0.002-0.077,0.065-0.079,0.068c-0.84,0.717-0.903,1.948-0.187,2.789   C76.651,20.552,77.211,20.781,77.775,20.781z"></path><path d="M16.799,50.545c0.391,0.391,0.902,0.586,1.414,0.586s1.023-0.195,1.414-0.586l2.183-2.183   c1.699-1.699,2.047-4.226,1.083-6.287l1.937-1.937c0.743,0.405,1.568,0.642,2.438,0.642c1.37,0,2.657-0.534,3.625-1.502   l1.752-1.752l5.051,5.051L27.163,51.56c-0.514-0.188-1.054-0.311-1.615-0.311c-1.12,0-2.206,0.4-3.06,1.128L7.915,64.812   C5.938,66.499,5.7,69.48,7.388,71.459l17.972,21.063C26.702,94.097,28.661,95,30.732,95c1.677,0,3.304-0.6,4.58-1.689l4.34-3.703   c3.216-2.743,5.17-6.574,5.504-10.788c0.197-2.482-0.198-4.917-1.104-7.16l2.651,0.338c0.084,0.011,0.169,0.016,0.253,0.016   c0.531,0,1.045-0.212,1.423-0.595c0.438-0.443,0.645-1.066,0.558-1.683l-0.557-3.966l3.973,0.513   c0.617,0.081,1.239-0.133,1.678-0.577c0.307-0.31,0.492-0.71,0.551-1.133l22.044,24.479c0.023,0.026,0.047,0.051,0.072,0.076   c1.456,1.457,3.392,2.258,5.451,2.258s3.995-0.802,5.451-2.258l4.337-4.336c3.006-3.006,3.006-7.897,0-10.902   c-0.024-0.025-0.05-0.049-0.076-0.072L65.622,50.189c-0.023-0.02-0.05-0.034-0.073-0.054l-0.211-1.507l3.972,0.513   c0.615,0.083,1.239-0.133,1.678-0.577c0.438-0.443,0.646-1.066,0.559-1.684l-0.557-3.97l3.976,0.507   c0.612,0.079,1.238-0.135,1.676-0.579c0.438-0.443,0.645-1.066,0.558-1.683l-0.557-3.966l3.973,0.513   c0.614,0.081,1.239-0.133,1.678-0.577c0.438-0.443,0.646-1.066,0.559-1.684l-0.557-3.966l3.973,0.513   c0.616,0.081,1.238-0.133,1.677-0.576s0.646-1.064,0.561-1.682l-0.552-3.98l3.978,0.513c0.617,0.082,1.238-0.133,1.677-0.576   c0.438-0.443,0.646-1.065,0.561-1.682l-0.911-6.574c-0.007-0.048-0.024-0.091-0.033-0.137c-0.014-0.069-0.028-0.138-0.05-0.205   c-0.021-0.064-0.048-0.123-0.074-0.183c-0.026-0.059-0.051-0.119-0.083-0.176c-0.035-0.062-0.077-0.119-0.118-0.177   c-0.027-0.038-0.047-0.08-0.078-0.116L84.021,5.73c-0.341-0.415-0.834-0.675-1.368-0.722c-0.542-0.047-1.066,0.122-1.475,0.471   L45.989,35.491l-5.654-5.654l1.752-1.752c1.424-1.425,1.814-3.482,1.208-5.272c1.088-1.766,2.766-4.18,3.889-5.051   c1.067-0.827,5.618-3.307,8.235-4.675c0.564-0.295,0.954-0.841,1.05-1.47c0.097-0.629-0.112-1.267-0.563-1.716l-1.833-1.833   c-0.445-0.445-1.077-0.656-1.696-0.566c-0.295,0.042-7.273,1.044-10.734,2.236c-2.899,0.997-6.057,2.909-7.574,3.886   c-0.51-0.167-1.04-0.275-1.592-0.275c-1.37,0-2.657,0.534-3.625,1.502L17.657,26.044c-1.641,1.641-1.911,4.118-0.858,6.061   l-1.935,1.935c-0.731-0.344-1.526-0.543-2.357-0.543c-1.486,0-2.883,0.579-3.933,1.629L6.392,37.31   c-0.781,0.781-0.781,2.047,0,2.828L16.799,50.545z M19.462,35.099l1.684,1.683l0.692,0.692L20.312,39l-2.375-2.375L19.462,35.099z    M41.169,78.504c-0.25,3.148-1.71,6.011-4.112,8.061l-4.34,3.703c-1.239,1.057-3.262,0.893-4.314-0.342L10.431,68.863   c-0.256-0.3-0.22-0.752,0.08-1.008L25.084,55.42c0.166-0.142,0.344-0.171,0.464-0.171c0.124,0,0.358,0.032,0.545,0.251   l12.284,14.397C40.427,72.299,41.418,75.356,41.169,78.504z M49.707,58.014l0.557,3.966l-3.973-0.513   c-0.615-0.081-1.239,0.134-1.678,0.577s-0.646,1.066-0.559,1.684l0.557,3.97l-3.2-0.408L30.238,54.196l10.296-8.78l10.453,10.453   c-0.267,0.1-0.515,0.253-0.721,0.461C49.827,56.773,49.62,57.396,49.707,58.014z M89.108,81.964L84.771,86.3   c-1.391,1.391-3.807,1.404-5.213,0.033l-23.59-26.196c-0.436-0.484-0.416-1.224,0.044-1.685l5.247-5.247   c0.445-0.446,1.216-0.466,1.686-0.044l26.196,23.59C90.555,78.2,90.543,80.528,89.108,81.964z M82.224,9.843l7.147,8.694   l0.474,3.422l-3.977-0.513c-0.615-0.081-1.238,0.133-1.677,0.576c-0.438,0.443-0.646,1.064-0.561,1.682l0.552,3.98l-3.978-0.514   c-0.613-0.082-1.239,0.134-1.678,0.577s-0.646,1.066-0.559,1.684l0.557,3.966l-3.973-0.513c-0.615-0.082-1.239,0.134-1.678,0.577   s-0.646,1.066-0.559,1.684l0.557,3.97l-3.976-0.507c-0.617-0.08-1.238,0.135-1.676,0.579c-0.438,0.443-0.645,1.066-0.558,1.683   l0.557,3.966l-3.973-0.513c-0.617-0.081-1.239,0.133-1.678,0.577c-0.438,0.443-0.646,1.066-0.559,1.685l0.328,2.337   c-0.513,0.077-1.003,0.231-1.466,0.453L48.826,38.328L82.224,9.843z M56.825,51.983l-0.576,0.576   c-0.028,0.026-0.055,0.053-0.081,0.081L55.808,53l-1.017,1.017L35.473,34.699l2.034-2.034L56.825,51.983z M42.943,13.52   c1.466-0.504,3.762-0.989,5.783-1.361c-1.65,0.926-3.26,1.875-3.992,2.442c-1.409,1.091-2.956,3.208-4.037,4.845l-3.227-3.227   C38.97,15.317,41.064,14.166,42.943,13.52z M20.485,28.872L31.68,17.678c0.213-0.213,0.496-0.33,0.797-0.33s0.584,0.117,0.797,0.33   l5.985,5.985c0.438,0.439,0.438,1.154,0,1.594l-3.166,3.166l-4.862,4.862c-0.001,0.001-0.001,0.002-0.002,0.003l-3.164,3.164   c-0.426,0.426-1.168,0.426-1.594,0l-0.389-0.389c-0.001-0.001-0.001-0.002-0.002-0.003l-2.602-2.602l-2.993-2.993   C20.047,30.026,20.047,29.312,20.485,28.872z M11.402,37.955c0.59-0.588,1.618-0.589,2.208,0l0.084,0.084l5.203,5.204   c0.001,0.001,0.002,0.001,0.003,0.002l0.081,0.081c0.608,0.609,0.608,1.6,0,2.208l-0.769,0.768l-7.579-7.579L11.402,37.955z"></path><path d="M72.543,69.543c0.387,0.366,0.881,0.547,1.375,0.547c0.53,0,1.06-0.209,1.453-0.625c0.759-0.802,0.724-2.068-0.078-2.827   l-2.274-2.151c-0.803-0.759-2.067-0.724-2.827,0.079c-0.759,0.803-0.724,2.068,0.079,2.828L72.543,69.543z"></path><path d="M76.396,73.189l7.201,6.815c0.387,0.366,0.881,0.547,1.375,0.547c0.53,0,1.06-0.209,1.452-0.625   c0.76-0.802,0.725-2.068-0.077-2.828l-7.201-6.815c-0.801-0.757-2.068-0.725-2.827,0.078C75.559,71.164,75.594,72.43,76.396,73.189   z"></path></g></svg>