<svg height='100px' width='100px'  fill="#000000" xmlns="http://www.w3.org/2000/svg" xmlns:xlink="http://www.w3.org/1999/xlink" version="1.1" x="0px" y="0px" viewBox="0 0 100 100" style="enable-background:new 0 0 100 100;" xml:space="preserve"><g><path d="M86.796,51.907h-3.713V21.469c0-0.48,0.203-0.941,0.558-1.265c1.611-1.473,2.239-3.692,1.638-5.79L82.856,5.95   c-0.246-0.858-1.03-1.45-1.923-1.45h-4.413c-0.893,0-1.677,0.591-1.923,1.45l-2.423,8.464c-0.601,2.099,0.027,4.317,1.639,5.791   c0.354,0.324,0.558,0.785,0.558,1.265v30.438h-3.687c-1.104,0-2,0.896-2,2v4.479c0,1.104,0.896,2,2,2   c0.091,0,0.166,0.075,0.166,0.166v0.162c0,0.091-0.075,0.166-0.166,0.166c-1.104,0-2,0.896-2,2v25.823   c0,3.748,3.045,6.796,6.789,6.796H82c3.748,0,6.796-3.049,6.796-6.796V62.881c0-1.104-0.896-2-2-2   c-0.091,0-0.166-0.075-0.166-0.166v-0.162c0-0.091,0.075-0.166,0.166-0.166c1.104,0,2-0.896,2-2v-4.479   C88.796,52.803,87.901,51.907,86.796,51.907z M76.512,17.252c-0.483-0.442-0.672-1.107-0.492-1.737L78.028,8.5h1.397l2.008,7.015   c0.181,0.629-0.008,1.295-0.492,1.737c-1.181,1.08-1.858,2.617-1.858,4.217v30.438h-0.713V21.469   C78.371,19.869,77.693,18.332,76.512,17.252z M84.796,56.899c-1.29,0.709-2.166,2.081-2.166,3.654v0.162   c0,1.573,0.876,2.945,2.166,3.654v24.335c0,1.542-1.254,2.796-2.796,2.796h-6.527c-1.538,0-2.789-1.254-2.789-2.796V64.369   c1.29-0.709,2.166-2.081,2.166-3.654v-0.162c0-1.573-0.876-2.945-2.166-3.654v-0.992h12.113V56.899z"></path><path d="M75.772,67.084c-1.104,0-2,0.896-2,2v2.666c0,1.104,0.896,2,2,2s2-0.896,2-2v-2.666   C77.772,67.979,76.877,67.084,75.772,67.084z"></path><path d="M75.772,75.125c-1.104,0-2,0.896-2,2v11.346c0,1.104,0.896,2,2,2s2-0.896,2-2V77.125   C77.772,76.021,76.877,75.125,75.772,75.125z"></path><path d="M63.814,4.5h-2.815c-2.366,0-4.391,1.476-5.212,3.554h-2.625C52.48,5.998,50.56,4.5,48.278,4.5h-15   c-1.958,0-3.645,1.108-4.521,2.719c-1.692,0.366-5.196,1.221-7.883,2.533c-3.184,1.554-8.64,5.639-8.871,5.812   c-0.503,0.377-0.799,0.97-0.799,1.6v2.504c0,0.636,0.303,1.235,0.816,1.612c0.348,0.255,0.763,0.388,1.184,0.388   c0.201,0,0.402-0.03,0.598-0.091c2.721-0.852,7.517-2.265,8.808-2.429c1.356-0.173,4.174,0.337,6.121,0.801   c0.868,1.638,2.57,2.769,4.549,2.769h2.179V49.29c-1.88,0.681-3.26,2.421-3.371,4.528L30.304,87.88   c-0.002,0.035-0.003,0.07-0.003,0.104c0,4.144,3.371,7.515,7.515,7.515h5.924c4.144,0,7.515-3.371,7.515-7.515   c0-0.035-0.001-0.07-0.003-0.104l-1.783-34.063c-0.11-2.107-1.49-3.847-3.37-4.528V22.717h2.179c2.283,0,4.202-1.498,4.884-3.554   h2.625c0.821,2.078,2.846,3.554,5.212,3.554h2.815c1.104,0,2-0.896,2-2V6.5C65.814,5.396,64.919,4.5,63.814,4.5z M43.74,91.5   h-5.924c-1.923,0-3.49-1.552-3.515-3.469l1.223-23.365H39c1.104,0,2-0.896,2-2s-0.896-2-2-2h-3.266l0.087-1.67h0.804   c1.104,0,2-0.896,2-2s-0.896-2-2-2H36.03l0.051-0.969c0.031-0.592,0.52-1.056,1.113-1.056h0.264h6.642h0.263   c0.593,0,1.082,0.464,1.113,1.056l0.051,0.969H41.75c-1.104,0-2,0.896-2,2s0.896,2,2,2h3.985l0.087,1.67H44c-1.104,0-2,0.896-2,2   s0.896,2,2,2h2.031l1.223,23.365C47.23,89.948,45.663,91.5,43.74,91.5z M42.099,48.971h-2.642V22.717h2.642V48.971z M49.445,17.551   c0,0.643-0.523,1.167-1.167,1.167h-4.179h-6.642h-4.179c-0.643,0-1.167-0.523-1.167-1.167v-2.613c0-1.104-0.896-2-2-2s-2,0.896-2,2   v0.78c-1.855-0.376-4.316-0.753-6.006-0.538c-0.825,0.104-2.385,0.499-4.011,0.951c1.552-1.06,3.283-2.174,4.534-2.784   c1.82-0.889,4.187-1.555,5.844-1.956c0.361,0.518,0.96,0.859,1.64,0.859c1.104,0,2-0.896,2-2V9.667   c0-0.643,0.523-1.167,1.167-1.167h15c0.644,0,1.167,0.523,1.167,1.167v2.521c0,1.104,0.896,2,2,2s2-0.896,2-2v-0.133h1.948v3.109   h-2.744c-0.336-0.255-0.75-0.413-1.204-0.413c-1.104,0-2,0.896-2,2V17.551z M61.814,18.717h-0.815   c-0.886,0-1.606-0.721-1.606-1.607v-7.003c0-0.886,0.721-1.607,1.606-1.607h0.815V18.717z"></path></g></svg>