<svg viewBox="0 0 96 96" xmlns="http://www.w3.org/2000/svg"><path d="M90 77.2c0-2.3-1.9-4.2-4.2-4.2H10.2C7.9 73 6 74.9 6 77.2v1.6c0 2.3 1.9 4.2 4.2 4.2h75.6c2.3 0 4.2-1.9 4.2-4.2v-1.6zM15 83l5-10m5 10l5-10m5 10l5-10m5 10l5-10m5 10l5-10m5 10l5-10m5 10l5-10" stroke-linecap="round" fill="none" stroke="#010000" stroke-width="4" stroke-miterlimit="10"/><path d="M14 86v6h8v-6m52 0v6h8v-6" fill="none" stroke="#010000" stroke-width="4" stroke-linejoin="round" stroke-miterlimit="10"/><path d="M48 66s4-12.2 4-16.7c0-4.8-8-11.7-8-16.7 0-4.5 4-16.7 4-16.7M64 66s4-12.2 4-16.7c0-4.8-8-11.7-8-16.7 0-4.5 4-16.7 4-16.7M32 66s4-12.2 4-16.7c0-4.8-8-11.7-8-16.7 0-4.5 4-16.7 4-16.7M80 66s4-12.2 4-16.7c0-4.8-8-11.7-8-16.7 0-4.5 4-16.7 4-16.7M16 66s4-12.2 4-16.7c0-4.8-8-11.7-8-16.7 0-4.5 4-16.7 4-16.7" fill="none" stroke="#010000" stroke-width="4" stroke-linejoin="round" stroke-miterlimit="10" stroke-linecap="round"/></svg>