<svg  fill="#000000" xmlns="http://www.w3.org/2000/svg" xmlns:xlink="http://www.w3.org/1999/xlink" version="1.1" x="0px" y="0px" viewBox="0 0 48 48" style="enable-background:new 0 0 48 48;" xml:space="preserve"><g><path d="M45,37.2h-6.5v-2.1c0-2.1-1.7-3.8-3.8-3.8c-2.1,0-3.8,1.7-3.8,3.8v2.1h-8v-4.7c0-1.1-0.9-2-2-2h-0.2V17.8   c3.1-1.5,5.2-4.7,5.2-8.4C26,4.2,21.8,0,16.6,0S7.2,4.2,7.2,9.4c0,3.7,2.1,6.8,5.2,8.4v12.7h-0.2c-1.1,0-2,0.9-2,2v4.7H3   c-1.7,0-3,1.3-3,3V47c0,0.6,0.4,1,1,1h46c0.6,0,1-0.4,1-1v-6.8C48,38.5,46.7,37.2,45,37.2z M33,35.1c0-1,0.8-1.8,1.8-1.8   c1,0,1.8,0.8,1.8,1.8v2.1H33V35.1z M9.2,9.4c0-4.1,3.3-7.4,7.4-7.4C20.7,2,24,5.3,24,9.4c0,4.1-3.3,7.4-7.4,7.4   C12.5,16.8,9.2,13.5,9.2,9.4z M18.8,18.5v12h-4.4v-12c0.7,0.2,1.4,0.3,2.2,0.3C17.4,18.8,18.1,18.7,18.8,18.5z M12.2,32.5h1.2   c0,0,0,0,0,0s0,0,0,0h6.4c0,0,0,0,0,0s0,0,0,0H21v4.7h-8.8V32.5z M46,46H2v-5.8c0-0.6,0.4-1,1-1h42c0.6,0,1,0.4,1,1V46z"></path><path d="M17.6,4c0-0.6-0.4-1-1-1c-3.5,0-6.4,2.9-6.4,6.4c0,0.6,0.4,1,1,1s1-0.4,1-1c0-2.4,2-4.4,4.4-4.4C17.2,5,17.6,4.6,17.6,4z"></path></g></svg>