<svg height='100px' width='100px'  fill="#000000" xmlns="http://www.w3.org/2000/svg" xmlns:xlink="http://www.w3.org/1999/xlink" version="1.1" x="0px" y="0px" viewBox="0 0 100 100" style="enable-background:new 0 0 100 100;" xml:space="preserve"><g><path d="M77.381,69.029c-0.016-0.067-0.034-0.132-0.056-0.196l-2.687-11.908c-0.005-0.023-0.01-0.046-0.016-0.069l-2.736-12.122   c-0.001-0.004-0.002-0.009-0.003-0.013l-2.162-9.58c-0.547-2.421-2.907-4.178-5.611-4.178h-9.53l4.278-18.937   c0.404-1.79,0.027-3.578-1.033-4.906C56.748,5.772,55.052,5,53.171,5h-9.713c-3.572,0-6.979,2.698-7.759,6.143l-8.354,36.983   c-0.243,1.077,0.433,2.148,1.511,2.391c1.073,0.244,2.147-0.432,2.392-1.51l0.424-1.877h15.156L44.981,55.3h-2.919   c-1.104,0-2,0.896-2,2s0.896,2,2,2h2.015l-1.845,8.169H27.077l1.845-8.169h8.203c1.104,0,2-0.896,2-2s-0.896-2-2-2h-7.299   l0.298-1.32c0.243-1.078-0.433-2.148-1.511-2.392c-1.074-0.244-2.148,0.432-2.392,1.51l-8.913,39.458l3.902,0.881l2.213-9.798H32.5   c1.104,0,2-0.896,2-2s-0.896-2-2-2h-8.172l1.845-8.169h15.155l-1.845,8.169h-1.982c-1.104,0-2,0.896-2,2s0.896,2,2,2h1.079   l-2.014,8.917c-0.243,1.078,0.433,2.148,1.511,2.392c0.148,0.034,0.296,0.05,0.442,0.05c0.914,0,1.739-0.631,1.949-1.56   l2.573-11.392c0-0.002,0.001-0.005,0.002-0.007l2.747-12.162c0.001-0.002,0.001-0.005,0.002-0.007l2.747-12.162   c0.001-0.003,0.001-0.005,0.002-0.008L50,51.24l1.458,6.454c0.001,0.008,0.003,0.015,0.005,0.022l1.254,5.552   c0.21,0.929,1.035,1.559,1.948,1.559c0.146,0,0.295-0.016,0.443-0.05c1.078-0.244,1.753-1.315,1.509-2.393L55.921,59.3h15.153   l1.844,8.169H57.768c-0.251-1.067-1.317-1.734-2.386-1.492c-1.078,0.243-1.754,1.314-1.511,2.392l0.333,1.473   c0.005,0.025,0.011,0.05,0.017,0.075l2.733,12.107c0.003,0.015,0.007,0.028,0.01,0.043l2.568,11.373   c0.21,0.929,1.035,1.56,1.949,1.56c0.146,0,0.294-0.016,0.442-0.05c1.077-0.243,1.754-1.313,1.511-2.391l-2.014-8.921h15.157   l2.212,9.802c0.21,0.929,1.035,1.56,1.949,1.56c0.146,0,0.294-0.016,0.442-0.05c1.077-0.243,1.754-1.313,1.511-2.391L77.381,69.029   z M39.602,12.025C39.966,10.414,41.768,9,43.458,9h9.713c0.668,0,1.212,0.219,1.529,0.616c0.302,0.378,0.394,0.921,0.256,1.527   l-4.477,19.818h-2.557h-0.034c-0.002,0-0.003,0-0.005,0H35.324L39.602,12.025z M32.575,43.131l1.845-8.169h11.903l1.626,7.2   l-0.219,0.97H32.575z M55.017,55.3l-1.845-8.169h6.453c1.104,0,2-0.896,2-2s-0.896-2-2-2h-7.356l-0.219-0.968l1.627-7.201H64.11   c0.838,0,1.573,0.456,1.709,1.06l1.605,7.11H64.75c-1.104,0-2,0.896-2,2s0.896,2,2,2h3.577L70.17,55.3H55.017z M60.518,79.639   l-1.844-8.169h15.158l1.844,8.169H60.518z"></path></g></svg>