<svg height='100px' width='100px'  fill="#000000" xmlns="http://www.w3.org/2000/svg" viewBox="0 0 96 96" x="0px" y="0px"><title>Artboard 6</title><g><path d="M48.1211,45.05,22.6643,70.5045a2,2,0,1,0,2.8281,2.8281L50.9492,47.8778A2,2,0,0,0,48.1211,45.05Z"></path><path d="M14.18,59.1921A2,2,0,1,0,11.3519,62.02l5.6562,5.6562a2,2,0,1,0,2.8281-2.8281Z"></path><path d="M22.18,61.239a2.0011,2.0011,0,0,0,3.7969-1.2656l-2.8281-8.4863a2.0011,2.0011,0,0,0-3.7968,1.2657Z"></path><path d="M31.1525,76.1627a2,2,0,0,0-2.8281,2.8281l5.6562,5.6562a2,2,0,0,0,2.8281-2.8281Z"></path><path d="M44.5118,72.85l-8.4843-2.8281a1.9992,1.9992,0,1,0-1.2656,3.7929l8.4842,2.8281A1.9993,1.9993,0,1,0,44.5118,72.85Z"></path><path d="M85.234,19.5929a5.963,5.963,0,0,0-1.7578-4.2421l-2.8281-2.8281a6.0049,6.0049,0,0,0-8.4843,0L52.3632,32.3213a5.9978,5.9978,0,0,0,0,8.4843l2.8281,2.832a6.0049,6.0049,0,0,0,8.4843-.0019L83.4762,23.837A5.9642,5.9642,0,0,0,85.234,19.5929ZM58.0194,40.8076l-2.8281-2.832a1.997,1.997,0,0,1,0-2.8262l1.4146-1.4143,5.6584,5.6557-1.4168,1.4168A2.0509,2.0509,0,0,1,58.0194,40.8076ZM80.6481,21.007,65.0924,36.5627,59.434,30.9073,74.9919,15.3508a2.0039,2.0039,0,0,1,2.8281,0l2.8281,2.8281a1.9993,1.9993,0,0,1,0,2.8281Z"></path></g></svg>