<svg fill="#000000" xmlns="http://www.w3.org/2000/svg" xmlns:xlink="http://www.w3.org/1999/xlink" version="1.1" x="0px" y="0px" viewBox="0 0 100 100" style="enable-background:new 0 0 100 100;" xml:space="preserve"><g><path d="M91.675,69.4l-0.145-0.125c-0.001-0.001-0.003-0.002-0.004-0.003l-11.243-9.637V30.453c0-4.446-1.728-8.623-4.865-11.759   c-3.137-3.138-7.313-4.865-11.759-4.865c-3.582,0-6.894,1.15-9.612,3.085H23.546c-0.53,0-1.039,0.211-1.414,0.586l-5.121,5.121   c-0.375,0.375-0.586,0.884-0.586,1.414v0.233H7c-1.104,0-2,0.896-2,2v6.554c0,1.104,0.896,2,2,2h9.425v0.233   c0,0.53,0.211,1.039,0.586,1.414l5.121,5.121c0.375,0.375,0.884,0.586,1.414,0.586h23.488v17.461l-11.343,9.722L35.642,69.4   c-2.114,1.813-3.326,4.453-3.326,7.241c0,5.252,4.27,9.524,9.521,9.53c0.003,0,0.006,0.001,0.01,0.001H85.47   c0.003,0,0.006-0.001,0.01-0.001C90.73,86.166,95,81.893,95,76.641C95,73.853,93.788,71.213,91.675,69.4z M16.425,30.821H9v-2.554   h7.425V30.821z M51.034,40.174v-9.722c0-6.961,5.663-12.625,12.624-12.625c3.377,0,6.549,1.312,8.931,3.694   c2.382,2.381,3.693,5.553,3.693,8.931v25.754l-6.419-5.502l-0.003-0.003c-0.001-0.001-0.002-0.001-0.003-0.002   c-1.727-1.48-3.928-2.295-6.199-2.295s-4.472,0.815-6.199,2.295c-0.001,0.001-0.002,0.001-0.003,0.002l-6.422,5.505V40.174z    M69.691,58.981c0,3.327-2.707,6.033-6.033,6.033s-6.033-2.707-6.033-6.033s2.707-6.033,6.033-6.033S69.691,55.655,69.691,58.981z    M30.225,38.174v-8.696c0-0.829-0.671-1.5-1.5-1.5s-1.5,0.671-1.5,1.5v8.696h-2.851l-3.949-3.949v-1.404v-6.554v-1.404l3.949-3.949   h2.851v3.351c0,0.829,0.671,1.5,1.5,1.5s1.5-0.671,1.5-1.5v-3.351h19.84c-1.903,2.703-3.031,5.99-3.031,9.54v7.722H30.225z    M44.69,82.172h-2.839c-0.002,0-0.003,0-0.005,0c-0.358,0-0.708-0.037-1.047-0.102c-2.3-0.852-3.948-3.061-3.948-5.654   c0-3.327,2.707-6.033,6.033-6.033s6.033,2.707,6.033,6.033C48.918,79.113,47.138,81.403,44.69,82.172z M77.476,82.172H49.84   c1.297-1.564,2.078-3.571,2.078-5.757c0-4.587-3.439-8.377-7.872-8.95l10.61-9.094c-0.014,0.203-0.031,0.404-0.031,0.61   c0,4.981,4.052,9.033,9.033,9.033s9.033-4.052,9.033-9.033c0-0.206-0.017-0.408-0.031-0.61l10.609,9.094   c-4.433,0.573-7.872,4.363-7.872,8.95C75.398,78.601,76.179,80.608,77.476,82.172z M86.517,82.069   c-0.339,0.065-0.689,0.102-1.047,0.102c-0.002,0-0.003,0-0.005,0h-2.839c-2.448-0.769-4.228-3.059-4.228-5.757   c0-3.327,2.707-6.033,6.033-6.033s6.033,2.707,6.033,6.033C90.464,79.008,88.817,81.217,86.517,82.069z"></path><path d="M63.658,37.795c4.55,0,8.251-3.702,8.251-8.251s-3.701-8.251-8.251-8.251s-8.251,3.701-8.251,8.251   S59.108,37.795,63.658,37.795z M63.658,24.292c2.896,0,5.251,2.355,5.251,5.251s-2.355,5.251-5.251,5.251s-5.251-2.356-5.251-5.251   S60.763,24.292,63.658,24.292z"></path><path d="M63.658,33.14c1.983,0,3.597-1.613,3.597-3.597c0-0.307-0.039-0.613-0.116-0.91C67,28.1,66.455,27.778,65.919,27.917   c-0.535,0.139-0.855,0.685-0.716,1.219c0.034,0.132,0.052,0.269,0.052,0.407c0,0.88-0.716,1.597-1.597,1.597   s-1.597-0.716-1.597-1.597c0-0.71,0.477-1.341,1.158-1.536c0.531-0.151,0.839-0.705,0.688-1.236   c-0.151-0.532-0.705-0.837-1.236-0.688c-1.537,0.438-2.61,1.861-2.61,3.459C60.062,31.527,61.675,33.14,63.658,33.14z"></path><path d="M60.062,58.981c0,0.235,0.023,0.47,0.068,0.698c0.107,0.542,0.633,0.896,1.175,0.787c0.542-0.107,0.894-0.633,0.787-1.175   c-0.02-0.101-0.03-0.204-0.03-0.31c0-0.88,0.716-1.597,1.597-1.597s1.596,0.716,1.596,1.597c0,0.879-0.714,1.595-1.671,1.595   c0,0-0.002,0-0.004,0c-0.551-0.025-1.023,0.393-1.053,0.944s0.392,1.023,0.944,1.053c0.063,0.003,0.125,0.005,0.188,0.005   c1.983,0,3.596-1.613,3.596-3.597s-1.613-3.597-3.596-3.597C61.675,55.385,60.062,56.998,60.062,58.981z"></path><path d="M86.98,75.329c-0.551,0.025-0.977,0.535-0.952,1.086c0,0.88-0.716,1.597-1.597,1.597s-1.597-0.716-1.597-1.597   c0-0.939,0.861-1.694,1.771-1.587c0.549,0.063,1.044-0.332,1.107-0.88s-0.332-1.044-0.88-1.107   c-0.131-0.015-0.266-0.022-0.401-0.022c-1.983,0-3.597,1.613-3.597,3.597s1.613,3.597,3.597,3.597s3.597-1.613,3.597-3.597   l-0.004-0.175C87.998,75.688,87.531,75.297,86.98,75.329z"></path><path d="M42.885,72.818c-1.951,0-3.53,1.527-3.595,3.476c-0.019,0.552,0.414,1.014,0.966,1.033   c0.545,0.021,1.015-0.415,1.033-0.966c0.029-0.865,0.729-1.542,1.596-1.542c0.88,0,1.597,0.716,1.597,1.597   s-0.716,1.597-1.597,1.597c-0.174,0-0.344-0.027-0.505-0.081c-0.523-0.174-1.09,0.107-1.266,0.631   c-0.175,0.524,0.107,1.09,0.631,1.266c0.366,0.123,0.75,0.185,1.14,0.185c1.983,0,3.597-1.613,3.597-3.597   S44.869,72.818,42.885,72.818z"></path><path d="M69.997,41.504l-1.321-1.321c-0.391-0.391-1.023-0.391-1.414,0s-0.391,1.023,0,1.414l1.321,1.321l-1.321,1.321   c-0.391,0.39-0.391,1.023,0,1.414c0.195,0.195,0.451,0.293,0.707,0.293s0.512-0.098,0.707-0.293l1.321-1.321l1.321,1.321   c0.195,0.195,0.451,0.293,0.707,0.293s0.512-0.098,0.707-0.293c0.391-0.391,0.391-1.024,0-1.414l-1.321-1.321l1.321-1.321   c0.391-0.391,0.391-1.023,0-1.414s-1.023-0.391-1.414,0L69.997,41.504z"></path></g></svg>
