<svg xmlns="http://www.w3.org/2000/svg" viewBox="0 0 1000 1000" fill="#1f79f2"><path d="M852.387 530.465v29.557c.01 34.41-.14 68.836.177 103.247.05 6.044-1.73 7.649-7.503 7.26-7.513-.5-15.08.036-22.619-.186-3.678-.101-4.91 1.14-4.894 4.848.121 32.055.202 64.114-.035 96.163-.03 5.59 3.244 4.556 6.387 4.556 46.444.01 92.879.142 139.313-.186 6.463-.04 7.654 1.811 7.603 7.846-.303 33.467-.262 66.939-.005 100.41.04 5.35-1.463 6.65-6.72 6.65-278.61-.176-557.225-.226-835.839-.15-4.94 0-6.287-1.292-6.277-6.262.172-187.628.212-375.252.086-562.88 0-5.55 1.705-6.453 6.751-6.428 38.18.192 76.364-.025 114.549.217 5.742.035 7.518-1.282 7.472-7.291-.277-38.18-.025-76.364-.227-114.554-.025-5.277.99-7.12 6.812-7.12 235.48.117 470.955.067 706.43-.145 5.828-.01 6.877 1.826 6.842 7.139-.217 33.235-.318 66.47.086 99.705.086 6.635-2.069 7.659-7.977 7.598-28.048-.302-56.101.091-84.145-.348-6.291-.1-9.722 2.2-13.25 6.933-49.97 66.773-100.103 133.409-150.205 200.076-1.251 1.67-2.553 3.3-5.02 6.478-.888-9.995-1.695-18.431-2.366-26.878-4.163-52.332-8.29-104.66-12.423-156.991-.64-8.22-1.427-16.429-1.74-24.658-.136-3.658-1.317-4.849-4.965-4.839-35.36.081-70.713.091-106.072-.07-3.81-.015-5.339 2.079-7.07 4.702a4862.486 4862.486 0 01-24.288 36.454c-31.701 47.075-64.13 93.686-95.023 141.275-62.802 96.733-128 191.857-191.423 288.171-.888 1.337-1.72 2.704-2.583 4.067 1.645 2.023 3.668 1.13 5.348 1.13 48.564.05 97.117-.015 145.675.11 4.213.011 6.73-1.286 9.244-4.722 52.17-71.576 104.477-143.03 156.76-214.5 1.24-1.7 2.562-3.32 4.858-6.287 2.165 13.804 4.173 26.327 6.095 38.86 2.523 16.514 5.05 33.034 7.452 49.563.59 4.061 2.08 5.736 6.68 5.726a25332.9 25332.9 0 01171.831-.03c4.612.005 6.545-2.058 8.628-5.52 20.854-34.688 41.838-69.3 62.802-103.928 1.055-1.75 2.22-3.426 3.335-5.141.485.121.974.247 1.453.373M91.578 219.978c-19.325 0-38.644-.152-57.968.1-4.723.071-6.459-.867-6.423-6.074.247-38.881.212-77.767.065-116.648-.01-4.47 1.02-6.035 5.798-6.01 39.118.182 78.246.147 117.349-.025 4.278-.015 5.595 1.05 5.57 5.485-.162 39.355-.167 78.705.05 118.06.026 4.758-1.816 5.253-5.762 5.223-19.561-.162-39.128-.076-58.68-.076z" fill="#2d3190"/></svg>