<?xml version="1.0" encoding="UTF-8" standalone="no"?>
<svg
   xmlns:dc="http://purl.org/dc/elements/1.1/"
   xmlns:cc="http://creativecommons.org/ns#"
   xmlns:rdf="http://www.w3.org/1999/02/22-rdf-syntax-ns#"
   xmlns:svg="http://www.w3.org/2000/svg"
   xmlns="http://www.w3.org/2000/svg"
   xmlns:sodipodi="http://sodipodi.sourceforge.net/DTD/sodipodi-0.dtd"
   xmlns:inkscape="http://www.inkscape.org/namespaces/inkscape"
   version="1.1"
   x="0px"
   y="0px"
   viewBox="0 0 1000 1000"
   enable-background="new 0 0 1000 1000"
   fill="#1f79f2"
   xml:space="preserve"
   id="svg2064"
   sodipodi:docname="maker_made.svg"
   inkscape:version="1.0beta2 (2b71d25, 2019-12-03)"><defs
   id="defs2068" /><sodipodi:namedview
   pagecolor="#ffffff"
   bordercolor="#666666"
   inkscape:document-rotation="0"
   borderopacity="1"
   objecttolerance="10"
   gridtolerance="10"
   guidetolerance="10"
   inkscape:pageopacity="0"
   inkscape:pageshadow="2"
   inkscape:window-width="1142"
   inkscape:window-height="766"
   id="namedview2066"
   showgrid="false"
   inkscape:zoom="0.314"
   inkscape:cx="1256.9637"
   inkscape:cy="308.39897"
   inkscape:window-x="956"
   inkscape:window-y="559"
   inkscape:window-maximized="0"
   inkscape:current-layer="g2136" />
<metadata
   id="metadata2050"> Svg Vector Icons : http://www.onlinewebfonts.com/icon <rdf:RDF><cc:Work
     rdf:about=""><dc:format>image/svg+xml</dc:format><dc:type
       rdf:resource="http://purl.org/dc/dcmitype/StillImage" /><dc:title></dc:title></cc:Work></rdf:RDF></metadata>

<g
   id="g2136"
   transform="matrix(14.636299,0,0,14.636299,-148.94922,-159.98056)"><g
     id="g971"
     transform="matrix(0.34472762,0,0,-0.34472762,68.414603,47.173528)"><path
       d="m 0,0 v -5.858 c 0.002,-6.82 -0.028,-13.643 0.035,-20.463 0.01,-1.198 -0.343,-1.516 -1.487,-1.439 -1.489,0.099 -2.989,-0.007 -4.483,0.037 -0.729,0.02 -0.973,-0.226 -0.97,-0.961 0.024,-6.353 0.04,-12.707 -0.007,-19.059 -0.006,-1.108 0.643,-0.903 1.266,-0.903 9.205,-0.002 18.408,-0.028 27.611,0.037 1.281,0.008 1.517,-0.359 1.507,-1.555 -0.06,-6.633 -0.052,-13.267 -0.001,-19.901 0.008,-1.06 -0.29,-1.318 -1.332,-1.318 -55.219,0.035 -110.439,0.045 -165.659,0.03 -0.979,0 -1.246,0.256 -1.244,1.241 0.034,37.187 0.042,74.373 0.017,111.56 0,1.1 0.338,1.279 1.338,1.274 7.567,-0.038 15.135,0.005 22.703,-0.043 1.138,-0.007 1.49,0.254 1.481,1.445 -0.055,7.567 -0.005,15.135 -0.045,22.704 -0.005,1.046 0.196,1.411 1.35,1.411 46.671,-0.023 93.341,-0.013 140.011,0.029 1.155,0.002 1.363,-0.362 1.356,-1.415 -0.043,-6.587 -0.063,-13.174 0.017,-19.761 0.017,-1.315 -0.41,-1.518 -1.581,-1.506 C 16.324,45.646 10.764,45.568 5.206,45.655 3.959,45.675 3.279,45.219 2.58,44.281 -7.324,31.047 -17.26,17.84 -27.19,4.627 c -0.248,-0.331 -0.506,-0.654 -0.995,-1.284 -0.176,1.981 -0.336,3.653 -0.469,5.327 -0.825,10.372 -1.643,20.743 -2.462,31.115 -0.127,1.629 -0.283,3.256 -0.345,4.887 -0.027,0.725 -0.261,0.961 -0.984,0.959 -7.008,-0.016 -14.015,-0.018 -21.023,0.014 -0.755,0.003 -1.058,-0.412 -1.401,-0.932 -1.595,-2.415 -3.197,-4.824 -4.814,-7.225 -6.283,-9.33 -12.71,-18.568 -18.833,-28 -12.447,-19.172 -25.369,-38.025 -37.939,-57.114 -0.176,-0.265 -0.341,-0.536 -0.512,-0.806 0.326,-0.401 0.727,-0.224 1.06,-0.224 9.625,-0.01 19.248,0.003 28.872,-0.022 0.835,-0.002 1.334,0.255 1.832,0.936 10.34,14.186 20.707,28.348 31.069,42.513 0.246,0.337 0.508,0.658 0.963,1.246 0.429,-2.736 0.827,-5.218 1.208,-7.702 0.5,-3.273 1.001,-6.547 1.477,-9.823 0.117,-0.805 0.412,-1.137 1.324,-1.135 11.352,0.04 22.705,0.043 34.056,0.006 0.914,-0.001 1.297,0.408 1.71,1.094 4.133,6.875 8.292,13.735 12.447,20.598 0.209,0.347 0.44,0.679 0.661,1.019 C -0.192,0.05 -0.095,0.025 0,0"
       style="fill:#2d3190;fill-opacity:1;fill-rule:nonzero;stroke:none"
       id="path973"
       inkscape:connector-curvature="0" /></g><g
     id="g1011"
     transform="matrix(0.34472762,0,0,-0.34472762,16.433596,25.959985)"><path
       d="m 0,0 c -3.83,0 -7.659,0.03 -11.489,-0.02 -0.936,-0.014 -1.28,0.172 -1.273,1.204 0.049,7.706 0.042,15.413 0.013,23.119 -0.002,0.886 0.202,1.196 1.149,1.191 7.753,-0.036 15.508,-0.029 23.258,0.005 0.848,0.003 1.109,-0.208 1.104,-1.087 C 12.73,16.612 12.729,8.813 12.772,1.013 12.777,0.07 12.412,-0.028 11.63,-0.022 7.753,0.01 3.875,-0.007 0,-0.007 Z"
       style="fill:#2d3190;fill-opacity:1;fill-rule:nonzero;stroke:none"
       id="path1013"
       inkscape:connector-curvature="0" /></g></g></svg>
