<svg  fill="#000000" xmlns="http://www.w3.org/2000/svg" xmlns:xlink="http://www.w3.org/1999/xlink" version="1.1" x="0px" y="0px" viewBox="0 0 100 100" style="enable-background:new 0 0 100 100;" xml:space="preserve"><g><path d="M78.623,37.161h5.264c0.74,2.286,2.888,3.945,5.418,3.945c3.141,0,5.695-2.555,5.695-5.695c0-3.14-2.555-5.695-5.695-5.695   c-2.53,0-4.677,1.659-5.417,3.945h-5.264v-2.02c0-0.663-0.264-1.299-0.732-1.768l-7.765-7.764   c-0.469-0.469-1.104-0.732-1.768-0.732h-2.02v-5.265c2.286-0.74,3.945-2.888,3.945-5.417C70.284,7.555,67.729,5,64.589,5   c-3.14,0-5.694,2.555-5.694,5.695c0,2.529,1.659,4.676,3.944,5.417v5.265H51.75v-5.265c2.286-0.74,3.945-2.888,3.945-5.417   C55.695,7.555,53.141,5,50,5s-5.695,2.555-5.695,5.695c0,2.53,1.659,4.677,3.945,5.417v5.265H37.161v-5.265   c2.286-0.74,3.944-2.888,3.944-5.417C41.105,7.555,38.551,5,35.411,5c-3.141,0-5.695,2.555-5.695,5.695   c0,2.53,1.659,4.677,3.945,5.417v5.265h-2.02c-0.663,0-1.299,0.263-1.768,0.732l-7.765,7.764c-0.469,0.469-0.732,1.105-0.732,1.768   v2.02h-5.264c-0.74-2.286-2.888-3.945-5.417-3.945C7.555,29.716,5,32.271,5,35.411c0,3.141,2.555,5.695,5.695,5.695   c2.53,0,4.677-1.659,5.418-3.945h5.264V48.25h-5.264c-0.74-2.286-2.888-3.945-5.418-3.945C7.555,44.305,5,46.859,5,50   s2.555,5.695,5.695,5.695c2.53,0,4.677-1.659,5.418-3.945h5.264v11.089h-5.264c-0.74-2.286-2.888-3.945-5.418-3.945   C7.555,58.894,5,61.449,5,64.589c0,3.14,2.555,5.695,5.695,5.695c2.53,0,4.677-1.659,5.417-3.945h5.264v2.02   c0,0.663,0.264,1.299,0.732,1.768l7.765,7.764c0.469,0.469,1.104,0.732,1.768,0.732h2.02v5.265   c-2.286,0.74-3.945,2.888-3.945,5.417c0,3.141,2.555,5.695,5.695,5.695c3.14,0,5.694-2.555,5.694-5.695   c0-2.529-1.659-4.676-3.944-5.417v-5.265H48.25v5.265c-2.286,0.74-3.945,2.888-3.945,5.417C44.305,92.445,46.859,95,50,95   s5.695-2.555,5.695-5.695c0-2.53-1.659-4.677-3.945-5.417v-5.265h11.089v5.265c-2.286,0.74-3.944,2.888-3.944,5.417   c0,3.141,2.555,5.695,5.694,5.695c3.141,0,5.695-2.555,5.695-5.695c0-2.53-1.659-4.677-3.945-5.417v-5.265h2.02   c0.663,0,1.299-0.263,1.768-0.732l7.765-7.764c0.469-0.469,0.732-1.105,0.732-1.768v-2.02h5.264   c0.74,2.286,2.888,3.945,5.417,3.945c3.141,0,5.695-2.555,5.695-5.695c0-3.141-2.555-5.695-5.695-5.695   c-2.53,0-4.677,1.659-5.418,3.945h-5.264V51.75h5.264c0.74,2.286,2.888,3.945,5.418,3.945C92.445,55.695,95,53.141,95,50   s-2.555-5.695-5.695-5.695c-2.53,0-4.677,1.659-5.418,3.945h-5.264V37.161z M89.305,33.716c0.935,0,1.695,0.76,1.695,1.695   s-0.761,1.695-1.695,1.695s-1.695-0.761-1.695-1.695S88.37,33.716,89.305,33.716z M64.589,9c0.935,0,1.695,0.761,1.695,1.695   s-0.761,1.695-1.695,1.695s-1.694-0.76-1.694-1.695S63.654,9,64.589,9z M50,9c0.935,0,1.695,0.761,1.695,1.695   S50.935,12.39,50,12.39s-1.695-0.76-1.695-1.695S49.065,9,50,9z M35.411,9c0.935,0,1.694,0.761,1.694,1.695   s-0.76,1.695-1.694,1.695s-1.695-0.76-1.695-1.695S34.477,9,35.411,9z M10.695,37.106C9.761,37.106,9,36.345,9,35.411   s0.761-1.695,1.695-1.695s1.695,0.76,1.695,1.695S11.63,37.106,10.695,37.106z M10.695,51.695C9.761,51.695,9,50.935,9,50   s0.761-1.695,1.695-1.695s1.695,0.761,1.695,1.695S11.63,51.695,10.695,51.695z M10.695,66.284C9.761,66.284,9,65.524,9,64.589   s0.761-1.695,1.695-1.695s1.695,0.761,1.695,1.695S11.63,66.284,10.695,66.284z M35.411,91c-0.935,0-1.695-0.761-1.695-1.695   s0.761-1.695,1.695-1.695s1.694,0.76,1.694,1.695S36.346,91,35.411,91z M50,91c-0.935,0-1.695-0.761-1.695-1.695   S49.065,87.61,50,87.61s1.695,0.76,1.695,1.695S50.935,91,50,91z M64.589,91c-0.935,0-1.694-0.761-1.694-1.695   s0.76-1.695,1.694-1.695s1.695,0.76,1.695,1.695S65.523,91,64.589,91z M89.305,62.894c0.935,0,1.695,0.761,1.695,1.695   s-0.761,1.695-1.695,1.695s-1.695-0.76-1.695-1.695S88.37,62.894,89.305,62.894z M89.305,48.305C90.239,48.305,91,49.065,91,50   s-0.761,1.695-1.695,1.695S87.609,50.935,87.609,50S88.37,48.305,89.305,48.305z M73.623,67.323l-6.3,6.3H32.677l-6.3-6.3V32.677   l6.3-6.3h34.646l6.3,6.3V67.323z"></path><path d="M64.217,32.127H35.783c-0.464,0-0.909,0.185-1.237,0.513l-1.906,1.906c-0.328,0.328-0.513,0.773-0.513,1.237v2.716   c0,0.966,0.783,1.75,1.75,1.75s1.75-0.784,1.75-1.75v-1.991l0.881-0.881h26.984l0.881,0.881V49.75c0,0.966,0.783,1.75,1.75,1.75   s1.75-0.784,1.75-1.75V35.783c0-0.464-0.185-0.909-0.513-1.237l-1.906-1.906C65.126,32.312,64.681,32.127,64.217,32.127z"></path><path d="M66.123,52.937c-0.967,0-1.75,0.784-1.75,1.75v1.625c0,0.966,0.783,1.75,1.75,1.75s1.75-0.784,1.75-1.75v-1.625   C67.873,53.72,67.09,52.937,66.123,52.937z"></path><path d="M66.123,59.751c-0.967,0-1.75,0.784-1.75,1.75v1.991l-0.881,0.881H36.508l-0.881-0.881V43.625   c0-0.966-0.783-1.75-1.75-1.75s-1.75,0.784-1.75,1.75v20.592c0,0.464,0.185,0.909,0.513,1.237l1.906,1.906   c0.328,0.328,0.773,0.513,1.237,0.513h28.434c0.464,0,0.909-0.185,1.237-0.513l1.906-1.906c0.328-0.328,0.513-0.773,0.513-1.237   v-2.716C67.873,60.535,67.09,59.751,66.123,59.751z"></path></g></svg>