<svg height='100px' width='100px'  fill="#000000" xmlns="http://www.w3.org/2000/svg" xmlns:xlink="http://www.w3.org/1999/xlink" version="1.1" x="0px" y="0px" viewBox="0 0 100 100" style="enable-background:new 0 0 100 100;" xml:space="preserve"><g><path d="M77.19,45.785c-1.104,0-2,0.896-2,2c0,13.89-11.3,25.189-25.19,25.189s-25.19-11.3-25.19-25.189c0-1.104-0.896-2-2-2   s-2,0.896-2,2c0,15.422,12.025,28.081,27.19,29.113V91h-8.616c-1.104,0-2,0.896-2,2s0.896,2,2,2h21.231c1.104,0,2-0.896,2-2   s-0.896-2-2-2H52V76.898c15.165-1.032,27.19-13.691,27.19-29.113C79.19,46.681,78.294,45.785,77.19,45.785z"></path><path d="M50,69.206c11.812,0,21.421-9.609,21.421-21.421V26.421C71.421,14.609,61.812,5,50,5s-21.421,9.609-21.421,21.421v21.363   C28.579,59.597,38.188,69.206,50,69.206z M32.579,26.421C32.579,16.815,40.394,9,50,9s17.421,7.815,17.421,17.421v21.363   c0,9.606-7.815,17.421-17.421,17.421s-17.421-7.815-17.421-17.421V26.421z"></path><path d="M41.912,27.656h12.105h4.07c1.104,0,2-0.896,2-2s-0.896-2-2-2h-4.07H41.912c-1.104,0-2,0.896-2,2   S40.808,27.656,41.912,27.656z"></path><path d="M41.912,39.103h7.624c1.104,0,2-0.896,2-2s-0.896-2-2-2h-7.624c-1.104,0-2,0.896-2,2S40.808,39.103,41.912,39.103z"></path><path d="M58.088,35.103h-1.754c-1.104,0-2,0.896-2,2s0.896,2,2,2h1.754c1.104,0,2-0.896,2-2S59.192,35.103,58.088,35.103z"></path><path d="M58.088,46.55h-3.534h-2.191H42.098c-1.104,0-2,0.896-2,2s0.896,2,2,2h10.265h2.191h3.534c1.104,0,2-0.896,2-2   S59.192,46.55,58.088,46.55z"></path></g></svg>