<svg height='100px' width='100px'  fill="#000000" xmlns="http://www.w3.org/2000/svg" xmlns:xlink="http://www.w3.org/1999/xlink" version="1.1" x="0px" y="0px" viewBox="0 0 100 100" style="enable-background:new 0 0 100 100;" xml:space="preserve"><g><path d="M81.655,62.935c3.029-7.178,3.301-14.914,0.766-21.781c-4.11-11.139-14.229-18.033-26.44-18.033c-0.07,0-0.142,0-0.212,0   c-0.296,0.002-0.575,0.072-0.827,0.19c-0.096-0.092-0.193-0.184-0.294-0.271c0.261-1.926-0.65-3.797-2.326-4.784l1.848-4.201   l1.423,0.604c0.255,0.108,0.52,0.16,0.78,0.16c0.778,0,1.519-0.458,1.842-1.219c0.432-1.017-0.043-2.191-1.06-2.622l-1.375-0.584   l0,0L44.885,5.769l0,0.001l-1.438-0.61c-1.017-0.432-2.19,0.043-2.622,1.06s0.043,2.191,1.06,2.622l1.389,0.59l-1.85,4.203   c-2.307-0.659-4.804,0.466-5.767,2.731l-8.415,19.825c-0.505,1.188-0.517,2.501-0.034,3.7c0.474,1.175,1.369,2.093,2.52,2.603   l-3.685,8.681c-0.432,1.017,0.043,2.19,1.06,2.622l6.232,2.646c0.249,0.106,0.516,0.159,0.781,0.159   c0.254,0,0.509-0.048,0.749-0.146c0.492-0.199,0.885-0.585,1.092-1.073l3.685-8.682c0.584,0.236,1.195,0.362,1.808,0.362   c0.614,0,1.229-0.119,1.814-0.355c1.198-0.484,2.137-1.405,2.641-2.594l3.131-7.376c0.171,0.011,0.342,0.025,0.512,0.025   c2.339,0,4.584-1.066,6.073-2.906c7.547,1.016,12.864,5.424,14.327,11.979c1.304,5.844-0.771,13.678-8.146,18.604   c-1.323-1.041-2.954-1.622-4.694-1.622c-1.422,0-2.771,0.393-3.94,1.102H23.051c-1.918,0-3.724,0.749-5.084,2.109   c-1.36,1.36-2.109,3.166-2.109,5.083c0,3.966,3.227,7.193,7.193,7.193h18.609l-2.65,3.525H27.367c-4.414,0-8.005,3.591-8.005,8.006   V93c0,1.104,0.896,2,2,2h12.637c1.104,0,2-0.896,2-2s-0.896-2-2-2H23.362v-1.166c0-2.209,1.797-4.006,4.005-4.006h21.351   c1.104,0,2-0.896,2-2s-0.896-2-2-2h-4.704l10.2-13.567c0.69-0.919,1.746-1.446,2.895-1.446c1.149,0,2.205,0.527,2.896,1.445   l10.2,13.567H54.917c-1.104,0-2,0.896-2,2s0.896,2,2,2h19.924c2.382,0,4.32,1.938,4.32,4.32V91H39c-1.104,0-2,0.896-2,2   s0.896,2,2,2h42.161c1.104,0,2-0.896,2-2v-2.852c0-4.459-3.528-8.099-7.938-8.301l-4.085-5.433c1.38-1.031,2.689-2.177,3.9-3.435   c0.766-0.796,0.741-2.062-0.055-2.828c-0.795-0.765-2.062-0.741-2.828,0.055c-1.062,1.104-2.21,2.109-3.42,3.012l-4.311-5.734   c7.55-5.284,11.312-14.074,9.427-22.521c-1.743-7.816-7.996-13.344-16.574-14.886c0.142-0.969,0.099-1.953-0.13-2.912   c9.958,0.446,18.14,6.21,21.521,15.375c2.182,5.911,1.934,12.603-0.699,18.842c-0.43,1.018,0.048,2.19,1.065,2.62   c0.254,0.107,0.518,0.158,0.776,0.158C80.592,64.158,81.333,63.699,81.655,62.935z M43.461,74.303h-20.41   c-1.761,0-3.193-1.432-3.193-3.193c0-0.85,0.333-1.65,0.938-2.255c0.604-0.604,1.406-0.938,2.256-0.938h26.417l-5.009,6.662   C44.164,74.409,43.826,74.303,43.461,74.303z M33.056,51.978l-2.551-1.083l2.901-6.833l2.551,1.083L33.056,51.978z M48.072,32.459   c-0.585-0.249-1.082-0.624-1.477-1.115c-0.691-0.862-1.951-0.999-2.812-0.308c-0.861,0.691-0.999,1.95-0.308,2.812   c0.498,0.621,1.101,1.15,1.764,1.592l-3.018,7.11c-0.117,0.277-0.337,0.399-0.457,0.448c-0.12,0.05-0.363,0.112-0.642-0.005   L39.4,42.261c-0.014-0.006-0.025-0.015-0.039-0.021l-6.232-2.645c-0.013-0.005-0.026-0.007-0.038-0.012l-1.734-0.736   c-0.27-0.115-0.391-0.333-0.438-0.452c-0.049-0.121-0.113-0.365,0.005-0.643l8.415-19.825c0.179-0.421,0.668-0.614,1.085-0.439   l2.534,1.076c1.016,0.431,2.19-0.043,2.622-1.06c0.341-0.802,0.111-1.696-0.498-2.252l1.874-4.259l3.533,1.5l-1.848,4.198   c-0.898-0.16-1.82,0.308-2.191,1.184c-0.432,1.017,0.043,2.191,1.06,2.623l1.595,0.677c-2.865,0.173-5.534,1.917-6.731,4.737   c-0.174,0.413-0.313,0.84-0.414,1.268c-0.254,1.075,0.413,2.152,1.488,2.405c1.069,0.252,2.151-0.413,2.404-1.488   c0.05-0.21,0.119-0.422,0.205-0.625c0.819-1.931,3.059-2.834,4.989-2.016c0.936,0.397,1.66,1.135,2.041,2.077   c0.374,0.925,0.368,1.939-0.01,2.861c-0.201,0.223-0.357,0.488-0.441,0.789C51.62,32.587,49.734,33.164,48.072,32.459z"></path><path d="M78.509,65c-0.932-0.592-2.168-0.313-2.759,0.622c-0.145,0.229-0.293,0.456-0.445,0.681   c-0.617,0.916-0.376,2.159,0.539,2.776c0.344,0.231,0.732,0.342,1.117,0.342c0.643,0,1.273-0.309,1.66-0.881   c0.174-0.258,0.344-0.519,0.51-0.781C79.721,66.825,79.442,65.59,78.509,65z"></path><circle cx="57.109" cy="70.621" r="2.568"></circle></g></svg>