<svg  fill="#000000" xmlns="http://www.w3.org/2000/svg" viewBox="0 0 24 24" x="0px" y="0px"><title>Artboard 133</title><g data-name="Layer 101"><path d="M20.293,16.293,18,18.5859V3a1,1,0,0,0-2,0V18.5859L13.707,16.293a1,1,0,0,0-1.414,1.414l3.9993,3.9994a1.0035,1.0035,0,0,0,1.4154,0L21.707,17.707a1,1,0,0,0-1.414-1.414Z"></path><path d="M3,22h7a1,1,0,0,0,1-1V14a1,1,0,0,0-1-1H3a1,1,0,0,0-1,1v7A1,1,0,0,0,3,22Zm1-7H9v5H4Z"></path><path d="M3,11H5A1,1,0,0,0,5,9H4V8A1,1,0,0,0,2,8v2A1,1,0,0,0,3,11Z"></path><path d="M10,7A1,1,0,0,0,9,8V9H8a1,1,0,0,0,0,2h2a1,1,0,0,0,1-1V8A1,1,0,0,0,10,7Z"></path><path d="M11,3a1,1,0,0,0-1-1H8A1,1,0,0,0,8,4H9V5a1,1,0,0,0,2,0Z"></path><path d="M3,6A1,1,0,0,0,4,5V4H5A1,1,0,0,0,5,2H3A1,1,0,0,0,2,3V5A1,1,0,0,0,3,6Z"></path></g></svg>