<svg  fill="#000000" xmlns="http://www.w3.org/2000/svg" viewBox="0 0 24 24" x="0px" y="0px"><title>Artboard 5</title><g data-name="Layer 101"><path d="M12,12a1,1,0,0,0-1,1v5.5859L9.8784,17.4644a1,1,0,1,0-1.414,1.414L11.293,21.707c.0091.0092.0215.0119.0309.0206a.9853.9853,0,0,0,.2933.1962l.0031.0006a.9992.9992,0,0,0,1.0867-.2174l2.8286-2.8286a1,1,0,1,0-1.414-1.414L13,18.5859V13A1,1,0,0,0,12,12Z"></path><path d="M21,2H3A1,1,0,0,0,2,3V9a1,1,0,0,0,1,1H21a1,1,0,0,0,1-1V3A1,1,0,0,0,21,2ZM20,8H4V4H20Z"></path></g></svg>