<svg  fill="#000000" xmlns="http://www.w3.org/2000/svg" viewBox="0 0 24 24" x="0px" y="0px"><title>Artboard 21</title><g data-name="Layer 101"><path d="M2,7A1,1,0,0,0,3,8H7A1.004,1.004,0,0,0,8,7V3A1,1,0,0,0,6,3V4.5859L3.707,2.293A1,1,0,0,0,2.293,3.707L4.5859,6H3A1,1,0,0,0,2,7Z"></path><path d="M2.293,21.707a.9995.9995,0,0,0,1.414,0L6,19.4141V21a1,1,0,0,0,2,0V17a1.004,1.004,0,0,0-1-1H3a1,1,0,0,0,0,2H4.5859L2.293,20.293A.9994.9994,0,0,0,2.293,21.707Z"></path><path d="M22,17a1,1,0,0,0-1-1H17a1.004,1.004,0,0,0-1,1v4a1,1,0,0,0,2,0V19.4141l2.293,2.2929a1,1,0,0,0,1.414-1.414L19.4141,18H21A1,1,0,0,0,22,17Z"></path><path d="M21.707,2.293a.9994.9994,0,0,0-1.414,0L18,4.5859V3a1,1,0,0,0-2,0V7a1.004,1.004,0,0,0,1,1h4a1,1,0,0,0,0-2H19.4141L21.707,3.707A.9994.9994,0,0,0,21.707,2.293Z"></path><path d="M12,16a4,4,0,1,0-4-4A4.0045,4.0045,0,0,0,12,16Zm0-6a2,2,0,1,1-2,2A2.002,2.002,0,0,1,12,10Z"></path></g></svg>