<svg  fill="#000000" xmlns="http://www.w3.org/2000/svg" viewBox="0 0 24 24" x="0px" y="0px"><title>Artboard 10</title><g data-name="Layer 101"><path d="M3,22h9a1,1,0,0,0,1-1V12a1,1,0,0,0-1-1H3a1,1,0,0,0-1,1v9A1,1,0,0,0,3,22Zm1-9h7v7H4Z"></path><path d="M15,10a.9967.9967,0,0,0,.707-.293L20,5.4141V7a1,1,0,0,0,2,0V3c0-.0128-.0068-.0234-.0073-.0361a.986.986,0,0,0-.0689-.3467l-.0015-.0026c-.0038-.0091-.0109-.0158-.0149-.0247a.9861.9861,0,0,0-.1786-.2651,1.017,1.017,0,0,0-.0762-.0688.9833.9833,0,0,0-.2081-.14.9446.9446,0,0,0-.0953-.0452A.9857.9857,0,0,0,21,2H17a1,1,0,0,0,0,2h1.5859L14.293,8.293A1,1,0,0,0,15,10Z"></path></g></svg>