<svg  fill="#000000" xmlns="http://www.w3.org/2000/svg" viewBox="0 0 24 24" x="0px" y="0px"><title>Artboard 3</title><g data-name="Layer 101"><path d="M21,2H12a1,1,0,0,0-1,1v9a1,1,0,0,0,1,1h9a1,1,0,0,0,1-1V3A1,1,0,0,0,21,2Zm-1,9H13V4h7Z"></path><path d="M2.0762,21.3828l.0017.0029c.0035.0084.01.0146.0138.0229a1.0361,1.0361,0,0,0,.4643.4758.9238.9238,0,0,0,.0948.045A.9858.9858,0,0,0,3,22H7a1,1,0,0,0,0-2H5.4141L9.707,15.707a1,1,0,0,0-1.414-1.414L4,18.5859V17a1,1,0,0,0-2,0v4c0,.0131.007.0239.0074.0369A.9879.9879,0,0,0,2.0762,21.3828Z"></path></g></svg>