<svg  fill="#000000" xmlns="http://www.w3.org/2000/svg" xmlns:xlink="http://www.w3.org/1999/xlink" version="1.1" x="0px" y="0px" viewBox="0 0 100 100" style="enable-background:new 0 0 100 100;" xml:space="preserve"><g><path d="M67.146,5H50H32.854c-1.104,0-2,0.896-2,2v38.38c0,2.638,1.135,6.185,3.67,8.165c1.129,0.882,2.453,1.437,3.732,1.973   c1.515,0.635,2.945,1.234,3.696,2.237c1.563,2.088,1.623,5.018,1.397,7.108c-0.171,1.586-0.848,5.563-1.445,9.071   c-0.496,2.911-0.964,5.66-1.139,7.002c-0.53,4.047,0.044,7.399,1.706,9.964c1.725,2.663,4.2,4.101,7.022,4.101   c0.167,0,0.337-0.01,0.506-0.02c0.17,0.01,0.339,0.02,0.507,0.02c2.822,0,5.297-1.438,7.021-4.101   c1.662-2.564,2.236-5.917,1.707-9.963c-0.175-1.343-0.644-4.092-1.139-7.003c-0.597-3.508-1.274-7.485-1.445-9.071   c-0.226-2.09-0.166-5.021,1.397-7.108c0.751-1.003,2.181-1.603,3.696-2.237c1.28-0.536,2.604-1.091,3.732-1.973   c2.535-1.979,3.67-5.527,3.67-8.165V7C69.146,5.896,68.25,5,67.146,5z M63.014,50.393c-0.707,0.552-1.732,0.981-2.816,1.436   c-1.851,0.776-3.949,1.655-5.352,3.529c-1.854,2.478-2.605,5.913-2.171,9.935c0.184,1.708,0.842,5.574,1.479,9.313   c0.489,2.872,0.951,5.584,1.117,6.851c0.403,3.078,0.034,5.524-1.098,7.27c-1.053,1.625-2.407,2.382-4.015,2.261   c-0.051-0.004-0.1,0.004-0.151,0.004c-0.054,0-0.107-0.008-0.162-0.004c-1.612,0.122-2.962-0.636-4.015-2.261   c-1.131-1.746-1.5-4.191-1.097-7.27c0.166-1.266,0.627-3.979,1.117-6.85c0.636-3.739,1.295-7.605,1.479-9.313   c0.434-4.021-0.317-7.457-2.171-9.935c-1.403-1.874-3.501-2.753-5.352-3.529c-1.084-0.455-2.109-0.884-2.816-1.436   c-1.215-0.949-2.132-3.104-2.132-5.012v-0.165h5.479c1.104,0,2-0.896,2-2s-0.896-2-2-2h-5.479v-2.955h19.521c1.104,0,2-0.896,2-2   s-0.896-2-2-2H34.854V9h4.573v9.459c0,1.104,0.896,2,2,2s2-0.896,2-2V9H48v7.098c0,1.104,0.896,2,2,2s2-0.896,2-2V9h4.573v9.459   c0,1.104,0.896,2,2,2s2-0.896,2-2V9h4.573v25.261h-5.27c-1.104,0-2,0.896-2,2s0.896,2,2,2h5.27v2.955H45.583c-1.104,0-2,0.896-2,2   s0.896,2,2,2h19.562v0.165C65.146,47.289,64.229,49.443,63.014,50.393z"></path><circle cx="50" cy="85.167" r="2.583"></circle></g></svg>