<svg height='100px' width='100px'  fill="#000000" xmlns="http://www.w3.org/2000/svg" xmlns:xlink="http://www.w3.org/1999/xlink" version="1.1" x="0px" y="0px" viewBox="0 0 100 100" style="enable-background:new 0 0 100 100;" xml:space="preserve"><g><path d="M56.434,7.189C55.023,5.777,53.146,5,51.15,5c-1.996,0-3.873,0.777-5.284,2.189l-3.227,3.227l-0.834-0.834   c-3.283-3.283-8.625-3.282-11.909,0l-5.349,5.349c-1.786,1.786-2.77,4.161-2.768,6.688c0.001,2.524,0.984,4.897,2.768,6.681   l18.301,18.301c2.129,2.13,2.129,5.595,0,7.725l-2.953,2.953l-3.723-3.723c-0.922-0.922-2.147-1.43-3.451-1.43   s-2.529,0.508-3.452,1.43c-1.848,1.848-1.885,4.812-0.145,6.726l-15.969,15.97c-0.901-0.821-2.049-1.285-3.276-1.285   c-1.304,0-2.529,0.508-3.451,1.43c-1.903,1.903-1.903,4.999,0,6.903L16.7,93.571C17.623,94.492,18.848,95,20.152,95   s2.529-0.508,3.451-1.43c1.847-1.847,1.885-4.809,0.147-6.723l15.97-15.97c0.9,0.819,2.047,1.282,3.272,1.282   c1.304,0,2.529-0.508,3.452-1.43c1.902-1.904,1.902-5,0-6.903l-3.72-3.72l2.953-2.953c3.689-3.689,3.689-9.692,0-13.381   L27.375,25.472c-1.029-1.029-1.596-2.398-1.596-3.854c-0.001-1.458,0.566-2.827,1.596-3.857l5.349-5.35   c1.723-1.724,4.528-1.724,6.252,0l0.834,0.834l-3.232,3.232c-2.914,2.914-2.914,7.654,0,10.568l36.377,36.377   c1.411,1.412,3.288,2.189,5.284,2.189c1.997,0,3.873-0.777,5.284-2.189l9.288-9.288c2.914-2.914,2.914-7.654,0-10.568L56.434,7.189   z M31.937,63.127l4.939,4.939L20.938,84.002L16,79.064L31.937,63.127z M20.775,90.742C20.55,90.966,20.288,91,20.152,91   s-0.399-0.034-0.624-0.258L9.258,80.472c-0.344-0.344-0.344-0.903,0-1.247c0.225-0.224,0.487-0.258,0.623-0.258   s0.399,0.034,0.624,0.258l10.27,10.271C21.118,89.839,21.118,90.398,20.775,90.742z M43.615,67.902   c-0.225,0.224-0.487,0.258-0.623,0.258s-0.399-0.034-0.624-0.258l-1.219-1.219c-0.01-0.011-0.017-0.024-0.028-0.034   c-0.011-0.011-0.023-0.018-0.034-0.028l-7.706-7.707c-0.01-0.01-0.016-0.022-0.026-0.032s-0.022-0.017-0.032-0.026l-1.224-1.224   c-0.344-0.344-0.344-0.903,0-1.246c0.225-0.225,0.487-0.258,0.624-0.258s0.398,0.034,0.623,0.258l10.271,10.271   C43.958,66.999,43.958,67.558,43.615,67.902z M89.983,51.306l-9.288,9.288c-1.313,1.311-3.599,1.312-4.912,0L39.407,24.216   c-1.354-1.354-1.354-3.558,0-4.912l4.627-4.627c0.007-0.007,0.015-0.011,0.021-0.018s0.011-0.015,0.017-0.021l4.622-4.622   C49.351,9.361,50.223,9,51.15,9c0.927,0,1.799,0.361,2.456,1.017l36.377,36.377C91.337,47.748,91.337,49.952,89.983,51.306z"></path><path d="M66.771,26.884c-0.78-0.781-2.048-0.781-2.828,0c-0.781,0.781-0.781,2.047,0,2.828l3.483,3.483   c0.391,0.39,0.902,0.585,1.414,0.585c0.512,0,1.024-0.195,1.415-0.586c0.781-0.781,0.781-2.048,0-2.829L66.771,26.884z"></path><path d="M74.766,34.879c-0.78-0.781-2.048-0.781-2.828,0c-0.781,0.781-0.781,2.047,0,2.828l11.609,11.609   c0.39,0.391,0.902,0.586,1.414,0.586s1.024-0.195,1.414-0.586c0.781-0.781,0.781-2.047,0-2.828L74.766,34.879z"></path></g></svg>