<svg height='100px' width='100px'  fill="#000000" xmlns="http://www.w3.org/2000/svg" xmlns:xlink="http://www.w3.org/1999/xlink" version="1.1" x="0px" y="0px" viewBox="0 0 100 100" style="enable-background:new 0 0 100 100;" xml:space="preserve"><g><path d="M81.355,77.16h-1.961L56.938,8.967C56.157,6.594,53.953,5,51.455,5h-2.91c-2.498,0-4.702,1.594-5.482,3.967L20.606,77.16   h-1.961c-4.243,0-7.695,3.452-7.695,7.696V93c0,1.104,0.896,2,2,2h74.102c1.104,0,2-0.896,2-2v-8.145   C89.051,80.612,85.599,77.16,81.355,77.16z M44.615,62.406H29.675l2.797-8.494h9.193c1.104,0,2-0.896,2-2s-0.896-2-2-2H33.79   l4.5-13.664h18.389h5.032l4.5,13.664H49c-1.104,0-2,0.896-2,2s0.896,2,2,2h18.527l2.797,8.494H44.615z M46.862,10.218   C47.102,9.489,47.778,9,48.545,9h2.91c0.767,0,1.443,0.489,1.684,1.218l3.141,9.537H55c-1.104,0-2,0.896-2,2s0.896,2,2,2h2.596   l2.797,8.494h-3.715H39.607l2.797-8.494h6.346c1.104,0,2-0.896,2-2s-0.896-2-2-2h-5.029L46.862,10.218z M85.051,91H14.949v-6.145   c0-2.038,1.658-3.696,3.695-3.696H59.58c1.104,0,2-0.896,2-2s-0.896-2-2-2H24.817l3.541-10.754h16.257h27.027l3.541,10.754h-7.848   c-1.104,0-2,0.896-2,2s0.896,2,2,2h10.609c0.001,0,0.002,0,0.003,0c0.001,0,0.002,0,0.003,0h3.406c2.038,0,3.695,1.658,3.695,3.696   V91z"></path></g></svg>