<svg height='100px' width='100px'  fill="#000000" xmlns="http://www.w3.org/2000/svg" xmlns:xlink="http://www.w3.org/1999/xlink" version="1.1" x="0px" y="0px" viewBox="0 0 100 100" style="enable-background:new 0 0 100 100;" xml:space="preserve"><g><path d="M95,65.595c0-3.776-3.072-6.849-6.849-6.849c-0.655,0-1.287,0.098-1.887,0.271l-2.2-3.384   c1.001-1.191,1.606-2.725,1.606-4.399c0-3.677-2.913-6.677-6.552-6.835c-2.304-5.246-6.672-9.205-11.916-11.059   c-0.219-3.462-2.66-6.323-5.914-7.172v-3.183c2.581-0.844,4.453-3.272,4.453-6.131c0-3.558-2.895-6.453-6.453-6.453   c-3.558,0-6.452,2.895-6.452,6.453c0,2.859,1.871,5.287,4.452,6.131v3.184c-3.252,0.849-5.694,3.707-5.914,7.167   c-5.258,1.852-9.63,5.817-11.924,11.07c-3.576,0.224-6.419,3.196-6.419,6.828c0,1.005,0.223,1.957,0.613,2.818l-3.598,3.166   c-1.047-0.65-2.277-1.032-3.597-1.032c-1.107,0-2.15,0.27-3.076,0.738l-2.886-3.122c1.05-1.867,1.247-4.124,0.482-6.15l1.722-3.945   c4.478-0.282,8.526-3.06,10.35-7.239c0-0.001,0-0.001,0.001-0.002l2.569-5.885c0.991-2.271-0.05-4.925-2.32-5.917l-2.502-1.092   c-1.013-0.443-2.191,0.02-2.633,1.033l-1.792,4.105l-3.307,0.374l-1.974-2.679l1.792-4.105c0.442-1.012-0.021-2.191-1.033-2.633   l-2.501-1.092c-1.103-0.482-2.324-0.506-3.44-0.067c-1.117,0.438-1.996,1.286-2.477,2.387l-2.572,5.89   c-0.001,0.002-0.001,0.003-0.001,0.005c-1.819,4.176-1.101,9.026,1.732,12.5L5.459,55.604c-1.215,2.784,0.064,6.039,2.852,7.255   c0.707,0.309,1.456,0.463,2.205,0.463c0.679,0,1.359-0.127,2.01-0.381c1.374-0.537,2.455-1.575,3.043-2.923l1.33-3.046   c0.255-0.102,0.503-0.219,0.745-0.35l2.835,3.067c-0.558,0.991-0.88,2.131-0.88,3.347c0,3.776,3.072,6.849,6.848,6.849   c3.776,0,6.849-3.072,6.849-6.849c0-1.003-0.222-1.953-0.611-2.812l3.601-3.168c0.494,0.306,1.026,0.556,1.593,0.73v14.272   c0,2.976,2.421,5.397,5.397,5.397h3.905v2.399c-3.449,0.892-6.007,4.021-6.007,7.744c0,1.104,0.896,2,2,2   c0.007,0,0.013-0.002,0.019-0.002H55.17c0.007,0,0.013,0.002,0.019,0.002c1.104,0,2-0.896,2-2c0-3.723-2.559-6.852-6.007-7.744   v-2.399h16.2v2.399c-3.449,0.892-6.007,4.021-6.007,7.744c0,1.104,0.896,2,2,2c0.007,0,0.013-0.002,0.019-0.002h11.976   c0.007,0,0.013,0.002,0.019,0.002c1.104,0,2-0.896,2-2c0-3.723-2.559-6.852-6.007-7.744v-2.399h4.04   c2.976,0,5.397-2.421,5.397-5.397V57.983l2.09,3.214c-1.001,1.191-1.607,2.725-1.607,4.399c0,2.513,1.364,4.708,3.387,5.899   l-0.843,2.979c-1.256,0.053-2.482,0.427-3.573,1.117c-1.642,1.04-2.781,2.657-3.207,4.553c-0.242,1.078,0.436,2.147,1.514,2.39   c1.076,0.24,2.147-0.436,2.39-1.514c0.191-0.854,0.704-1.582,1.443-2.05c0.739-0.468,1.614-0.622,2.471-0.428   c0.854,0.191,1.582,0.704,2.05,1.443c0.468,0.739,0.62,1.617,0.429,2.47c-0.242,1.078,0.435,2.148,1.513,2.39   c0.148,0.033,0.295,0.049,0.44,0.049c0.915,0,1.741-0.632,1.949-1.562c0.426-1.896,0.088-3.845-0.952-5.487   c-0.654-1.032-1.536-1.865-2.571-2.447l0.843-2.976C92.159,72.197,95,69.226,95,65.595z M52.633,85.596h-6.902   c0.695-1.193,1.974-2.005,3.451-2.005S51.938,84.403,52.633,85.596z M72.833,85.596h-6.902c0.695-1.193,1.974-2.005,3.451-2.005   S72.139,84.403,72.833,85.596z M91,65.595c0,1.571-1.278,2.849-2.849,2.849s-2.849-1.278-2.849-2.849c0-1,0.52-1.877,1.301-2.385   l0.001,0c0,0,0,0,0,0c0.446-0.29,0.976-0.463,1.547-0.463C89.722,62.747,91,64.024,91,65.595z M81.67,51.234   c0,1.572-1.278,2.85-2.85,2.85c-1.566,0-2.84-1.278-2.84-2.85c0-1.328,0.924-2.487,2.204-2.774   c0.017-0.003,0.034-0.008,0.051-0.012c0.203-0.042,0.395-0.064,0.585-0.064C80.392,48.384,81.67,49.663,81.67,51.234z    M59.287,14.402c1.353,0,2.453,1.1,2.453,2.453c0,1.352-1.1,2.452-2.453,2.452c-1.352,0-2.452-1.1-2.452-2.452   C56.835,15.502,57.935,14.402,59.287,14.402z M59.287,29.904c1.639,0,3.045,1.007,3.638,2.435c-0.806-0.098-1.62-0.164-2.445-0.164   h-2.39c-0.824,0-1.636,0.065-2.441,0.163C56.242,30.911,57.648,29.904,59.287,29.904z M39.88,48.384   c0.172,0,0.338,0.017,0.542,0.058c1.337,0.243,2.308,1.417,2.308,2.792c0,1.572-1.278,2.85-2.85,2.85   c-1.571,0-2.85-1.278-2.85-2.85S38.308,48.384,39.88,48.384z M16.123,41.177c0.433,0.26,0.878,0.503,1.345,0.706   c0.467,0.204,0.947,0.366,1.433,0.507l-4.848,11.103c-0.818-0.026-1.598-0.35-2.192-0.943c-0.161-0.161-0.346-0.281-0.54-0.376   L16.123,41.177z M17.089,22.496c0.068-0.157,0.186-0.23,0.271-0.264c0.086-0.034,0.221-0.06,0.378,0.009l0.669,0.292l-1.454,3.33   c-0.286,0.654-0.201,1.412,0.223,1.987l3.344,4.539c0.379,0.515,0.979,0.813,1.61,0.813c0.075,0,0.15-0.004,0.225-0.013   l5.602-0.633c0.709-0.08,1.323-0.533,1.608-1.187l1.454-3.33l0.668,0.292c0.254,0.111,0.366,0.397,0.255,0.651l-2.571,5.889   c-1.351,3.093-4.517,5.054-7.885,4.853c-0.02-0.001-0.039,0.003-0.059,0.003c-0.056-0.002-0.111,0.005-0.166,0.008   c-0.074,0.005-0.149,0.007-0.221,0.019c-0.033,0.006-0.064,0.014-0.096,0.022c-0.783-0.109-1.547-0.321-2.278-0.641   c-0.731-0.319-1.407-0.735-2.019-1.235c-0.015-0.025-0.027-0.052-0.043-0.077c-0.045-0.07-0.1-0.134-0.155-0.198   c-0.031-0.037-0.06-0.076-0.094-0.111c-0.014-0.014-0.024-0.031-0.038-0.045c-2.428-2.34-3.151-5.991-1.801-9.084   c0,0,0-0.001,0-0.002L17.089,22.496z M11.072,59.215c-0.377,0.148-0.79,0.141-1.16-0.022c-0.371-0.162-0.657-0.458-0.805-0.836   c-0.148-0.376-0.142-0.786,0.019-1.153l0.55-1.261c0.814,0.644,1.742,1.094,2.723,1.339l-0.496,1.135   C11.743,58.785,11.447,59.068,11.072,59.215z M26.448,65.884c-1.57,0-2.848-1.278-2.848-2.849c0-0.784,0.319-1.496,0.834-2.011   c0.001-0.001,0.002-0.001,0.002-0.002c0.001-0.001,0.002-0.002,0.003-0.003c0.516-0.514,1.226-0.833,2.01-0.833   c1.571,0,2.849,1.278,2.849,2.849S28.019,65.884,26.448,65.884z M75.422,73.455H43.277c-0.771,0-1.397-0.627-1.397-1.397v-0.673H48   c0.829,0,1.5-0.671,1.5-1.5c0-0.829-0.671-1.5-1.5-1.5h-6.12V57.785c2.804-0.858,4.85-3.469,4.85-6.551   c0-2.471-1.313-4.672-3.307-5.872c2.722-5.561,8.391-9.189,14.667-9.189h2.39c6.29,0,11.981,3.659,14.703,9.264   c-1.939,1.227-3.203,3.398-3.203,5.796c0,3.081,2.041,5.691,4.84,6.55v10.6H55.75c-0.829,0-1.5,0.671-1.5,1.5   c0,0.829,0.671,1.5,1.5,1.5h21.07v0.673C76.82,72.828,76.193,73.455,75.422,73.455z"></path><circle cx="52.402" cy="46" r="3.836"></circle><circle cx="66.164" cy="46" r="3.836"></circle></g></svg>