<svg fill="#000000" xmlns="http://www.w3.org/2000/svg" xmlns:xlink="http://www.w3.org/1999/xlink" version="1.1" x="0px" y="0px" viewBox="0 0 64 64" style="enable-background:new 0 0 64 64;" xml:space="preserve"><path d="M58.5166,18.2114l-12.728-12.728c-0.3906-0.3906-1.0234-0.3906-1.4141,0L5.4834,44.3745  c-0.3906,0.3906-0.3906,1.0234,0,1.4141l12.728,12.728c0.1953,0.1953,0.4512,0.293,0.707,0.293s0.5117-0.0977,0.707-0.293  l38.8911-38.8911C58.9072,19.2349,58.9072,18.6021,58.5166,18.2114z M18.9185,56.3955l-11.314-11.314L9.7261,42.96l2.8286,2.8286  c0.1953,0.1953,0.4512,0.293,0.707,0.293s0.5117-0.0977,0.707-0.293c0.3906-0.3906,0.3906-1.0234,0-1.4141l-2.8286-2.8286  l2.1216-2.1216l2.8286,2.8286c0.1953,0.1953,0.4512,0.293,0.707,0.293s0.5117-0.0977,0.707-0.293  c0.3906-0.3906,0.3906-1.0234,0-1.4141l-2.8286-2.8286l2.1213-2.1213l2.8284,2.8284c0.1953,0.1953,0.4512,0.293,0.707,0.293  s0.5117-0.0977,0.707-0.293c0.3906-0.3906,0.3906-1.0234,0-1.4141l-2.8284-2.8284l2.1213-2.1213l2.8286,2.8286  c0.1953,0.1953,0.4512,0.293,0.707,0.293s0.5117-0.0977,0.707-0.293c0.3906-0.3906,0.3906-1.0234,0-1.4141l-2.8286-2.8286  l2.1216-2.1216l2.8286,2.8286c0.1953,0.1953,0.4512,0.293,0.707,0.293s0.5117-0.0977,0.707-0.293  c0.3906-0.3906,0.3906-1.0234,0-1.4141l-2.8286-2.8286l2.1216-2.1216l2.8286,2.8286c0.1953,0.1953,0.4512,0.293,0.707,0.293  s0.5117-0.0977,0.707-0.293c0.3906-0.3906,0.3906-1.0234,0-1.4141l-2.8286-2.8286l2.1216-2.1216l2.8286,2.8286  c0.1953,0.1953,0.4512,0.293,0.707,0.293s0.5117-0.0977,0.707-0.293c0.3906-0.3906,0.3906-1.0234,0-1.4141l-2.8286-2.8286  l2.1213-2.1213l2.8284,2.8284c0.1953,0.1953,0.4512,0.293,0.707,0.293s0.5117-0.0977,0.707-0.293  c0.3906-0.3906,0.3906-1.0234,0-1.4141l-2.8284-2.8284l2.1213-2.1213l2.8286,2.8286c0.1953,0.1953,0.4512,0.293,0.707,0.293  s0.5117-0.0977,0.707-0.293c0.3906-0.3906,0.3906-1.0234,0-1.4141l-2.8286-2.8286l2.1216-2.1216l2.8286,2.8286  c0.1953,0.1953,0.4512,0.293,0.707,0.293s0.5117-0.0977,0.707-0.293c0.3906-0.3906,0.3906-1.0234,0-1.4141L42.96,9.7261  l2.1216-2.1216l11.314,11.314L18.9185,56.3955z"></path></svg>