<svg height='100px' width='100px'  fill="#000000" xmlns="http://www.w3.org/2000/svg" xmlns:xlink="http://www.w3.org/1999/xlink" version="1.1" x="0px" y="0px" viewBox="0 0 100 100" style="enable-background:new 0 0 100 100;" xml:space="preserve"><g><path d="M32.289,60.711l0.499,0.5c0.391,0.391,0.902,0.586,1.414,0.586s1.023-0.195,1.414-0.586c0.781-0.781,0.781-2.047,0-2.828   l-0.499-0.5c-0.781-0.781-2.047-0.781-2.828,0S31.508,59.93,32.289,60.711z"></path><path d="M73.055,58.154c0.968,0.535,2.185,0.18,2.717-0.787l18.98-34.468c0.532-0.968,0.181-2.184-0.786-2.717l-15.48-8.533   c-0.465-0.255-1.011-0.316-1.522-0.169c-0.509,0.147-0.939,0.491-1.195,0.956l-4.505,8.18c-0.091,0.105-0.173,0.22-0.242,0.347   c-0.068,0.125-0.121,0.254-0.161,0.384l-4.34,7.882c-0.054,0.073-0.11,0.144-0.155,0.226c-0.044,0.079-0.072,0.162-0.104,0.245   l-4.496,8.165c-0.018,0.029-0.04,0.052-0.056,0.082c-0.016,0.029-0.023,0.059-0.037,0.088l-8.639,15.688L8.414,9.105   c-0.572-0.573-1.432-0.744-2.18-0.434C5.487,8.981,5,9.711,5,10.52V89.48c0,1.104,0.896,2,2,2h78.96   c0.809,0,1.538-0.487,1.848-1.234c0.31-0.748,0.139-1.607-0.434-2.18L68.989,69.682l4.189-7.608   c0.533-0.968,0.181-2.184-0.787-2.717c-0.967-0.534-2.185-0.18-2.717,0.787L59.386,78.828l-11.978-6.602l2.842-5.16   c0.276,0.132,0.567,0.206,0.856,0.206c0.707,0,1.392-0.375,1.755-1.038c0.513-0.933,0.196-2.09-0.695-2.649l2.749-4.991   l3.572,1.959c0.306,0.167,0.635,0.246,0.96,0.246c0.707,0,1.392-0.375,1.756-1.038c0.531-0.969,0.176-2.185-0.792-2.716   l-3.566-1.956l2.742-4.979l3.556,1.95c0.306,0.167,0.635,0.246,0.96,0.246c0.707,0,1.392-0.375,1.756-1.038   c0.531-0.969,0.176-2.185-0.792-2.716l-3.55-1.947l2.742-4.979l3.541,1.942c0.306,0.167,0.635,0.246,0.96,0.246   c0.707,0,1.392-0.375,1.756-1.038c0.531-0.969,0.176-2.185-0.792-2.716l-3.535-1.938l2.742-4.98l3.526,1.933   c0.305,0.167,0.634,0.246,0.959,0.246c0.707,0,1.392-0.375,1.756-1.039c0.531-0.968,0.176-2.184-0.793-2.715l-3.518-1.929   l2.743-4.98l0.945,0.518c0.305,0.167,0.634,0.246,0.959,0.246c0.707,0,1.393-0.375,1.756-1.039   c0.531-0.969,0.176-2.184-0.793-2.715l-0.938-0.514l2.774-5.037l11.978,6.602L72.268,55.438   C71.734,56.405,72.087,57.621,73.055,58.154z M59.207,83.298c0.299,0.164,0.631,0.248,0.966,0.248c0.187,0,0.374-0.026,0.557-0.079   c0.509-0.147,0.939-0.491,1.195-0.956l5.056-9.181L81.132,87.48H9v-4.062c0.968-0.078,1.735-0.839,1.822-1.805   c0.092,1.019,0.939,1.821,1.982,1.821h3.492c1.104,0,2-0.896,2-2s-0.896-2-2-2h-3.492c-1.043,0-1.89,0.802-1.982,1.821   C10.735,80.29,9.968,79.529,9,79.451v-4.506h4.035c1.104,0,2-0.896,2-2s-0.896-2-2-2H9v-4.49h4.035c1.104,0,2-0.896,2-2   s-0.896-2-2-2H9v-4.49h4.035c1.104,0,2-0.896,2-2s-0.896-2-2-2H9v-4.49h4.035c1.104,0,2-0.896,2-2s-0.896-2-2-2H9v-4.49h1.344   c1.104,0,2-0.896,2-2s-0.896-2-2-2H9v-4.491h4.035c1.104,0,2-0.896,2-2s-0.896-2-2-2H9V15.348l42.023,42.023l-5.832,10.59   l-5.492-5.493c-0.781-0.781-2.047-0.781-2.828,0c-0.781,0.78-0.781,2.047,0,2.828l4.432,4.435H26.75V55.17l1.955,1.957   c0.781,0.781,2.048,0.78,2.829,0.001c0.781-0.781,0.781-2.048,0.001-2.829l-5.371-5.373c-0.571-0.573-1.433-0.744-2.18-0.434   c-0.747,0.31-1.234,1.039-1.234,1.848V71.73c0,1.104,0.896,2,2,2h18.085c0.163,0.424,0.463,0.798,0.891,1.034L59.207,83.298z"></path><path d="M58.618,67.109l-2.228-1.223c-0.971-0.531-2.185-0.177-2.716,0.792s-0.176,2.185,0.792,2.716l2.228,1.221   c0.305,0.168,0.635,0.247,0.96,0.247c0.707,0,1.392-0.375,1.755-1.038C59.941,68.856,59.587,67.641,58.618,67.109z"></path><path d="M79.977,28.154c0.305,0.167,0.634,0.246,0.959,0.246c0.707,0,1.393-0.375,1.756-1.039c0.531-0.969,0.176-2.184-0.793-2.715   l-1.427-0.782c-0.967-0.532-2.185-0.178-2.715,0.791c-0.532,0.968-0.178,2.184,0.791,2.715L79.977,28.154z"></path><path d="M16.296,36.983H14.67c-1.104,0-2,0.896-2,2s0.896,2,2,2h1.626c1.104,0,2-0.896,2-2S17.4,36.983,16.296,36.983z"></path></g></svg>