<svg height='100px' width='100px'  fill="#000000" xmlns="http://www.w3.org/2000/svg" xmlns:xlink="http://www.w3.org/1999/xlink" version="1.1" x="0px" y="0px" viewBox="0 0 100 100" style="enable-background:new 0 0 100 100;" xml:space="preserve"><g><path d="M26.086,95.5h9.325c3.217,0,5.833-2.617,5.833-5.833V62.181c0-2.137-1.158-4.004-2.877-5.02v-1.692   c0-1.871-1.08-3.478-2.639-4.281v-29.07c0-0.503,0.188-0.984,0.528-1.355c1.401-1.529,1.918-3.718,1.347-5.71L34.998,5.95   c-0.246-0.858-1.03-1.45-1.923-1.45h-0.541h-3.571h-0.541c-0.893,0-1.677,0.591-1.923,1.45l-2.605,9.101   c-0.571,1.993-0.055,4.182,1.348,5.711c0.34,0.371,0.527,0.852,0.527,1.355v29.07c-1.558,0.803-2.638,2.411-2.638,4.281v1.692   c-1.719,1.016-2.878,2.883-2.878,5.021v27.485C20.253,92.883,22.869,95.5,26.086,95.5z M37.244,89.667   c0,0.902-0.656,1.65-1.516,1.801V75.25c0-1.104-0.896-2-2-2s-2,0.896-2,2V91.5h-1.96v-4.667c0-1.104-0.896-2-2-2s-2,0.896-2,2   v4.634c-0.859-0.151-1.516-0.899-1.516-1.801V62.181c0-1.011,0.822-1.833,1.833-1.833h3.352c1.104,0,2-0.896,2-2s-0.896-2-2-2   h-2.307v-0.879c0-0.455,0.368-0.824,0.821-0.831h5.593c0.454,0.007,0.822,0.376,0.822,0.831v0.895   c-1.026,0.085-1.836,0.935-1.836,1.983c0,1.104,0.896,2,2,2h0.88c1.011,0,1.833,0.822,1.833,1.833V89.667z M31.567,8.5l2.19,7.652   c0.19,0.665,0.019,1.396-0.449,1.906c-1.019,1.111-1.58,2.552-1.58,4.059v28.518h-1.96V22.117c0-1.507-0.562-2.948-1.579-4.059   c-0.469-0.511-0.641-1.241-0.45-1.907L29.93,8.5H31.567z"></path><path d="M30.749,62.155c-2.608,0-4.73,2.022-4.94,4.577c-0.027,0.13-0.041,0.265-0.041,0.404v14.948c0,1.104,0.896,2,2,2   s2-0.896,2-2V67.136c0-0.541,0.439-0.98,0.98-0.98c0.54,0,0.979,0.44,0.979,0.98v3.198c0,1.104,0.896,2,2,2s2-0.896,2-2v-3.198   c0-0.138-0.014-0.273-0.041-0.404C35.479,64.177,33.357,62.155,30.749,62.155z"></path><path d="M49.04,81.59c0,5.813,3.222,11.06,8.408,13.693c0.017,0.009,0.035,0.011,0.052,0.019c0.097,0.046,0.199,0.082,0.305,0.112   c0.039,0.011,0.076,0.027,0.116,0.036c0.125,0.028,0.255,0.042,0.388,0.045c0.014,0,0.029,0.005,0.043,0.005   c0.003,0,0.005-0.001,0.008-0.001c0.166-0.001,0.325-0.027,0.479-0.065c0.042-0.011,0.082-0.025,0.123-0.038   c0.123-0.039,0.24-0.09,0.351-0.151c0.035-0.019,0.071-0.035,0.104-0.057c0.136-0.086,0.262-0.186,0.374-0.302   c0.022-0.023,0.04-0.05,0.061-0.074c0.094-0.107,0.175-0.223,0.244-0.349c0.012-0.021,0.03-0.037,0.041-0.059   c0.01-0.019,0.014-0.04,0.023-0.059c0.031-0.066,0.055-0.135,0.079-0.205c0.02-0.059,0.04-0.117,0.055-0.176   c0.015-0.061,0.023-0.123,0.032-0.187c0.01-0.072,0.019-0.142,0.022-0.214c0.001-0.022,0.007-0.042,0.007-0.065v-7.997   c0-1.125,0.913-2.042,2.035-2.042h4.01c1.122,0,2.035,0.916,2.035,2.042V93.5c0,0.022,0.006,0.042,0.006,0.064   c0.002,0.071,0.011,0.141,0.021,0.212c0.009,0.063,0.017,0.126,0.032,0.188c0.014,0.059,0.035,0.117,0.054,0.175   c0.024,0.07,0.048,0.139,0.079,0.206c0.009,0.019,0.013,0.039,0.022,0.058c0.011,0.022,0.029,0.037,0.041,0.059   c0.07,0.126,0.151,0.243,0.245,0.35c0.021,0.024,0.039,0.05,0.06,0.073c0.112,0.116,0.238,0.216,0.375,0.303   c0.033,0.021,0.068,0.037,0.103,0.056c0.112,0.062,0.229,0.112,0.353,0.152c0.041,0.013,0.081,0.027,0.122,0.038   c0.154,0.039,0.313,0.065,0.479,0.066c0.003,0,0.005,0.001,0.008,0.001c0.015,0,0.03-0.005,0.044-0.005   c0.132-0.003,0.261-0.017,0.385-0.045c0.04-0.009,0.079-0.025,0.119-0.037c0.104-0.03,0.205-0.065,0.301-0.11   c0.017-0.008,0.035-0.01,0.052-0.019c5.188-2.626,8.41-7.874,8.41-13.694c0-5.732-3.165-10.915-8.162-13.562V31.972   c4.997-2.647,8.162-7.83,8.162-13.562c0-5.82-3.223-11.067-8.41-13.694c-0.019-0.01-0.039-0.014-0.058-0.023   c-0.066-0.031-0.134-0.055-0.203-0.078c-0.06-0.02-0.118-0.041-0.179-0.055c-0.06-0.014-0.121-0.022-0.183-0.031   c-0.073-0.01-0.144-0.02-0.217-0.022C70.475,4.506,70.455,4.5,70.434,4.5c-0.039,0-0.075,0.009-0.114,0.011   c-0.072,0.004-0.142,0.01-0.212,0.021c-0.065,0.011-0.127,0.026-0.189,0.043c-0.061,0.016-0.12,0.034-0.179,0.056   c-0.064,0.024-0.125,0.051-0.186,0.081c-0.055,0.027-0.109,0.055-0.161,0.087c-0.057,0.035-0.11,0.072-0.163,0.112   c-0.05,0.038-0.099,0.077-0.146,0.12c-0.049,0.045-0.094,0.093-0.139,0.143c-0.041,0.046-0.081,0.092-0.118,0.143   c-0.043,0.059-0.081,0.121-0.118,0.184c-0.019,0.033-0.043,0.06-0.06,0.094c-0.01,0.019-0.013,0.039-0.022,0.058   c-0.031,0.066-0.055,0.135-0.079,0.206c-0.02,0.058-0.04,0.116-0.054,0.175c-0.015,0.061-0.023,0.124-0.032,0.188   c-0.01,0.071-0.019,0.141-0.021,0.212c-0.001,0.022-0.006,0.042-0.006,0.064v7.997c0,1.125-0.913,2.042-2.035,2.042h-4.01   c-1.122,0-2.035-0.916-2.035-2.042V6.5c0-0.022-0.006-0.043-0.007-0.065c-0.002-0.072-0.011-0.142-0.022-0.214   c-0.009-0.063-0.017-0.126-0.032-0.187c-0.014-0.059-0.035-0.117-0.055-0.176c-0.024-0.07-0.048-0.139-0.079-0.205   c-0.009-0.019-0.013-0.04-0.023-0.059c-0.017-0.034-0.041-0.061-0.06-0.094c-0.037-0.063-0.074-0.124-0.117-0.183   c-0.038-0.051-0.078-0.099-0.12-0.146c-0.043-0.048-0.087-0.095-0.135-0.139c-0.049-0.045-0.1-0.086-0.152-0.126   c-0.05-0.038-0.101-0.073-0.154-0.106c-0.056-0.034-0.113-0.065-0.172-0.093c-0.057-0.028-0.114-0.054-0.174-0.076   c-0.063-0.024-0.127-0.042-0.192-0.06c-0.058-0.015-0.117-0.03-0.177-0.04c-0.074-0.012-0.148-0.018-0.223-0.023   C58.424,4.509,58.39,4.5,58.354,4.5c-0.021,0-0.04,0.006-0.061,0.006c-0.074,0.002-0.148,0.012-0.223,0.022   c-0.061,0.009-0.121,0.017-0.179,0.031c-0.061,0.015-0.12,0.035-0.18,0.056c-0.069,0.024-0.137,0.048-0.203,0.079   c-0.02,0.009-0.04,0.013-0.059,0.023C52.262,7.35,49.04,12.596,49.04,18.41c0,5.734,3.167,10.92,8.168,13.568v36.045   C52.207,70.671,49.04,75.856,49.04,81.59z M53.04,18.41c0-3.065,1.228-5.902,3.313-7.993v4.08c0,3.332,2.707,6.042,6.035,6.042   h4.01c3.328,0,6.035-2.71,6.035-6.042v-4.084c2.085,2.089,3.313,4.927,3.313,7.997c0,4.469-2.602,8.484-6.65,10.329   c-0.074-0.008-0.146-0.022-0.222-0.022c-0.002,0-0.004,0-0.006,0l-2,0.006c-1.104,0.003-1.997,0.901-1.994,2.006   c0.003,1.103,0.898,1.994,2,1.994c0.002,0,0.004,0,0.006,0l0.704-0.002v36.556c0,0.136,0.013,0.271,0.04,0.403   c0.011,0.053,0.031,0.102,0.046,0.154c0.021,0.072,0.038,0.146,0.067,0.215c0.024,0.059,0.058,0.112,0.087,0.167   c0.031,0.059,0.058,0.119,0.095,0.174c0.032,0.048,0.072,0.09,0.108,0.135c0.044,0.056,0.086,0.114,0.136,0.165   c0.044,0.045,0.096,0.082,0.145,0.122c0.05,0.042,0.097,0.088,0.152,0.125c0.109,0.075,0.226,0.139,0.35,0.191   c4.214,1.782,6.937,5.888,6.937,10.463c0,3.069-1.228,5.908-3.313,7.997v-4.084c0-3.332-2.707-6.042-6.035-6.042h-4.01   c-3.328,0-6.035,2.71-6.035,6.042v4.08c-2.085-2.091-3.313-4.928-3.313-7.993c0-4.506,2.645-8.554,6.753-10.38   c0.16,0.041,0.325,0.07,0.498,0.07c0.002,0,0.004,0,0.006,0l2-0.006c1.104-0.003,1.997-0.901,1.994-2.006   c-0.003-1.103-0.898-1.994-2-1.994c-0.002,0-0.004,0-0.006,0l-1.077,0.003V30.731c0-0.136-0.013-0.271-0.04-0.403   c-0.011-0.053-0.031-0.102-0.046-0.154c-0.021-0.072-0.038-0.146-0.067-0.215c-0.024-0.059-0.058-0.112-0.087-0.167   c-0.031-0.059-0.058-0.119-0.095-0.174c-0.032-0.048-0.071-0.089-0.107-0.134c-0.045-0.056-0.086-0.115-0.137-0.166   c-0.044-0.044-0.095-0.081-0.143-0.121c-0.051-0.043-0.098-0.089-0.153-0.126c-0.109-0.075-0.226-0.139-0.35-0.191   C55.765,27.095,53.04,22.986,53.04,18.41z"></path></g></svg>