<svg height='100px' width='100px'  fill="#000000" xmlns="http://www.w3.org/2000/svg" xmlns:xlink="http://www.w3.org/1999/xlink" version="1.1" x="0px" y="0px" viewBox="0 0 100 100" style="enable-background:new 0 0 100 100;" xml:space="preserve"><g><path d="M26.164,36.329c-0.811,0.751-0.858,2.017-0.107,2.827c0.749,0.81,2.016,0.857,2.826,0.108   c5.787-5.363,14.693-5.189,20.275,0.394c3.659,3.659,5.118,9.046,3.808,14.059c-0.279,1.069,0.36,2.162,1.429,2.441   c0.17,0.044,0.34,0.065,0.507,0.065c0.888,0,1.699-0.596,1.934-1.495c1.669-6.382-0.189-13.241-4.849-17.899   C44.879,29.721,33.535,29.5,26.164,36.329z"></path><path d="M53.369,58.294c-0.887-0.658-2.139-0.473-2.798,0.413c-0.427,0.574-0.901,1.124-1.413,1.635   c-5.703,5.704-14.981,5.702-20.685,0c-4.419-4.418-5.545-11.156-2.803-16.767c0.485-0.993,0.074-2.19-0.919-2.675   c-0.992-0.487-2.19-0.073-2.675,0.918c-3.492,7.145-2.059,15.726,3.568,21.352c3.632,3.632,8.4,5.447,13.171,5.447   c4.769,0,9.539-1.815,13.17-5.446c0.648-0.648,1.253-1.348,1.796-2.079C54.44,60.206,54.256,58.953,53.369,58.294z"></path><path d="M88.719,37.27c-0.781-0.781-2.047-0.781-2.828,0l-9.902,9.902L49.373,20.557c-2.82-2.82-6.569-4.373-10.557-4.373   c-3.988,0-7.737,1.553-10.558,4.373L9.373,39.443c-5.821,5.821-5.821,15.293,0,21.114l18.886,18.886   c2.82,2.82,6.569,4.373,10.558,4.373c3.987,0,7.736-1.553,10.557-4.373l28.029-28.029l9.902-9.902l4.281,4.282   c0.391,0.391,0.902,0.586,1.414,0.586s1.023-0.195,1.414-0.586c0.781-0.781,0.781-2.047,0-2.828L88.719,37.27z M46.545,76.615   c-2.064,2.064-4.81,3.201-7.729,3.201c-2.92,0-5.665-1.137-7.729-3.201L12.201,57.729c-4.262-4.262-4.262-11.196,0-15.458   l18.886-18.886c2.064-2.064,4.81-3.201,7.729-3.201c2.919,0,5.664,1.137,7.729,3.201L73.16,50L46.545,76.615z"></path></g></svg>