<svg height='100px' width='100px'  fill="#000000" xmlns="http://www.w3.org/2000/svg" xmlns:xlink="http://www.w3.org/1999/xlink" version="1.1" x="0px" y="0px" viewBox="0 0 100 100" style="enable-background:new 0 0 100 100;" xml:space="preserve"><g><path d="M89.079,10.997c-4.672-5.77-12.254-7.549-17.78-4.501L70.73,5.792c-0.695-0.859-1.955-0.99-2.813-0.295L43.492,25.274   c-3.326,2.693-4.202,7.305-2.333,10.974l-8.406,6.803l-1.671-2.237l4.807-3.591c0.885-0.661,1.066-1.914,0.405-2.799   c-0.661-0.884-1.915-1.066-2.799-0.405L22.813,42c-0.885,0.661-1.066,1.914-0.405,2.799c0.393,0.525,0.994,0.803,1.604,0.803   c0.417,0,0.836-0.129,1.196-0.398l2.67-1.995l1.764,2.361l-2.712,2.195c-3.746,3.032-4.432,8.453-1.659,12.324l-12.223,9.896   l-2.255-2.785c-0.695-0.858-1.955-0.99-2.813-0.295c-0.858,0.695-0.991,1.955-0.295,2.813l7.027,8.678   c0.395,0.488,0.973,0.741,1.555,0.741c0.442,0,0.887-0.146,1.258-0.446c0.858-0.695,0.991-1.955,0.295-2.813l-2.255-2.785   l12.228-9.901c1.754,1.917,4.219,2.951,6.718,2.951c0.571,0,1.141-0.072,1.707-0.181l-3.368,8.022   c-0.001,0.003-0.002,0.006-0.004,0.008l-7.653,18.232c-0.427,1.018,0.052,2.19,1.07,2.618C26.516,94.95,26.779,95,27.037,95   c0.781,0,1.524-0.461,1.845-1.227l7.139-17.005h16.112l6.954,16.989C59.403,94.532,60.15,95,60.938,95   c0.252,0,0.509-0.048,0.757-0.149c1.022-0.418,1.512-1.586,1.093-2.609l-7.21-17.616c-0.031-0.438-0.202-0.834-0.47-1.149   l-3.663-8.95c1.274-1.617,2.042-3.651,2.042-5.865c0-1.591-0.398-3.089-1.092-4.407l2.019-1.635   c1.326,1.077,2.934,1.753,4.673,1.936c0.318,0.033,0.634,0.05,0.95,0.05c2.034,0,3.992-0.69,5.595-1.988l24.425-19.778   c0.858-0.695,0.991-1.954,0.295-2.813l-0.569-0.703C93.913,24.553,93.751,16.767,89.079,10.997z M85.971,13.514   c3.251,4.015,3.65,9.262,1.241,12.634L73.871,9.671C77.669,8.017,82.719,9.498,85.971,13.514z M37.7,72.769l2.302-5.483   c1.215,0.559,2.562,0.876,3.985,0.876c1.515,0,2.943-0.366,4.215-0.999l2.294,5.606H37.7z M63.115,49.508   c-1.021,0.827-2.305,1.206-3.609,1.069c-1.307-0.137-2.481-0.775-3.308-1.797l-2.263-2.794c-0.696-0.858-1.956-0.99-2.813-0.296   c-0.858,0.695-0.991,1.955-0.296,2.813l0.917,1.133l-1.915,1.55c-1.613-1.263-3.638-2.024-5.841-2.024   c-3.325,0-6.352,1.692-8.096,4.527c-0.579,0.94-0.285,2.172,0.656,2.751c0.94,0.576,2.172,0.285,2.751-0.656   c1.01-1.643,2.764-2.623,4.689-2.623c3.033,0,5.5,2.467,5.5,5.5s-2.467,5.5-5.5,5.5c-1.387,0-2.654-0.514-3.625-1.363   c-0.031-0.026-0.06-0.054-0.093-0.078c-0.963-0.881-1.614-2.104-1.754-3.499c-0.111-1.1-1.097-1.902-2.19-1.789   c-1.099,0.111-1.9,1.091-1.789,2.19c0.088,0.869,0.293,1.697,0.593,2.475c-1.696,0.212-3.46-0.428-4.587-1.818l-1.848-2.277   c-1.757-2.173-1.419-5.37,0.753-7.128l14.076-11.393l3.4,4.2c0.695,0.859,1.955,0.99,2.813,0.296   c0.859-0.695,0.991-1.954,0.296-2.813l-4.749-5.866c-1.706-2.107-1.38-5.209,0.728-6.916L68.88,9.864l16.658,20.572   c0,0.001,0.001,0.001,0.001,0.002c0,0.001,0.001,0.001,0.001,0.001l0.445,0.549L63.115,49.508z"></path><path d="M56.916,23l-4.937,3.842c-0.872,0.679-1.029,1.935-0.351,2.807c0.395,0.507,0.984,0.772,1.58,0.772   c0.429,0,0.862-0.138,1.227-0.421l4.937-3.842c0.872-0.679,1.029-1.935,0.351-2.807C59.044,22.479,57.787,22.322,56.916,23z"></path><path d="M63.901,17.188l-2.419,1.959c-0.858,0.695-0.991,1.954-0.295,2.813c0.395,0.488,0.973,0.741,1.556,0.741   c0.442,0,0.887-0.146,1.257-0.446l2.419-1.959c0.858-0.695,0.991-1.954,0.295-2.813C66.02,16.625,64.76,16.493,63.901,17.188z"></path></g></svg>