<svg height='100px' width='100px'  fill="#000000" xmlns="http://www.w3.org/2000/svg" xmlns:xlink="http://www.w3.org/1999/xlink" viewBox="0 0 60 60" version="1.1" x="0px" y="0px"><title>Tools - Outline - 062 - Toolbox</title><desc>Created with Sketch.</desc><g stroke="none" stroke-width="1" fill="none" fill-rule="evenodd"><g fill-rule="nonzero" fill="#000000"><path d="M57,60 L3,60 C1.34389511,59.9981923 0.00180771165,58.6561049 0,57 L0,32 C0.00180771165,30.3438951 1.34389511,29.0018077 3,29 L57,29 C58.6561049,29.0018077 59.9981923,30.3438951 60,32 L60,57 C59.9981923,58.6561049 58.6561049,59.9981923 57,60 L57,60 Z M3,31 C2.44794374,31.0005512 2.00055123,31.4479437 2,32 L2,57 C2.00055123,57.5520563 2.44794374,57.9994488 3,58 L57,58 C57.5520563,57.9994488 57.9994488,57.5520563 58,57 L58,32 C57.9994488,31.4479437 57.5520563,31.0005512 57,31 L3,31 Z"></path><path d="M57,31 L3,31 C2.73476237,31.000069 2.48036837,30.8947343 2.29281703,30.707183 C2.1052657,30.5196316 1.99993101,30.2652376 2,30 L2,7 C2.00180771,5.34389511 3.34389511,4.00180771 5,4 L55,4 C56.6561049,4.00180771 57.9981923,5.34389511 58,7 L58,30 C58.000069,30.2652376 57.8947343,30.5196316 57.707183,30.707183 C57.5196316,30.8947343 57.2652376,31.000069 57,31 Z M4,29 L56,29 L56,7 C55.9994488,6.44794374 55.5520563,6.00055123 55,6 L5,6 C4.44794374,6.00055123 4.00055123,6.44794374 4,7 L4,29 Z"></path><path d="M53,31 L7,31 C6.73476237,31.000069 6.48036837,30.8947343 6.29281703,30.707183 C6.1052657,30.5196316 5.99993101,30.2652376 6,30 L6,9 C5.99993101,8.73476237 6.1052657,8.48036837 6.29281703,8.29281703 C6.48036837,8.1052657 6.73476237,7.99993101 7,8 L53,8 C53.2652376,7.99993101 53.5196316,8.1052657 53.707183,8.29281703 C53.8947343,8.48036837 54.000069,8.73476237 54,9 L54,30 C54.000069,30.2652376 53.8947343,30.5196316 53.707183,30.707183 C53.5196316,30.8947343 53.2652376,31.000069 53,31 L53,31 Z M8,29 L52,29 L52,10 L8,10 L8,29 Z"></path><path d="M35,6 L25,6 C24.7347624,6.00006899 24.4803684,5.8947343 24.292817,5.70718297 C24.1052657,5.51963163 23.999931,5.26523763 24,5 L24,3 C24.0018077,1.34389511 25.3438951,0.00180771165 27,-8.8817842e-16 L33,-8.8817842e-16 C34.6561049,0.00180771165 35.9981923,1.34389511 36,3 L36,5 C36.000069,5.26523763 35.8947343,5.51963163 35.707183,5.70718297 C35.5196316,5.8947343 35.2652376,6.00006899 35,6 Z M26,4 L34,4 L34,3 C33.9994488,2.44794374 33.5520563,2.00055123 33,2 L27,2 C26.4479437,2.00055123 26.0005512,2.44794374 26,3 L26,4 Z"></path><path d="M13,6 L7,6 C6.73476237,6.00006899 6.48036837,5.8947343 6.29281703,5.70718297 C6.1052657,5.51963163 5.99993101,5.26523763 6,5 L6,3 C6.00180771,1.34389511 7.34389511,0.00180771165 9,0 L11,0 C12.6561049,0.00180771165 13.9981923,1.34389511 14,3 L14,5 C14.000069,5.26523763 13.8947343,5.51963163 13.707183,5.70718297 C13.5196316,5.8947343 13.2652376,6.00006899 13,6 Z M8,4 L12,4 L12,3 C11.9994488,2.44794374 11.5520563,2.00055123 11,2 L9,2 C8.44794374,2.00055123 8.00055123,2.44794374 8,3 L8,4 Z"></path><path d="M53,6 L47,6 C46.7347624,6.00006899 46.4803684,5.8947343 46.292817,5.70718297 C46.1052657,5.51963163 45.999931,5.26523763 46,5 L46,3 C46.0018077,1.34389511 47.3438951,0.00180771165 49,0 L51,0 C52.6561049,0.00180771165 53.9981923,1.34389511 54,3 L54,5 C54.000069,5.26523763 53.8947343,5.51963163 53.707183,5.70718297 C53.5196316,5.8947343 53.2652376,6.00006899 53,6 Z M48,4 L52,4 L52,3 C51.9994488,2.44794374 51.5520563,2.00055123 51,2 L49,2 C48.4479437,2.00055123 48.0005512,2.44794374 48,3 L48,4 Z"></path><path d="M11,49 L9,49 C7.34389511,48.9981923 6.00180771,47.6561049 6,46 L6,30 C5.99993101,29.7347624 6.1052657,29.4803684 6.29281703,29.292817 C6.48036837,29.1052657 6.73476237,28.999931 7,29 L13,29 C13.2652376,28.999931 13.5196316,29.1052657 13.707183,29.292817 C13.8947343,29.4803684 14.000069,29.7347624 14,30 L14,46 C13.9981923,47.6561049 12.6561049,48.9981923 11,49 Z M8,31 L8,46 C8.00055123,46.5520563 8.44794374,46.9994488 9,47 L11,47 C11.5520563,46.9994488 11.9994488,46.5520563 12,46 L12,31 L8,31 Z"></path><path d="M13,42 L7,42 C6.44771525,42 6,41.5522847 6,41 C6,40.4477153 6.44771525,40 7,40 L13,40 C13.5522847,40 14,40.4477153 14,41 C14,41.5522847 13.5522847,42 13,42 Z"></path><path d="M13,38 L7,38 C6.44771525,38 6,37.5522847 6,37 C6,36.4477153 6.44771525,36 7,36 L13,36 C13.5522847,36 14,36.4477153 14,37 C14,37.5522847 13.5522847,38 13,38 Z"></path><path d="M51,49 L49,49 C47.3438951,48.9981923 46.0018077,47.6561049 46,46 L46,30 C45.999931,29.7347624 46.1052657,29.4803684 46.292817,29.292817 C46.4803684,29.1052657 46.7347624,28.999931 47,29 L53,29 C53.2652376,28.999931 53.5196316,29.1052657 53.707183,29.292817 C53.8947343,29.4803684 54.000069,29.7347624 54,30 L54,46 C53.9981923,47.6561049 52.6561049,48.9981923 51,49 Z M48,31 L48,46 C48.0005512,46.5520563 48.4479437,46.9994488 49,47 L51,47 C51.5520563,46.9994488 51.9994488,46.5520563 52,46 L52,31 L48,31 Z"></path><path d="M53,42 L47,42 C46.4477153,42 46,41.5522847 46,41 C46,40.4477153 46.4477153,40 47,40 L53,40 C53.5522847,40 54,40.4477153 54,41 C54,41.5522847 53.5522847,42 53,42 Z"></path><path d="M53,38 L47,38 C46.4477153,38 46,37.5522847 46,37 C46,36.4477153 46.4477153,36 47,36 L53,36 C53.5522847,36 54,36.4477153 54,37 C54,37.5522847 53.5522847,38 53,38 Z"></path><path d="M33,42 L27,42 C25.3438951,41.9981923 24.0018077,40.6561049 24,39 L24,30 C23.999931,29.7347624 24.1052657,29.4803684 24.292817,29.292817 C24.4803684,29.1052657 24.7347624,28.999931 25,29 L35,29 C35.2652376,28.999931 35.5196316,29.1052657 35.707183,29.292817 C35.8947343,29.4803684 36.000069,29.7347624 36,30 L36,39 C35.9981923,40.6561049 34.6561049,41.9981923 33,42 Z M26,31 L26,39 C26.0005512,39.5520563 26.4479437,39.9994488 27,40 L33,40 C33.5520563,39.9994488 33.9994488,39.5520563 34,39 L34,31 L26,31 Z"></path><path d="M43.67822,26.1709 C42.6977377,26.1696987 41.7280819,25.9658938 40.83008,25.57227 C40.3236349,25.3514113 40.0921214,24.7618151 40.31298,24.25537 C40.5338387,23.7489249 41.1234349,23.5174113 41.62988,23.73827 C42.9138207,24.2953627 44.3705327,24.2990346 45.6572654,23.7484215 C46.9439982,23.1978084 47.9471396,22.1415269 48.43066,20.82811 L46.145,22.14355 C44.8313412,22.8976336 43.1551331,22.4448168 42.39988,21.13183 L41.39549,19.38867 C40.6506508,18.0766794 41.098402,16.4096831 42.40037,15.64746 L44.9785,14.16992 C43.2254013,13.6988577 41.3541721,14.1991542 40.0700694,15.4822502 C38.7859667,16.7653461 38.2842028,18.6361823 38.75389,20.38965 C38.8979162,20.9225975 38.5828965,21.4714525 38.0500667,21.6159132 C37.5172368,21.7603739 36.9681251,21.4458019 36.82323,20.91309 C36.0501641,18.0428556 37.1544102,14.9955526 39.5867374,13.2868511 C42.0190646,11.5781496 45.260266,11.5727908 47.69823,13.27344 C47.9786228,13.4697495 48.1390937,13.7958618 48.1235539,14.1377917 C48.108014,14.4797216 47.9186237,14.7899335 47.62158,14.96 L43.40137,17.378 C43.0500538,17.5861475 42.9294567,18.0368762 43.12989,18.39265 L44.13428,20.13581 C44.23237,20.3069704 44.3945819,20.4320234 44.5850677,20.483333 C44.7755536,20.5346426 44.9786306,20.5079845 45.14942,20.40925 L49.23142,18.05964 C49.5356381,17.8842507 49.9095696,17.881327 50.2164931,18.0519379 C50.5234165,18.2225488 50.7183274,18.5416774 50.72996,18.89264 C50.7814229,20.7990448 50.0623936,22.6457392 48.7353569,24.0154112 C47.4083201,25.3850831 45.5852789,26.1621313 43.6782,26.17096 L43.67822,26.1709 Z"></path><path d="M29.90967,31 C29.5207028,30.999837 29.1671217,30.7741416 29.0032123,30.4213964 C28.839303,30.0686511 28.8948089,29.6528661 29.14551,29.35547 L37.02539,20.00586 C37.3813541,19.5835555 38.0122655,19.5297759 38.43457,19.88574 C38.8568745,20.2417041 38.9106541,20.8726155 38.55469,21.29492 L30.6748,30.64453 C30.4847868,30.8702249 30.2047006,31.0003495 29.90967,31 L29.90967,31 Z"></path><path d="M36.72949,31 C36.3405228,30.999837 35.9869417,30.7741416 35.8230323,30.4213964 C35.659123,30.0686511 35.7146289,29.6528661 35.96533,29.35547 L40.46533,24.01563 C40.8212941,23.5933255 41.4522055,23.5395459 41.87451,23.89551 C42.2968145,24.2514741 42.3505941,24.8823855 41.99463,25.30469 L37.49463,30.64453 C37.3046146,30.8702276 37.0245241,31.0003524 36.72949,31 L36.72949,31 Z"></path><path d="M15.91113,31 C15.5659408,31.0006546 15.2448763,30.8230429 15.06201,30.53027 L10.76172,23.65039 C9.81192232,22.1363861 9.7427345,20.230473 10.5802551,18.6515865 C11.4177758,17.0727 13.0345546,16.0611082 14.8207211,15.998397 C16.6068876,15.9356858 18.2906307,16.8313984 19.23682,18.34766 L26.188,29.46973 C26.4808628,29.9381475 26.3385475,30.5552872 25.87013,30.84815 C25.4017124,31.1410128 24.7845728,30.9986975 24.49171,30.53028 L17.542,19.41016 C16.6457238,18.030236 14.8165402,17.6098266 13.40772,18.45996 C12.0068848,19.3394207 11.5818846,21.1866105 12.45752,22.58984 L16.7583,29.46972 C16.9507649,29.7779182 16.9609845,30.1662431 16.7849965,30.4841379 C16.6090085,30.8020327 16.2744875,30.9995076 15.91113,31 Z"></path><path d="M20.63086,31 C20.2858049,31.0006408 19.9648935,30.8230113 19.78223,30.53027 L15.40235,23.53027 C15.21158,23.2273949 15.1972708,22.8456456 15.3648318,22.5293391 C15.5323928,22.2130325 15.8562586,22.010429 16.2139946,21.9981208 C16.5717306,21.9858127 16.9087555,22.1656779 17.09766,22.46972 L21.47754,29.46972 C21.6701842,29.7778094 21.6805638,30.166148 21.5046525,30.4840883 C21.3287411,30.8020286 20.9942202,30.9995391 20.63086,31 L20.63086,31 Z"></path></g></g></svg>