<svg height='100px' width='100px'  fill="#000000" xmlns="http://www.w3.org/2000/svg" xmlns:xlink="http://www.w3.org/1999/xlink" version="1.1" x="0px" y="0px" viewBox="0 0 100 100" style="enable-background:new 0 0 100 100;" xml:space="preserve"><g><path d="M77.288,77.787c0.057-0.061,0.108-0.126,0.153-0.195c0.005-0.008,0.01-0.016,0.015-0.024   c0.047-0.075,0.087-0.153,0.12-0.235c0.002-0.005,0.004-0.011,0.006-0.016c0.033-0.085,0.058-0.171,0.075-0.26   c0.001-0.005,0.002-0.01,0.003-0.015c0.016-0.09,0.025-0.18,0.024-0.272c0-0.006,0-0.011,0-0.017   c-0.001-0.092-0.011-0.184-0.03-0.275c-0.001-0.006-0.003-0.012-0.004-0.019c-0.019-0.09-0.047-0.178-0.084-0.265   c-0.002-0.005-0.003-0.01-0.005-0.014c-0.003-0.006-0.007-0.011-0.01-0.017c-0.021-0.046-0.036-0.093-0.062-0.137l-8.484-14.707   c1.198-0.343,2.38-0.754,3.533-1.253c0.026-0.011,0.047-0.028,0.072-0.04c0.029-0.014,0.059-0.02,0.087-0.036   c0.028-0.016,0.051-0.038,0.078-0.056c0.021-0.014,0.041-0.029,0.061-0.044c0.063-0.046,0.121-0.095,0.174-0.149   c0.013-0.013,0.024-0.026,0.036-0.039c0.056-0.06,0.106-0.124,0.15-0.191c0.007-0.011,0.014-0.022,0.02-0.033   c0.044-0.071,0.082-0.145,0.113-0.221c0.005-0.012,0.009-0.025,0.014-0.037c0.029-0.077,0.052-0.154,0.068-0.235   c0.003-0.016,0.005-0.032,0.008-0.048c0.013-0.078,0.021-0.156,0.021-0.235c0-0.02-0.001-0.039-0.001-0.059   c-0.003-0.077-0.01-0.153-0.025-0.23c-0.004-0.022-0.01-0.044-0.015-0.066c-0.017-0.073-0.04-0.145-0.069-0.217   c-0.005-0.012-0.006-0.024-0.011-0.036c-0.007-0.016-0.017-0.028-0.024-0.044c-0.017-0.036-0.029-0.074-0.049-0.109l-7.832-13.575   c1.309-0.359,2.592-0.826,3.825-1.408c0.012-0.005,0.021-0.014,0.032-0.019c0.012-0.006,0.024-0.008,0.036-0.014   c0.043-0.023,0.079-0.053,0.119-0.079c0.031-0.02,0.063-0.039,0.092-0.061c0.057-0.044,0.108-0.093,0.157-0.143   c0.017-0.018,0.036-0.034,0.052-0.052c0.054-0.061,0.1-0.127,0.143-0.195c0.007-0.011,0.015-0.022,0.022-0.033   c0.046-0.077,0.083-0.158,0.114-0.242c0.002-0.005,0.004-0.009,0.005-0.013c0.138-0.384,0.125-0.82-0.081-1.208L51.325,5.798   C51.065,5.307,50.556,5,50,5s-1.065,0.307-1.325,0.798L30.069,40.896c-0.206,0.388-0.219,0.825-0.081,1.209   c0.001,0.003,0.003,0.006,0.004,0.01c0.031,0.085,0.069,0.167,0.115,0.245c0.006,0.01,0.014,0.02,0.02,0.03   c0.043,0.069,0.09,0.136,0.145,0.198c0.016,0.018,0.034,0.034,0.05,0.051c0.05,0.051,0.1,0.1,0.158,0.145   c0.029,0.022,0.061,0.041,0.092,0.061c0.04,0.026,0.076,0.056,0.119,0.079c0.013,0.007,0.028,0.01,0.041,0.017   c0.01,0.005,0.018,0.012,0.027,0.016c1.245,0.587,2.527,1.053,3.829,1.407l-7.836,13.575c-0.02,0.035-0.032,0.073-0.049,0.109   c-0.007,0.015-0.017,0.028-0.024,0.043c-0.005,0.012-0.007,0.024-0.011,0.035c-0.029,0.072-0.052,0.144-0.069,0.218   c-0.005,0.021-0.01,0.042-0.015,0.064c-0.015,0.078-0.023,0.155-0.025,0.234c0,0.018-0.001,0.036-0.001,0.054   c0,0.081,0.008,0.161,0.021,0.241c0.002,0.014,0.004,0.028,0.007,0.042c0.016,0.082,0.04,0.162,0.069,0.24   c0.004,0.011,0.008,0.022,0.012,0.032c0.032,0.078,0.07,0.153,0.115,0.225c0.006,0.01,0.012,0.021,0.019,0.031   c0.044,0.068,0.095,0.132,0.151,0.193c0.012,0.013,0.023,0.026,0.035,0.038c0.053,0.054,0.112,0.103,0.174,0.15   c0.02,0.015,0.04,0.03,0.062,0.044c0.027,0.018,0.05,0.04,0.078,0.056c0.028,0.016,0.059,0.022,0.087,0.036   c0.025,0.012,0.046,0.029,0.072,0.04c1.159,0.501,2.341,0.915,3.54,1.259l-8.491,14.701c-0.269,0.464-0.265,1.036,0.003,1.5   c0.17,0.295,0.434,0.518,0.739,0.641c2.062,0.889,4.196,1.56,6.367,2.025c0.05,0.015,0.1,0.025,0.151,0.035   c2.335,0.49,4.711,0.738,7.088,0.738c2.529,0,5.056-0.287,7.533-0.841v8.776c0,0.435,0.089,0.847,0.23,1.234   c-0.58,0.029-1.16,0.056-1.739,0.095c-0.827,0.055-1.453,0.77-1.398,1.596c0.056,0.828,0.788,1.443,1.596,1.398   c6.522-0.433,13.11-0.251,19.578,0.54c0.062,0.007,0.123,0.011,0.184,0.011c0.747,0,1.395-0.558,1.487-1.318   c0.1-0.822-0.485-1.57-1.308-1.671c-2.534-0.31-5.086-0.527-7.646-0.655c0.14-0.386,0.229-0.796,0.229-1.23v-8.731   c2.45,0.537,4.946,0.814,7.444,0.814c4.684,0,9.367-0.943,13.729-2.831c0.029-0.012,0.052-0.031,0.08-0.045   c0.027-0.013,0.055-0.018,0.081-0.034c0.026-0.015,0.047-0.036,0.073-0.052c0.024-0.016,0.046-0.033,0.069-0.049   c0.061-0.045,0.118-0.093,0.17-0.146C77.264,77.813,77.276,77.8,77.288,77.787z M52.605,88.899c0,0.358-0.281,0.64-0.641,0.64   h-3.932c-0.348,0-0.641-0.293-0.641-0.64v-9.586c0.849-0.273,1.688-0.585,2.517-0.925c0.888,0.365,1.785,0.7,2.696,0.987V88.899z    M50.513,75.397c-0.107-0.046-0.217-0.076-0.327-0.096c-0.024-0.005-0.049-0.004-0.073-0.008c-0.068-0.009-0.136-0.018-0.203-0.018   c-0.067,0-0.135,0.009-0.202,0.018c-0.025,0.004-0.05,0.003-0.075,0.008c-0.089,0.016-0.178,0.043-0.265,0.077   c-0.002,0.001-0.003,0.001-0.005,0.002c-0.018,0.007-0.037,0.01-0.056,0.018c-5.336,2.309-11.201,3.052-16.881,2.246l0.27-0.472   c0.411-0.719,0.163-1.636-0.556-2.048c-0.718-0.412-1.635-0.163-2.048,0.556l-0.78,1.361c-1.127-0.278-2.242-0.612-3.337-1.017   l8.085-13.999c1.617,0.278,3.26,0.426,4.924,0.426c0.074,0,0.148,0,0.222-0.001c0.829-0.006,1.495-0.683,1.489-1.511   c-0.006-0.825-0.677-1.489-1.5-1.489c-0.004,0-0.008,0-0.011,0c-1.832,0.029-3.619-0.143-5.364-0.5   c-0.129-0.049-0.26-0.078-0.393-0.09c-1.084-0.24-2.152-0.551-3.204-0.932l7.472-12.945c0.986,0.128,1.977,0.2,2.969,0.2   c3.155,0,6.309-0.656,9.277-1.95c0.79,0.344,1.595,0.66,2.415,0.915c0.149,0.047,0.3,0.068,0.447,0.068   c0.64,0,1.231-0.411,1.432-1.053c0.247-0.791-0.194-1.632-0.984-1.879c-0.91-0.284-1.808-0.634-2.67-1.04   c-0.032-0.015-0.066-0.022-0.099-0.035c-0.031-0.012-0.062-0.023-0.094-0.033c-0.059-0.018-0.117-0.034-0.176-0.045   c-0.04-0.008-0.081-0.013-0.122-0.017c-0.052-0.005-0.103-0.009-0.154-0.009c-0.052,0-0.103,0.003-0.154,0.009   c-0.041,0.004-0.081,0.009-0.121,0.017c-0.06,0.011-0.119,0.027-0.178,0.045c-0.031,0.01-0.061,0.02-0.091,0.032   c-0.034,0.013-0.068,0.02-0.101,0.036c-1.693,0.797-3.464,1.346-5.263,1.651l0.323-1.208c0.214-0.8-0.261-1.622-1.062-1.837   c-0.795-0.208-1.622,0.261-1.837,1.062l-0.606,2.263c-2.492,0.023-4.984-0.421-7.359-1.324L50,9.703l16.513,31.151   c-2.502,0.961-5.111,1.419-7.798,1.343c-0.014-0.001-0.027-0.001-0.042-0.001c-0.81,0-1.477,0.645-1.498,1.459   c-0.023,0.828,0.63,1.518,1.458,1.54c0.207,0.006,0.413,0.009,0.62,0.009c1.021,0,2.042-0.077,3.058-0.213l7.462,12.933   c-2.236,0.799-4.56,1.283-6.905,1.455l-0.76-2.052c-0.287-0.775-1.148-1.172-1.928-0.885c-0.776,0.287-1.173,1.15-0.885,1.928   l0.391,1.056c-3.132-0.148-6.242-0.852-9.162-2.116c-0.017-0.007-0.035-0.01-0.052-0.017c-0.007-0.003-0.014-0.004-0.022-0.007   c-0.083-0.031-0.166-0.057-0.25-0.072c-0.028-0.005-0.057-0.005-0.085-0.009c-0.065-0.008-0.129-0.018-0.193-0.017   c-0.064,0-0.128,0.009-0.193,0.017c-0.029,0.004-0.058,0.004-0.086,0.009c-0.083,0.015-0.165,0.041-0.246,0.071   c-0.008,0.003-0.017,0.005-0.026,0.008c-0.017,0.007-0.035,0.009-0.052,0.016c-1.21,0.524-2.472,0.959-3.749,1.294   c-0.802,0.21-1.281,1.03-1.071,1.831c0.177,0.674,0.784,1.12,1.45,1.12c0.126,0,0.254-0.016,0.381-0.049   c1.218-0.319,2.414-0.735,3.581-1.21c3.521,1.434,7.27,2.16,11.023,2.16c0.273,0,0.546-0.013,0.819-0.021   c0.033,0.002,0.064,0.015,0.097,0.015c0.037,0,0.074-0.017,0.112-0.02c1.334-0.047,2.664-0.185,3.982-0.413l8.079,14.005   C66.441,78.831,57.966,78.623,50.513,75.397z"></path><path d="M37.238,90.754c-2.69,0.321-5.391,0.75-8.026,1.275c-0.813,0.161-1.34,0.951-1.178,1.764   C28.176,94.507,28.803,95,29.503,95c0.098,0,0.196-0.009,0.295-0.029c2.56-0.509,5.183-0.926,7.796-1.238   c0.823-0.099,1.41-0.845,1.312-1.667C38.808,91.242,38.06,90.648,37.238,90.754z"></path><path d="M70.788,92.029c-0.95-0.189-1.903-0.365-2.86-0.527c-0.81-0.138-1.591,0.409-1.729,1.228   c-0.139,0.816,0.41,1.591,1.228,1.729c0.928,0.158,1.854,0.328,2.776,0.512C70.301,94.991,70.399,95,70.497,95   c0.7,0,1.327-0.493,1.469-1.207C72.128,92.98,71.601,92.19,70.788,92.029z"></path></g></svg>