<svg height='100px' width='100px'  fill="#000000" xmlns="http://www.w3.org/2000/svg" xmlns:xlink="http://www.w3.org/1999/xlink" version="1.1" x="0px" y="0px" viewBox="0 0 100 100" style="enable-background:new 0 0 100 100;" xml:space="preserve"><g><path d="M40.091,79.234c0.039-0.065,0.074-0.131,0.103-0.201c0.007-0.018,0.013-0.036,0.02-0.054   c0.027-0.072,0.049-0.145,0.064-0.221c0.004-0.019,0.006-0.037,0.009-0.056c0.013-0.076,0.02-0.153,0.021-0.231   c0-0.019-0.001-0.038-0.002-0.058c-0.002-0.078-0.01-0.156-0.025-0.234c-0.004-0.019-0.008-0.038-0.013-0.057   c-0.018-0.077-0.042-0.153-0.073-0.228c-0.004-0.01-0.005-0.02-0.009-0.029c-0.005-0.013-0.014-0.023-0.02-0.036   c-0.018-0.039-0.031-0.08-0.053-0.119l-4.877-8.453c0.525-0.173,1.045-0.359,1.553-0.579c0.03-0.013,0.055-0.032,0.084-0.047   c0.024-0.012,0.049-0.017,0.073-0.03c0.024-0.014,0.042-0.032,0.065-0.047c0.033-0.022,0.064-0.045,0.095-0.068   c0.049-0.038,0.097-0.077,0.14-0.12c0.024-0.024,0.047-0.049,0.069-0.075c0.043-0.049,0.083-0.099,0.12-0.152   c0.017-0.025,0.032-0.051,0.047-0.077c0.034-0.057,0.064-0.115,0.09-0.176c0.012-0.028,0.021-0.056,0.031-0.084   c0.022-0.062,0.041-0.124,0.054-0.187c0.007-0.031,0.011-0.062,0.016-0.093c0.009-0.063,0.016-0.127,0.017-0.191   c0.001-0.033-0.001-0.066-0.003-0.099c-0.003-0.064-0.009-0.128-0.021-0.192c-0.006-0.033-0.014-0.066-0.022-0.099   c-0.016-0.063-0.035-0.125-0.059-0.186c-0.006-0.016-0.008-0.032-0.015-0.047c-0.009-0.021-0.022-0.038-0.032-0.058   c-0.015-0.032-0.025-0.065-0.043-0.096l-4.472-7.75c0.592-0.193,1.177-0.415,1.749-0.684c0.013-0.006,0.024-0.016,0.037-0.022   c0.009-0.005,0.019-0.006,0.028-0.011c0.034-0.018,0.063-0.043,0.095-0.063c0.043-0.027,0.086-0.053,0.125-0.084   c0.044-0.035,0.083-0.074,0.123-0.113c0.029-0.029,0.06-0.056,0.086-0.086c0.041-0.047,0.076-0.098,0.11-0.15   c0.018-0.028,0.038-0.054,0.055-0.082c0.033-0.058,0.06-0.119,0.085-0.181c0.011-0.026,0.023-0.051,0.032-0.078   c0.023-0.066,0.038-0.133,0.051-0.202c0.005-0.025,0.012-0.05,0.016-0.076c0.01-0.071,0.012-0.142,0.012-0.214   c0-0.025,0.002-0.05,0.001-0.075c-0.004-0.073-0.016-0.144-0.03-0.216c-0.005-0.025-0.008-0.05-0.014-0.075   c-0.018-0.07-0.044-0.138-0.073-0.207c-0.009-0.021-0.012-0.042-0.022-0.063c-0.003-0.006-0.008-0.012-0.011-0.018   c-0.007-0.015-0.011-0.031-0.019-0.046L23.982,34.406c-0.26-0.491-0.77-0.798-1.325-0.798s-1.065,0.307-1.325,0.798L9.854,56.059   c-0.008,0.015-0.011,0.031-0.019,0.046c-0.003,0.006-0.008,0.011-0.011,0.018c-0.01,0.021-0.013,0.042-0.022,0.063   c-0.029,0.068-0.055,0.137-0.073,0.207c-0.006,0.025-0.009,0.05-0.014,0.075c-0.014,0.072-0.027,0.144-0.03,0.216   c-0.001,0.025,0.001,0.05,0.001,0.075c0,0.072,0.002,0.143,0.012,0.214c0.004,0.026,0.011,0.05,0.016,0.076   c0.013,0.069,0.029,0.136,0.051,0.202c0.009,0.027,0.022,0.052,0.032,0.078c0.025,0.062,0.052,0.123,0.085,0.181   C9.9,57.536,9.92,57.563,9.938,57.59c0.034,0.052,0.069,0.103,0.11,0.15c0.026,0.031,0.057,0.058,0.086,0.086   c0.04,0.039,0.078,0.078,0.123,0.113c0.039,0.031,0.083,0.056,0.125,0.084c0.032,0.02,0.061,0.045,0.095,0.063   c0.01,0.006,0.022,0.008,0.032,0.013c0.012,0.006,0.021,0.014,0.033,0.02c0.573,0.27,1.159,0.488,1.751,0.682l-4.474,7.752   c-0.018,0.031-0.028,0.064-0.043,0.096c-0.01,0.02-0.023,0.037-0.032,0.057c-0.007,0.015-0.009,0.031-0.015,0.047   c-0.025,0.062-0.044,0.124-0.06,0.188c-0.008,0.033-0.016,0.065-0.022,0.097c-0.012,0.065-0.018,0.13-0.021,0.195   c-0.001,0.032-0.003,0.063-0.003,0.094c0.001,0.066,0.008,0.132,0.018,0.197c0.004,0.029,0.008,0.058,0.015,0.087   c0.014,0.066,0.033,0.131,0.056,0.195c0.009,0.026,0.018,0.051,0.029,0.077c0.027,0.063,0.058,0.124,0.094,0.183   c0.014,0.024,0.028,0.048,0.043,0.071c0.037,0.055,0.079,0.107,0.124,0.158c0.021,0.024,0.042,0.048,0.065,0.07   c0.044,0.044,0.093,0.084,0.143,0.123c0.03,0.023,0.061,0.046,0.094,0.067c0.023,0.015,0.041,0.033,0.065,0.047   c0.023,0.014,0.049,0.018,0.073,0.03c0.029,0.015,0.054,0.034,0.084,0.047c0.51,0.221,1.032,0.407,1.557,0.58l-4.881,8.452   c-0.021,0.036-0.032,0.074-0.05,0.11c-0.007,0.015-0.018,0.028-0.025,0.044c-0.005,0.012-0.007,0.024-0.011,0.035   c-0.029,0.07-0.051,0.141-0.068,0.214c-0.006,0.024-0.012,0.048-0.016,0.072c-0.014,0.074-0.021,0.147-0.024,0.221   c-0.001,0.024-0.002,0.047-0.002,0.07c0.001,0.074,0.008,0.146,0.02,0.219c0.004,0.023,0.007,0.045,0.011,0.068   c0.015,0.072,0.036,0.142,0.061,0.211c0.008,0.021,0.015,0.042,0.023,0.063c0.028,0.067,0.061,0.13,0.099,0.193   c0.013,0.021,0.025,0.043,0.039,0.063c0.038,0.057,0.081,0.11,0.127,0.162c0.02,0.023,0.041,0.046,0.063,0.068   c0.045,0.044,0.093,0.085,0.144,0.124c0.031,0.024,0.062,0.047,0.094,0.068c0.022,0.014,0.04,0.032,0.063,0.046   c0.023,0.013,0.047,0.017,0.07,0.029c0.03,0.016,0.056,0.035,0.088,0.049c1.554,0.672,3.176,1.133,4.822,1.424   c0.161,0.056,0.325,0.088,0.486,0.088c0.016,0,0.031-0.006,0.046-0.007c1.09,0.166,2.187,0.276,3.288,0.276   c1.365,0,2.728-0.141,4.072-0.396v4.717c0,1.555,1.266,2.82,2.82,2.82h2.426c1.555,0,2.82-1.266,2.82-2.82v-4.695   c1.328,0.246,2.672,0.387,4.019,0.387c2.967,0,5.934-0.599,8.697-1.794c0.031-0.013,0.056-0.033,0.086-0.048   c0.024-0.012,0.05-0.017,0.074-0.03c0.024-0.014,0.043-0.032,0.065-0.047c0.031-0.02,0.06-0.042,0.089-0.064   c0.053-0.04,0.103-0.082,0.148-0.128c0.02-0.02,0.039-0.041,0.058-0.063c0.048-0.054,0.092-0.109,0.132-0.168   C40.069,79.272,40.08,79.253,40.091,79.234z M23.689,85.761h-2.066v-5.339c0.329-0.113,0.654-0.235,0.978-0.364   c0.36,0.144,0.722,0.282,1.088,0.405V85.761z M23.201,77.084c-0.013-0.006-0.028-0.008-0.041-0.013   c-0.025-0.01-0.052-0.016-0.078-0.025c-0.066-0.022-0.131-0.044-0.197-0.057c-0.037-0.007-0.076-0.008-0.113-0.012   c-0.057-0.006-0.113-0.015-0.17-0.015c-0.057,0-0.114,0.009-0.17,0.015c-0.038,0.004-0.076,0.005-0.113,0.012   c-0.067,0.013-0.134,0.035-0.2,0.058c-0.025,0.009-0.051,0.014-0.075,0.024c-0.014,0.005-0.028,0.007-0.042,0.013   c-2.734,1.183-5.698,1.66-8.627,1.477l0.512-1.238c0.317-0.766-0.047-1.643-0.813-1.959c-0.767-0.32-1.644,0.048-1.959,0.813   l-0.804,1.943c-0.547-0.126-1.089-0.27-1.625-0.445l4.451-7.706c0.904,0.134,1.814,0.225,2.727,0.225   c2.291,0,4.576-0.444,6.736-1.289c0.264,0.104,0.527,0.216,0.794,0.308c0.162,0.056,0.326,0.081,0.487,0.081   c0.623,0,1.205-0.391,1.419-1.013c0.269-0.784-0.148-1.637-0.932-1.906c-0.391-0.134-0.776-0.282-1.157-0.447   c-0.012-0.005-0.024-0.007-0.036-0.012c-0.033-0.013-0.067-0.021-0.101-0.033c-0.06-0.02-0.119-0.04-0.18-0.052   c-0.032-0.006-0.065-0.007-0.097-0.011c-0.063-0.008-0.126-0.017-0.188-0.017c-0.044,0-0.089,0.008-0.133,0.012   c-0.051,0.005-0.101,0.006-0.151,0.016c-0.057,0.011-0.113,0.031-0.169,0.049c-0.035,0.011-0.072,0.02-0.106,0.034   c-0.013,0.005-0.026,0.007-0.038,0.012c-3.386,1.465-7.201,1.657-10.701,0.582l4.07-7.052c0.361,0.037,0.721,0.077,1.085,0.088   c0.015,0.001,0.029,0.001,0.045,0.001c0.808,0,1.475-0.643,1.498-1.456c0.024-0.828-0.627-1.519-1.455-1.543   c-1.111-0.033-2.2-0.234-3.258-0.573l9.362-17.661l9.362,17.661c-2.874,0.92-5.989,0.737-8.759-0.568   c-0.027-0.013-0.055-0.018-0.082-0.029c-0.041-0.017-0.081-0.031-0.123-0.044c-0.051-0.016-0.102-0.029-0.154-0.039   c-0.045-0.009-0.09-0.015-0.136-0.019c-0.05-0.005-0.099-0.008-0.148-0.008c-0.049,0-0.098,0.003-0.148,0.008   c-0.046,0.005-0.092,0.01-0.137,0.019c-0.051,0.01-0.101,0.023-0.151,0.038c-0.043,0.013-0.086,0.028-0.128,0.045   c-0.026,0.011-0.053,0.016-0.079,0.028c-0.47,0.221-0.954,0.413-1.44,0.569c-0.788,0.255-1.221,1.1-0.967,1.889   c0.205,0.635,0.794,1.039,1.428,1.039c0.152,0,0.308-0.023,0.461-0.072c0.398-0.128,0.792-0.282,1.183-0.445   c1.843,0.766,3.787,1.17,5.737,1.17c0.523,0,1.046-0.031,1.568-0.086l4.062,7.04c-0.651,0.201-1.314,0.361-1.985,0.476   l-0.682-1.348c-0.374-0.739-1.277-1.034-2.016-0.662c-0.739,0.374-1.036,1.276-0.662,2.016l0.101,0.2   c-0.188-0.008-0.375-0.011-0.563-0.026c-0.839-0.088-1.548,0.553-1.611,1.379c-0.064,0.826,0.554,1.548,1.379,1.611   c0.475,0.037,0.949,0.056,1.424,0.056c0.937,0,1.87-0.095,2.795-0.235l4.443,7.701C32.258,79.113,27.452,78.924,23.201,77.084z"></path><path d="M94.992,78.402c-0.003-0.072-0.01-0.143-0.023-0.214c-0.005-0.026-0.011-0.051-0.017-0.076   c-0.017-0.071-0.039-0.141-0.067-0.21c-0.005-0.012-0.006-0.024-0.012-0.036c-0.007-0.016-0.018-0.029-0.025-0.045   c-0.017-0.036-0.029-0.074-0.049-0.11l-4.871-8.444c0.522-0.173,1.039-0.367,1.547-0.587c0.03-0.013,0.055-0.032,0.084-0.047   c0.024-0.012,0.049-0.017,0.073-0.03c0.024-0.014,0.042-0.032,0.065-0.047c0.032-0.021,0.063-0.044,0.093-0.067   c0.051-0.039,0.099-0.079,0.143-0.123c0.023-0.023,0.044-0.047,0.066-0.071c0.044-0.05,0.086-0.101,0.122-0.156   c0.016-0.024,0.03-0.048,0.045-0.073c0.034-0.058,0.066-0.117,0.092-0.18c0.011-0.027,0.021-0.054,0.03-0.081   c0.022-0.062,0.041-0.125,0.055-0.19c0.007-0.031,0.011-0.061,0.016-0.092c0.009-0.064,0.016-0.127,0.017-0.192   c0.001-0.033-0.001-0.066-0.003-0.099c-0.003-0.064-0.009-0.128-0.021-0.191c-0.006-0.033-0.014-0.066-0.023-0.1   c-0.016-0.063-0.035-0.125-0.059-0.186c-0.006-0.016-0.008-0.032-0.015-0.047c-0.009-0.021-0.022-0.038-0.032-0.058   c-0.015-0.032-0.025-0.065-0.043-0.096l-4.472-7.751c0.592-0.194,1.177-0.415,1.748-0.685c0.012-0.006,0.021-0.014,0.033-0.02   c0.011-0.005,0.022-0.007,0.032-0.012c0.039-0.021,0.071-0.048,0.107-0.071c0.038-0.024,0.076-0.047,0.111-0.074   c0.047-0.037,0.089-0.078,0.131-0.12c0.027-0.027,0.055-0.051,0.079-0.08c0.042-0.049,0.078-0.101,0.114-0.155   c0.017-0.026,0.036-0.051,0.052-0.078c0.034-0.059,0.061-0.122,0.087-0.185c0.01-0.025,0.022-0.049,0.031-0.074   c0.023-0.068,0.039-0.137,0.053-0.208c0.004-0.023,0.011-0.046,0.014-0.069c0.011-0.074,0.013-0.149,0.013-0.224   c0-0.021,0.002-0.042,0.001-0.064c-0.004-0.077-0.016-0.154-0.032-0.231c-0.004-0.02-0.006-0.039-0.011-0.059   c-0.019-0.077-0.048-0.152-0.081-0.227c-0.007-0.015-0.009-0.031-0.016-0.046c-0.002-0.005-0.005-0.008-0.008-0.013   c-0.008-0.017-0.012-0.034-0.021-0.051L78.668,34.406c-0.26-0.491-0.77-0.798-1.325-0.798s-1.065,0.307-1.325,0.798L64.54,56.059   c-0.009,0.016-0.013,0.034-0.021,0.051c-0.002,0.005-0.005,0.008-0.008,0.013c-0.007,0.015-0.01,0.031-0.016,0.046   c-0.032,0.075-0.061,0.15-0.08,0.227c-0.005,0.02-0.007,0.04-0.011,0.06c-0.016,0.077-0.029,0.153-0.032,0.23   c-0.001,0.021,0.001,0.042,0.001,0.063c0,0.076,0.002,0.15,0.013,0.225c0.003,0.023,0.009,0.044,0.014,0.067   c0.014,0.071,0.03,0.142,0.054,0.211c0.008,0.024,0.02,0.047,0.029,0.071c0.026,0.065,0.054,0.128,0.089,0.188   c0.015,0.026,0.033,0.05,0.05,0.075c0.036,0.054,0.072,0.108,0.115,0.157c0.024,0.028,0.052,0.052,0.078,0.078   c0.042,0.042,0.084,0.084,0.132,0.121c0.035,0.027,0.073,0.05,0.111,0.074c0.036,0.023,0.068,0.051,0.107,0.071   c0.012,0.006,0.025,0.009,0.037,0.015c0.01,0.005,0.018,0.012,0.028,0.017c0.569,0.269,1.156,0.49,1.751,0.684l-4.475,7.752   c-0.018,0.031-0.028,0.064-0.043,0.096c-0.01,0.02-0.023,0.037-0.032,0.057c-0.007,0.015-0.009,0.031-0.015,0.047   c-0.025,0.062-0.044,0.124-0.06,0.188c-0.008,0.033-0.016,0.065-0.022,0.097c-0.012,0.065-0.018,0.13-0.021,0.195   c-0.001,0.032-0.003,0.063-0.003,0.094c0.001,0.066,0.008,0.132,0.018,0.197c0.004,0.029,0.008,0.058,0.015,0.087   c0.014,0.066,0.033,0.131,0.056,0.195c0.009,0.026,0.018,0.051,0.029,0.077c0.027,0.063,0.058,0.124,0.094,0.183   c0.014,0.024,0.028,0.048,0.043,0.071c0.037,0.055,0.079,0.107,0.124,0.158c0.021,0.024,0.042,0.048,0.065,0.07   c0.044,0.044,0.093,0.084,0.143,0.123c0.03,0.023,0.061,0.046,0.094,0.067c0.023,0.015,0.041,0.033,0.065,0.047   c0.023,0.014,0.049,0.018,0.073,0.03c0.029,0.015,0.054,0.034,0.084,0.047c0.511,0.221,1.032,0.407,1.558,0.58l-4.882,8.451   c-0.022,0.039-0.035,0.08-0.054,0.119c-0.006,0.012-0.014,0.022-0.019,0.035c-0.004,0.009-0.005,0.019-0.009,0.028   c-0.031,0.076-0.055,0.153-0.074,0.231c-0.004,0.018-0.009,0.036-0.012,0.054c-0.015,0.08-0.024,0.159-0.026,0.239   c0,0.018-0.001,0.035-0.001,0.052c0.001,0.08,0.008,0.158,0.021,0.236c0.003,0.017,0.005,0.034,0.008,0.051   c0.016,0.077,0.038,0.152,0.065,0.227c0.006,0.016,0.011,0.032,0.018,0.048c0.029,0.071,0.065,0.139,0.105,0.206   c0.01,0.017,0.02,0.035,0.032,0.052c0.04,0.06,0.085,0.117,0.135,0.172c0.018,0.02,0.036,0.04,0.055,0.059   c0.047,0.047,0.097,0.089,0.151,0.13c0.029,0.022,0.057,0.043,0.088,0.063c0.023,0.015,0.042,0.034,0.066,0.047   c0.024,0.014,0.05,0.018,0.074,0.03c0.029,0.015,0.055,0.034,0.086,0.048c2.746,1.188,5.693,1.782,8.642,1.782   c1.365,0,2.728-0.142,4.073-0.396v4.717c0,1.555,1.266,2.82,2.82,2.82h2.426c1.555,0,2.82-1.266,2.82-2.82v-4.695   c1.327,0.246,2.671,0.386,4.018,0.386c2.967,0,5.935-0.599,8.698-1.794c0.032-0.014,0.058-0.034,0.088-0.049   c0.023-0.012,0.047-0.016,0.07-0.029c0.023-0.013,0.041-0.031,0.063-0.045c0.034-0.022,0.065-0.045,0.097-0.07   c0.05-0.038,0.098-0.078,0.142-0.121c0.023-0.023,0.044-0.046,0.065-0.07c0.045-0.051,0.087-0.103,0.125-0.159   c0.015-0.022,0.028-0.045,0.041-0.067c0.036-0.061,0.069-0.123,0.096-0.188c0.01-0.023,0.018-0.046,0.026-0.07   c0.024-0.067,0.044-0.134,0.059-0.204c0.005-0.025,0.009-0.05,0.013-0.075c0.011-0.07,0.018-0.14,0.019-0.211   C94.994,78.454,94.993,78.428,94.992,78.402z M63.372,77.674l4.451-7.706c0.904,0.134,1.814,0.225,2.727,0.225   c2.288,0,4.569-0.443,6.726-1.286c1.085,0.428,2.208,0.76,3.351,0.976c0.095,0.018,0.188,0.026,0.281,0.026   c0.706,0,1.336-0.501,1.472-1.221c0.154-0.814-0.381-1.6-1.194-1.753c-1.128-0.214-2.234-0.554-3.29-1.01   c-0.011-0.005-0.022-0.006-0.033-0.011c-0.036-0.015-0.073-0.024-0.11-0.035c-0.058-0.019-0.115-0.039-0.173-0.05   c-0.032-0.006-0.065-0.007-0.097-0.011c-0.063-0.008-0.126-0.017-0.189-0.017c-0.045,0-0.091,0.008-0.137,0.012   c-0.049,0.005-0.098,0.006-0.146,0.016c-0.059,0.011-0.117,0.032-0.176,0.051c-0.033,0.011-0.067,0.018-0.099,0.032   c-0.013,0.005-0.026,0.007-0.039,0.012c-0.774,0.335-1.575,0.585-2.385,0.787l0.091-0.681c0.11-0.821-0.466-1.576-1.287-1.686   c-0.819-0.122-1.576,0.466-1.686,1.287l-0.204,1.526c-1.762,0.077-3.533-0.131-5.231-0.653l4.065-7.042   c0.511,0.054,1.024,0.086,1.537,0.086c0.313,0,0.628-0.01,0.941-0.03c0.827-0.054,1.454-0.768,1.4-1.594   c-0.054-0.827-0.803-1.45-1.594-1.4c-1.472,0.1-2.956-0.093-4.369-0.546l9.366-17.669l9.363,17.662   c-0.821,0.262-1.66,0.437-2.507,0.518l-0.403-1.366c-0.234-0.794-1.07-1.248-1.863-1.014c-0.795,0.234-1.248,1.068-1.014,1.863   l0.114,0.387c-1.054-0.182-2.094-0.489-3.086-0.956c-0.029-0.013-0.058-0.019-0.087-0.031c-0.038-0.015-0.076-0.029-0.116-0.041   c-0.054-0.016-0.107-0.03-0.161-0.041c-0.043-0.008-0.086-0.014-0.13-0.018c-0.051-0.005-0.102-0.009-0.153-0.008   c-0.049,0-0.097,0.003-0.146,0.008c-0.046,0.005-0.092,0.011-0.138,0.02c-0.051,0.01-0.101,0.023-0.152,0.039   c-0.043,0.013-0.085,0.028-0.127,0.045c-0.027,0.011-0.054,0.016-0.08,0.029c-0.227,0.107-0.457,0.206-0.688,0.298   c-0.77,0.306-1.146,1.178-0.841,1.948c0.234,0.588,0.798,0.946,1.395,0.946c0.185,0,0.372-0.034,0.554-0.105   c0.083-0.033,0.165-0.073,0.248-0.108c1.843,0.765,3.787,1.169,5.737,1.169c0.523,0,1.046-0.031,1.568-0.086l4.059,7.035   c-1.162,0.359-2.358,0.592-3.579,0.672c-0.826,0.055-1.452,0.769-1.398,1.596c0.053,0.793,0.712,1.401,1.495,1.401   c0.033,0,0.066-0.001,0.101-0.003c0.53-0.035,1.057-0.092,1.579-0.172l4.428,7.676c-1.918,0.631-3.916,0.958-5.917,0.958   l-0.357-1.622c-0.179-0.809-0.978-1.326-1.787-1.143c-0.81,0.178-1.32,0.979-1.143,1.787l0.153,0.696   c-1.495-0.25-2.968-0.657-4.377-1.267c-0.014-0.006-0.028-0.008-0.042-0.013c-0.024-0.01-0.049-0.015-0.073-0.023   c-0.067-0.023-0.134-0.045-0.202-0.058c-0.036-0.007-0.074-0.008-0.111-0.012c-0.057-0.007-0.115-0.015-0.172-0.015   c-0.057,0-0.115,0.009-0.172,0.015c-0.037,0.004-0.074,0.005-0.111,0.012c-0.068,0.013-0.135,0.036-0.202,0.058   c-0.024,0.008-0.049,0.014-0.073,0.023c-0.014,0.005-0.028,0.007-0.042,0.013C72.472,78.908,67.708,79.098,63.372,77.674z    M78.376,85.761H76.31v-5.339c0.329-0.113,0.654-0.235,0.978-0.364c0.36,0.144,0.722,0.282,1.089,0.405V85.761z"></path><path d="M59.779,51.251c0.002,0,0.003,0.001,0.004,0.001c0.148,0,0.295-0.024,0.44-0.068c1.281-0.251,2.541-0.631,3.754-1.155   c0.029-0.013,0.054-0.031,0.082-0.045c0.025-0.013,0.052-0.017,0.077-0.032c0.025-0.014,0.045-0.034,0.069-0.049   c0.029-0.019,0.056-0.039,0.084-0.06c0.054-0.041,0.106-0.084,0.153-0.131c0.019-0.02,0.037-0.04,0.056-0.06   c0.048-0.054,0.093-0.109,0.132-0.169c0.013-0.019,0.024-0.038,0.035-0.058c0.038-0.063,0.072-0.128,0.1-0.196   c0.009-0.021,0.016-0.042,0.023-0.063c0.025-0.069,0.046-0.138,0.06-0.209c0.005-0.024,0.008-0.048,0.012-0.072   c0.011-0.07,0.018-0.141,0.019-0.213c0-0.026-0.001-0.052-0.002-0.079c-0.003-0.071-0.01-0.141-0.023-0.212   c-0.005-0.027-0.012-0.054-0.018-0.081c-0.017-0.069-0.038-0.137-0.065-0.204c-0.005-0.013-0.007-0.027-0.013-0.04   c-0.008-0.017-0.019-0.032-0.027-0.049c-0.017-0.035-0.028-0.071-0.047-0.105l-3.888-6.739c0.34-0.12,0.683-0.234,1.013-0.377   c0.03-0.013,0.055-0.032,0.084-0.047c0.024-0.012,0.049-0.017,0.073-0.03c0.024-0.014,0.042-0.032,0.065-0.047   c0.032-0.021,0.063-0.044,0.093-0.067c0.051-0.039,0.099-0.079,0.143-0.123c0.023-0.023,0.044-0.047,0.066-0.071   c0.044-0.05,0.086-0.101,0.122-0.156c0.016-0.024,0.03-0.048,0.045-0.073c0.034-0.058,0.066-0.117,0.092-0.18   c0.011-0.027,0.021-0.054,0.03-0.081c0.022-0.062,0.041-0.125,0.055-0.19c0.007-0.031,0.011-0.061,0.016-0.092   c0.009-0.064,0.016-0.127,0.017-0.192c0.001-0.033-0.001-0.066-0.003-0.099c-0.003-0.064-0.009-0.128-0.021-0.191   c-0.006-0.033-0.014-0.066-0.023-0.1c-0.016-0.063-0.035-0.125-0.059-0.186c-0.006-0.016-0.008-0.032-0.015-0.047   c-0.009-0.021-0.022-0.038-0.032-0.058c-0.015-0.032-0.025-0.065-0.043-0.096l-3.546-6.147c0.397-0.142,0.791-0.298,1.176-0.48   c0.012-0.006,0.021-0.014,0.033-0.02c0.011-0.005,0.022-0.007,0.032-0.012c0.04-0.021,0.073-0.049,0.11-0.073   c0.036-0.023,0.073-0.045,0.106-0.071c0.05-0.039,0.094-0.082,0.138-0.126c0.024-0.024,0.05-0.047,0.072-0.073   c0.045-0.051,0.083-0.107,0.12-0.163c0.015-0.023,0.032-0.045,0.046-0.069c0.036-0.062,0.064-0.126,0.091-0.192   c0.009-0.022,0.02-0.044,0.028-0.067c0.024-0.069,0.04-0.14,0.054-0.213c0.004-0.022,0.01-0.043,0.013-0.065   c0.011-0.074,0.013-0.149,0.013-0.225c0-0.021,0.002-0.042,0.001-0.063c-0.004-0.077-0.016-0.153-0.032-0.23   c-0.004-0.02-0.006-0.04-0.011-0.061c-0.019-0.077-0.048-0.152-0.08-0.226c-0.007-0.015-0.009-0.031-0.016-0.046   c-0.002-0.005-0.005-0.008-0.008-0.013c-0.008-0.017-0.012-0.034-0.021-0.051l-9.508-17.937c-0.26-0.491-0.77-0.798-1.325-0.798   s-1.065,0.307-1.325,0.798l-9.508,17.937c-0.009,0.016-0.013,0.034-0.021,0.051c-0.002,0.005-0.005,0.008-0.008,0.013   c-0.007,0.015-0.01,0.031-0.016,0.046c-0.032,0.075-0.061,0.15-0.08,0.227c-0.005,0.02-0.007,0.04-0.011,0.06   c-0.016,0.077-0.029,0.153-0.032,0.23c-0.001,0.021,0.001,0.042,0.001,0.063c0,0.076,0.002,0.15,0.013,0.225   c0.003,0.023,0.009,0.044,0.014,0.067c0.014,0.071,0.03,0.142,0.054,0.211c0.008,0.024,0.02,0.047,0.029,0.071   c0.026,0.065,0.054,0.128,0.089,0.188c0.015,0.026,0.033,0.05,0.05,0.075c0.036,0.054,0.072,0.108,0.115,0.157   c0.024,0.028,0.052,0.052,0.078,0.078c0.042,0.042,0.084,0.084,0.132,0.121c0.035,0.027,0.073,0.05,0.111,0.074   c0.036,0.023,0.068,0.051,0.107,0.071c0.012,0.006,0.025,0.009,0.037,0.015c0.01,0.005,0.018,0.012,0.028,0.017   c0.386,0.182,0.781,0.337,1.179,0.478l-3.549,6.149c-0.018,0.031-0.028,0.064-0.043,0.096c-0.01,0.02-0.023,0.037-0.032,0.057   c-0.007,0.015-0.009,0.031-0.015,0.047c-0.025,0.062-0.044,0.125-0.06,0.188c-0.008,0.032-0.016,0.064-0.022,0.096   c-0.012,0.065-0.018,0.13-0.021,0.196c-0.001,0.031-0.003,0.063-0.002,0.094c0.001,0.066,0.008,0.131,0.017,0.196   c0.004,0.03,0.009,0.059,0.015,0.088c0.014,0.066,0.033,0.129,0.056,0.193c0.01,0.027,0.019,0.053,0.03,0.079   c0.026,0.062,0.057,0.122,0.092,0.18c0.015,0.025,0.029,0.05,0.045,0.074c0.037,0.055,0.078,0.106,0.122,0.155   c0.022,0.025,0.043,0.049,0.066,0.072c0.044,0.044,0.092,0.084,0.142,0.122c0.031,0.023,0.061,0.046,0.094,0.067   c0.023,0.015,0.041,0.033,0.065,0.047c0.023,0.014,0.049,0.018,0.073,0.03c0.029,0.015,0.054,0.034,0.084,0.047   c0.333,0.144,0.676,0.259,1.017,0.379l-3.892,6.738c-0.02,0.034-0.031,0.07-0.047,0.105c-0.008,0.017-0.019,0.031-0.027,0.048   c-0.005,0.013-0.007,0.026-0.012,0.039c-0.028,0.068-0.049,0.137-0.066,0.207c-0.006,0.026-0.013,0.051-0.017,0.077   c-0.013,0.072-0.021,0.144-0.023,0.216c-0.001,0.025-0.002,0.049-0.002,0.073c0.001,0.073,0.008,0.145,0.019,0.217   c0.004,0.023,0.007,0.045,0.011,0.068c0.015,0.073,0.036,0.143,0.061,0.213c0.007,0.02,0.014,0.04,0.022,0.06   c0.028,0.068,0.063,0.134,0.101,0.198c0.012,0.019,0.023,0.039,0.035,0.058c0.04,0.059,0.084,0.115,0.132,0.169   c0.018,0.02,0.036,0.041,0.056,0.06c0.047,0.047,0.098,0.09,0.153,0.131c0.028,0.021,0.055,0.041,0.084,0.061   c0.024,0.016,0.044,0.035,0.068,0.049c0.025,0.014,0.052,0.019,0.077,0.032c0.028,0.014,0.052,0.033,0.082,0.045   c2.308,0.998,4.784,1.498,7.262,1.498c1.044,0,2.085-0.109,3.116-0.286v3.608c0,1.431,1.163,2.594,2.594,2.594h2.009   c1.431,0,2.594-1.163,2.594-2.594v-3.591c1.017,0.171,2.043,0.278,3.072,0.278C57.711,51.535,58.75,51.427,59.779,51.251z    M50.598,54.441h-1.196v-3.987c0.185-0.066,0.369-0.134,0.553-0.206c0.213,0.084,0.428,0.164,0.644,0.24V54.441z M50.554,47.274   c-0.013-0.006-0.027-0.007-0.04-0.013c-0.027-0.011-0.056-0.017-0.084-0.027c-0.064-0.021-0.128-0.043-0.193-0.056   c-0.038-0.007-0.076-0.008-0.114-0.012c-0.057-0.006-0.113-0.015-0.169-0.015c-0.056,0-0.113,0.009-0.169,0.015   c-0.038,0.005-0.077,0.005-0.114,0.012c-0.065,0.012-0.129,0.034-0.193,0.056c-0.028,0.009-0.057,0.016-0.084,0.027   c-0.013,0.005-0.027,0.007-0.04,0.013c-3.335,1.443-7.094,1.633-10.546,0.579l3.44-5.956c0.172,0.023,0.342,0.061,0.514,0.078   c0.165,0.059,0.333,0.097,0.5,0.097c0.124,0,0.245-0.021,0.364-0.05c0.248,0.012,0.496,0.038,0.745,0.038   c1.895,0,3.784-0.362,5.573-1.048c0.133,0.051,0.264,0.109,0.398,0.156c0.166,0.06,0.335,0.087,0.502,0.087   c0.617,0,1.195-0.383,1.413-0.998c0.277-0.78-0.13-1.638-0.911-1.915c-0.266-0.095-0.529-0.199-0.789-0.312   c-0.012-0.005-0.025-0.007-0.037-0.012c-0.029-0.012-0.059-0.018-0.089-0.028c-0.063-0.021-0.125-0.042-0.188-0.055   c-0.038-0.008-0.078-0.008-0.117-0.012c-0.056-0.006-0.112-0.015-0.167-0.015c-0.056,0-0.112,0.009-0.169,0.015   c-0.039,0.004-0.078,0.005-0.115,0.012c-0.062,0.012-0.124,0.034-0.185,0.054c-0.031,0.01-0.062,0.017-0.092,0.029   c-0.012,0.005-0.025,0.006-0.037,0.012c-1.166,0.505-2.395,0.821-3.641,0.954c0.359-0.741,0.054-1.633-0.684-1.998   c-0.744-0.367-1.643-0.063-2.01,0.68l-0.606,1.226c-0.481-0.075-0.958-0.177-1.43-0.308l3.12-5.406   c0.372,0.033,0.745,0.061,1.118,0.061c1.602,0,3.2-0.326,4.719-0.942c0.332,0.136,0.666,0.262,1.004,0.37   c0.15,0.047,0.303,0.069,0.452,0.069c0.638,0,1.229-0.408,1.431-1.048c0.249-0.79-0.188-1.633-0.979-1.883   c-0.422-0.133-0.842-0.297-1.249-0.488c-0.023-0.011-0.047-0.015-0.071-0.025c-0.046-0.019-0.092-0.035-0.14-0.049   c-0.047-0.014-0.093-0.027-0.141-0.036c-0.048-0.01-0.096-0.016-0.145-0.02c-0.048-0.005-0.094-0.008-0.142-0.008   c-0.05,0-0.1,0.004-0.151,0.009c-0.046,0.005-0.091,0.01-0.136,0.019c-0.05,0.01-0.099,0.023-0.149,0.038   c-0.045,0.014-0.089,0.029-0.133,0.047c-0.025,0.01-0.05,0.015-0.075,0.026c-2.12,0.999-4.49,1.17-6.704,0.542L50,15.942   l7.385,13.931c-0.594,0.17-1.2,0.288-1.816,0.343c-0.825,0.072-1.435,0.801-1.362,1.626c0.068,0.78,0.724,1.368,1.492,1.368   c0.044,0,0.089-0.002,0.134-0.006c0.023-0.002,0.045-0.007,0.067-0.009l3.112,5.394c-1.281,0.36-2.618,0.533-3.951,0.473   c-0.863-0.042-1.526,0.608-1.562,1.437c-0.034,0.828,0.609,1.526,1.437,1.562c0.214,0.009,0.428,0.013,0.642,0.013   c0.73,0,1.458-0.07,2.182-0.172l3.435,5.954c-0.244,0.075-0.492,0.129-0.739,0.192l-0.66-0.999   c-0.459-0.692-1.389-0.881-2.079-0.425c-0.63,0.417-0.837,1.225-0.525,1.888C54.931,48.587,52.659,48.186,50.554,47.274z"></path></g></svg>