<svg height='100px' width='100px'  fill="#000000" xmlns="http://www.w3.org/2000/svg" xmlns:xlink="http://www.w3.org/1999/xlink" version="1.1" x="0px" y="0px" viewBox="0 0 100 100" style="enable-background:new 0 0 100 100;" xml:space="preserve"><g><path d="M90.195,18.752c-0.64,0-1.267,0.127-1.865,0.378l-3.869,1.627c0,0,0,0,0,0L71.76,26.098v-7.273   c0-5.398-4.392-9.79-9.79-9.79H14.79c-5.398,0-9.79,4.392-9.79,9.79v36.22c0,5.398,4.392,9.79,9.79,9.79h13.237   c0.353,1.816,1.177,3.517,2.408,4.915c0.655,0.761,1.416,1.402,2.243,1.936L21.382,87.818c-0.634,0.905-0.414,2.152,0.491,2.785   c0.349,0.245,0.749,0.362,1.145,0.362c0.631,0,1.251-0.297,1.64-0.853l11.846-16.918c0.615,0.111,1.24,0.181,1.876,0.181   c0.633,0,1.256-0.07,1.869-0.18l11.853,16.917c0.389,0.556,1.01,0.853,1.64,0.853c0.396,0,0.796-0.117,1.146-0.362   c0.905-0.634,1.125-1.881,0.491-2.786L44.078,71.688c0.823-0.53,1.583-1.165,2.239-1.917c1.234-1.412,2.056-3.119,2.407-4.936   H61.97c5.398,0,9.79-4.392,9.79-9.79v-7.272l12.534,5.27c0.112,0.061,0.23,0.11,0.354,0.149l3.683,1.548   c0.598,0.251,1.225,0.378,1.865,0.378c2.649,0,4.805-2.157,4.805-4.81V23.562C95,20.91,92.845,18.752,90.195,18.752z    M43.302,67.141c-1.237,1.419-3.031,2.234-4.922,2.234c-1.9,0-3.691-0.814-4.928-2.251c-0.591-0.671-1.012-1.455-1.284-2.289   h12.417C44.314,65.675,43.893,66.465,43.302,67.141z M61.97,60.835H14.79c-3.193,0-5.79-2.597-5.79-5.79v-36.22   c0-3.193,2.597-5.79,5.79-5.79h47.18c3.193,0,5.79,2.597,5.79,5.79v10.266c0,0.007-0.003,0.013-0.003,0.02v15.651   c0,0.007,0.003,0.013,0.003,0.02v10.264C67.76,58.238,65.163,60.835,61.97,60.835z M91,50.31c0,0.635-0.627,0.952-1.119,0.744   l-2.642-1.111V33.042c0-1.104-0.896-2-2-2s-2,0.896-2,2v15.219l-11.48-4.827V30.438l11.48-4.827v2.181c0,1.104,0.896,2,2,2   s2-0.896,2-2v-3.863l2.641-1.111C90.369,22.612,91,22.927,91,23.562V50.31z"></path><circle cx="18.104" cy="22.025" r="4.414"></circle><path d="M58.956,19.601H46.222c-1.104,0-2,0.896-2,2s0.896,2,2,2h12.734c1.104,0,2-0.896,2-2S60.06,19.601,58.956,19.601z"></path><path d="M58.956,28.042H46.222c-1.104,0-2,0.896-2,2s0.896,2,2,2h12.734c1.104,0,2-0.896,2-2S60.06,28.042,58.956,28.042z"></path><path d="M58.956,36.484H46.222c-1.104,0-2,0.896-2,2s0.896,2,2,2h12.734c1.104,0,2-0.896,2-2S60.06,36.484,58.956,36.484z"></path></g></svg>