<svg  fill="#000000" xmlns="http://www.w3.org/2000/svg" xmlns:xlink="http://www.w3.org/1999/xlink" viewBox="0 0 50 58" version="1.1" x="0px" y="0px"><title>75 -Cube- (Outline)</title><desc>Created with Sketch.</desc><g stroke="none" stroke-width="1" fill="none" fill-rule="evenodd"><g transform="translate(-599.000000, -1170.000000)" fill="#000000"><g transform="translate(599.000000, 1170.000000)"><path d="M1.3434,34.1563 C1.0804,34.1563 0.8174,34.0523 0.6214,33.8473 C0.2394,33.4493 0.2534,32.8153 0.6524,32.4333 L12.3704,21.2163 C12.7694,20.8343 13.4014,20.8473 13.7834,21.2473 C14.1664,21.6453 14.1524,22.2793 13.7534,22.6613 L2.0344,33.8793 C1.8414,34.0643 1.5924,34.1563 1.3434,34.1563"></path><path d="M3.6247,46.0068 C3.3687,46.0068 3.1127,45.9088 2.9177,45.7138 C2.5267,45.3228 2.5267,44.6908 2.9177,44.2998 L20.9207,26.2958 C21.3117,25.9048 21.9447,25.9048 22.3347,26.2958 C22.7257,26.6868 22.7257,27.3198 22.3347,27.7098 L4.3317,45.7138 C4.1367,45.9088 3.8807,46.0068 3.6247,46.0068"></path><path d="M1.0217,27.3965 C0.7657,27.3965 0.5097,27.2985 0.3147,27.1035 C-0.0763,26.7125 -0.0763,26.0805 0.3147,25.6895 L7.2517,18.7515 C7.6427,18.3615 8.2757,18.3615 8.6667,18.7515 C9.0567,19.1425 9.0567,19.7755 8.6667,20.1665 L1.7287,27.1035 C1.5337,27.2985 1.2777,27.3965 1.0217,27.3965"></path><path d="M1.1555,41.4053 C0.8995,41.4053 0.6435,41.3073 0.4485,41.1123 C0.0575,40.7213 0.0575,40.0893 0.4485,39.6983 L16.3225,23.8233 C16.7135,23.4323 17.3465,23.4323 17.7375,23.8233 C18.1275,24.2143 18.1275,24.8463 17.7375,25.2373 L1.8625,41.1123 C1.6675,41.3073 1.4115,41.4053 1.1555,41.4053"></path><path d="M7.8952,48.5938 C7.6342,48.5938 7.3742,48.4918 7.1772,48.2898 C6.7932,47.8938 6.8022,47.2608 7.1992,46.8758 L24.3662,30.2198 C24.7622,29.8358 25.3952,29.8448 25.7802,30.2408 C26.1652,30.6378 26.1552,31.2708 25.7592,31.6558 L8.5912,48.3118 C8.3972,48.4998 8.1462,48.5938 7.8952,48.5938"></path><path d="M17.03,53.6006 C16.774,53.6006 16.518,53.5026 16.323,53.3076 C15.932,52.9166 15.932,52.2846 16.323,51.8936 L24.293,43.9236 C24.684,43.5336 25.317,43.5336 25.707,43.9236 C26.098,44.3146 26.098,44.9476 25.707,45.3376 L17.737,53.3076 C17.542,53.5026 17.286,53.6006 17.03,53.6006"></path><path d="M12.3903,51.1699 C12.1343,51.1699 11.8783,51.0719 11.6833,50.8769 C11.2923,50.4859 11.2923,49.8539 11.6833,49.4629 L24.2933,36.8539 C24.6833,36.4629 25.3163,36.4629 25.7073,36.8539 C26.0983,37.2439 26.0983,37.8769 25.7073,38.2679 L13.0973,50.8769 C12.9023,51.0719 12.6463,51.1699 12.3903,51.1699"></path><path d="M2.0002,43.4043 L24.0002,55.3213 L24.0002,29.5743 L2.0002,16.7413 L2.0002,43.4043 Z M25.0002,58.0003 C24.8362,58.0003 24.6722,57.9603 24.5242,57.8793 L0.5242,44.8793 C0.2012,44.7043 0.0002,44.3673 0.0002,44.0003 L0.0002,15.0003 C0.0002,14.6413 0.1912,14.3113 0.5022,14.1333 C0.8132,13.9543 1.1952,13.9573 1.5042,14.1353 L25.5042,28.1353 C25.8112,28.3153 26.0002,28.6443 26.0002,29.0003 L26.0002,57.0003 C26.0002,57.3523 25.8142,57.6783 25.5122,57.8593 C25.3542,57.9533 25.1772,58.0003 25.0002,58.0003 L25.0002,58.0003 Z"></path><path d="M26.0002,29.5742 L26.0002,55.3212 L48.0002,43.4042 L48.0002,16.7412 L26.0002,29.5742 Z M25.0002,58.0002 C24.8232,58.0002 24.6462,57.9532 24.4882,57.8592 C24.1862,57.6782 24.0002,57.3522 24.0002,57.0002 L24.0002,29.0002 C24.0002,28.6442 24.1892,28.3152 24.4962,28.1362 L48.4962,14.1362 C48.8052,13.9572 49.1872,13.9542 49.4982,14.1332 C49.8092,14.3112 50.0002,14.6412 50.0002,15.0002 L50.0002,44.0002 C50.0002,44.3672 49.7992,44.7042 49.4772,44.8792 L25.4762,57.8792 C25.3282,57.9602 25.1642,58.0002 25.0002,58.0002 L25.0002,58.0002 Z"></path><path d="M2.985,15 L25,27.843 L47.016,15 L25,2.157 L2.985,15 Z M25,30 C24.826,30 24.652,29.955 24.496,29.864 L0.496,15.864 C0.189,15.685 0,15.355 0,15 C0,14.645 0.189,14.315 0.496,14.136 L24.496,0.136 C24.808,-0.046 25.193,-0.046 25.504,0.136 L49.504,14.136 C49.812,14.315 50,14.645 50,15 C50,15.355 49.812,15.685 49.504,15.864 L25.504,29.864 C25.348,29.955 25.174,30 25,30 L25,30 Z"></path></g></g></g></svg>