<svg  fill="#000000" xmlns="http://www.w3.org/2000/svg" xmlns:xlink="http://www.w3.org/1999/xlink" viewBox="0 0 50 58" version="1.1" x="0px" y="0px"><title>36 -Space Geometry- (Outline)</title><desc>Created with Sketch.</desc><g stroke="none" stroke-width="1" fill="none" fill-rule="evenodd"><g transform="translate(-718.000000, -690.000000)" fill="#000000"><g transform="translate(718.000000, 690.000000)"><path d="M2.0002,28.4258 L12.0002,34.2588 L12.0002,22.5738 L2.0002,16.7408 L2.0002,28.4258 Z M13.0002,36.9998 C12.8262,36.9998 12.6512,36.9548 12.4962,36.8638 L0.4962,29.8638 C0.1882,29.6848 0.0002,29.3558 0.0002,28.9998 L0.0002,14.9998 C0.0002,14.6418 0.1912,14.3108 0.5022,14.1328 C0.8132,13.9558 1.1952,13.9558 1.5042,14.1358 L13.5042,21.1358 C13.8122,21.3158 14.0002,21.6448 14.0002,21.9998 L14.0002,35.9998 C14.0002,36.3578 13.8092,36.6888 13.4982,36.8668 C13.3442,36.9558 13.1722,36.9998 13.0002,36.9998 L13.0002,36.9998 Z"></path><path d="M14.0002,22.5742 L14.0002,34.2592 L24.0002,28.4262 L24.0002,16.7412 L14.0002,22.5742 Z M13.0002,37.0002 C12.8282,37.0002 12.6562,36.9552 12.5022,36.8672 C12.1912,36.6892 12.0002,36.3582 12.0002,36.0002 L12.0002,22.0002 C12.0002,21.6442 12.1882,21.3152 12.4962,21.1362 L24.4962,14.1362 C24.8052,13.9552 25.1882,13.9552 25.4982,14.1332 C25.8092,14.3112 26.0002,14.6422 26.0002,15.0002 L26.0002,29.0002 C26.0002,29.3552 25.8122,29.6842 25.5042,29.8642 L13.5042,36.8642 C13.3492,36.9542 13.1742,37.0002 13.0002,37.0002 L13.0002,37.0002 Z"></path><path d="M2.9846,15 L13.0006,20.842 L23.0156,15 L13.0006,9.158 L2.9846,15 Z M13.0006,23 C12.8266,23 12.6516,22.955 12.4966,22.864 L0.4966,15.864 C0.1886,15.685 0.0006,15.355 0.0006,15 C0.0006,14.645 0.1886,14.315 0.4966,14.136 L12.4966,7.136 C12.8066,6.955 13.1936,6.955 13.5046,7.136 L25.5046,14.136 C25.8116,14.315 26.0006,14.645 26.0006,15 C26.0006,15.355 25.8116,15.685 25.5046,15.864 L13.5046,22.864 C13.3486,22.955 13.1736,23 13.0006,23 L13.0006,23 Z"></path><path d="M26.0002,28.4258 L36.0002,34.2588 L36.0002,22.5738 L26.0002,16.7408 L26.0002,28.4258 Z M37.0002,36.9998 C36.8262,36.9998 36.6512,36.9548 36.4962,36.8638 L24.4962,29.8638 C24.1882,29.6848 24.0002,29.3558 24.0002,28.9998 L24.0002,14.9998 C24.0002,14.6418 24.1912,14.3108 24.5022,14.1328 C24.8132,13.9558 25.1952,13.9558 25.5042,14.1358 L37.5042,21.1358 C37.8122,21.3158 38.0002,21.6448 38.0002,21.9998 L38.0002,35.9998 C38.0002,36.3578 37.8092,36.6888 37.4982,36.8668 C37.3442,36.9558 37.1722,36.9998 37.0002,36.9998 L37.0002,36.9998 Z"></path><path d="M38.0002,22.5742 L38.0002,34.2592 L48.0002,28.4262 L48.0002,16.7412 L38.0002,22.5742 Z M37.0002,37.0002 C36.8282,37.0002 36.6562,36.9552 36.5022,36.8672 C36.1912,36.6892 36.0002,36.3582 36.0002,36.0002 L36.0002,22.0002 C36.0002,21.6442 36.1882,21.3152 36.4962,21.1362 L48.4962,14.1362 C48.8052,13.9552 49.1882,13.9552 49.4982,14.1332 C49.8092,14.3112 50.0002,14.6422 50.0002,15.0002 L50.0002,29.0002 C50.0002,29.3552 49.8122,29.6842 49.5042,29.8642 L37.5042,36.8642 C37.3492,36.9542 37.1742,37.0002 37.0002,37.0002 L37.0002,37.0002 Z"></path><path d="M38.0002,36.5742 L38.0002,48.2592 L48.0002,42.4262 L48.0002,30.7412 L38.0002,36.5742 Z M37.0002,51.0002 C36.8282,51.0002 36.6562,50.9552 36.5022,50.8672 C36.1912,50.6892 36.0002,50.3582 36.0002,50.0002 L36.0002,36.0002 C36.0002,35.6442 36.1882,35.3152 36.4962,35.1362 L48.4962,28.1362 C48.8052,27.9552 49.1882,27.9552 49.4982,28.1332 C49.8092,28.3112 50.0002,28.6422 50.0002,29.0002 L50.0002,43.0002 C50.0002,43.3552 49.8122,43.6842 49.5042,43.8642 L37.5042,50.8642 C37.3492,50.9542 37.1742,51.0002 37.0002,51.0002 L37.0002,51.0002 Z"></path><path d="M2.0002,42.4258 L12.0002,48.2588 L12.0002,36.5738 L2.0002,30.7408 L2.0002,42.4258 Z M13.0002,50.9998 C12.8262,50.9998 12.6512,50.9548 12.4962,50.8638 L0.4962,43.8638 C0.1882,43.6848 0.0002,43.3558 0.0002,42.9998 L0.0002,28.9998 C0.0002,28.6418 0.1912,28.3108 0.5022,28.1328 C0.8132,27.9558 1.1952,27.9558 1.5042,28.1358 L13.5042,35.1358 C13.8122,35.3158 14.0002,35.6448 14.0002,35.9998 L14.0002,49.9998 C14.0002,50.3578 13.8092,50.6888 13.4982,50.8668 C13.3442,50.9558 13.1722,50.9998 13.0002,50.9998 L13.0002,50.9998 Z"></path><path d="M26.9846,15 L37.0006,20.842 L47.0156,15 L37.0006,9.158 L26.9846,15 Z M37.0006,23 C36.8266,23 36.6516,22.955 36.4966,22.864 L24.4966,15.864 C24.1886,15.685 24.0006,15.355 24.0006,15 C24.0006,14.645 24.1886,14.315 24.4966,14.136 L36.4966,7.136 C36.8066,6.955 37.1936,6.955 37.5046,7.136 L49.5046,14.136 C49.8116,14.315 50.0006,14.645 50.0006,15 C50.0006,15.355 49.8116,15.685 49.5046,15.864 L37.5046,22.864 C37.3486,22.955 37.1736,23 37.0006,23 L37.0006,23 Z"></path><path d="M14.0002,49.4258 L24.0002,55.2588 L24.0002,43.5738 L14.0002,37.7408 L14.0002,49.4258 Z M25.0002,57.9998 C24.8262,57.9998 24.6512,57.9548 24.4962,57.8638 L12.4962,50.8638 C12.1882,50.6848 12.0002,50.3558 12.0002,49.9998 L12.0002,35.9998 C12.0002,35.6418 12.1912,35.3108 12.5022,35.1328 C12.8132,34.9558 13.1952,34.9558 13.5042,35.1358 L25.5042,42.1358 C25.8122,42.3158 26.0002,42.6448 26.0002,42.9998 L26.0002,56.9998 C26.0002,57.3578 25.8092,57.6888 25.4982,57.8668 C25.3442,57.9558 25.1722,57.9998 25.0002,57.9998 L25.0002,57.9998 Z"></path><path d="M26.0002,43.5742 L26.0002,55.2592 L36.0002,49.4262 L36.0002,37.7412 L26.0002,43.5742 Z M25.0002,58.0002 C24.8282,58.0002 24.6562,57.9552 24.5022,57.8672 C24.1912,57.6892 24.0002,57.3582 24.0002,57.0002 L24.0002,43.0002 C24.0002,42.6442 24.1882,42.3152 24.4962,42.1362 L36.4962,35.1362 C36.8052,34.9552 37.1882,34.9552 37.4982,35.1332 C37.8092,35.3112 38.0002,35.6422 38.0002,36.0002 L38.0002,50.0002 C38.0002,50.3552 37.8122,50.6842 37.5042,50.8642 L25.5042,57.8642 C25.3492,57.9542 25.1742,58.0002 25.0002,58.0002 L25.0002,58.0002 Z"></path><path d="M14.9846,36 L25.0006,41.842 L35.0156,36 L25.0006,30.158 L14.9846,36 Z M25.0006,44 C24.8266,44 24.6516,43.955 24.4966,43.864 L12.4966,36.864 C12.1886,36.685 12.0006,36.355 12.0006,36 C12.0006,35.645 12.1886,35.315 12.4966,35.136 L24.4966,28.136 C24.8066,27.955 25.1936,27.955 25.5046,28.136 L37.5046,35.136 C37.8116,35.315 38.0006,35.645 38.0006,36 C38.0006,36.355 37.8116,36.685 37.5046,36.864 L25.5046,43.864 C25.3486,43.955 25.1736,44 25.0006,44 L25.0006,44 Z"></path><path d="M14.9846,8 L25.0006,13.842 L35.0156,8 L25.0006,2.158 L14.9846,8 Z M25.0006,16 C24.8266,16 24.6516,15.955 24.4966,15.864 L12.4966,8.864 C12.1886,8.685 12.0006,8.355 12.0006,8 C12.0006,7.645 12.1886,7.315 12.4966,7.136 L24.4966,0.136 C24.8066,-0.045 25.1936,-0.045 25.5046,0.136 L37.5046,7.136 C37.8116,7.315 38.0006,7.645 38.0006,8 C38.0006,8.355 37.8116,8.685 37.5046,8.864 L25.5046,15.864 C25.3486,15.955 25.1736,16 25.0006,16 L25.0006,16 Z"></path></g></g></g></svg>