<svg  fill="#000000" xmlns="http://www.w3.org/2000/svg" xmlns:xlink="http://www.w3.org/1999/xlink" viewBox="0 0 50 55" version="1.1" x="0px" y="0px"><title>92 -Cube- (Outline)</title><desc>Created with Sketch.</desc><g stroke="none" stroke-width="1" fill="none" fill-rule="evenodd"><g transform="translate(-239.000000, -1411.000000)" fill="#000000"><g transform="translate(239.000000, 1411.000000)"><path d="M25.0002,28.4141 L25.0102,28.4141 L25.0002,28.4141 Z M10.0002,16.6181 L10.0002,35.3281 L24.0002,27.8151 L24.0002,9.6181 L10.0002,16.6181 Z M9.0002,38.0001 C8.8222,38.0001 8.6452,37.9521 8.4872,37.8581 C8.1852,37.6781 8.0002,37.3521 8.0002,37.0001 L8.0002,16.0001 C8.0002,15.6211 8.2142,15.2751 8.5532,15.1051 L24.5532,7.1051 C24.8632,6.9511 25.2302,6.9671 25.5262,7.1491 C25.8202,7.3321 26.0002,7.6531 26.0002,8.0001 L26.0002,28.4141 C26.0002,28.7821 25.7972,29.1211 25.4732,29.2951 L9.4732,37.8811 C9.3252,37.9611 9.1632,38.0001 9.0002,38.0001 L9.0002,38.0001 Z"></path><path d="M42.0002,38 C41.8462,38 41.6912,37.965 41.5492,37.893 L24.5492,29.307 C24.0562,29.058 23.8582,28.456 24.1072,27.963 C24.3562,27.472 24.9582,27.272 25.4512,27.521 L41.0002,35.375 L41.0002,16.635 L24.5742,8.905 C24.0752,8.67 23.8602,8.074 24.0952,7.574 C24.3312,7.073 24.9282,6.862 25.4262,7.095 L42.4262,15.095 C42.7762,15.26 43.0002,15.612 43.0002,16 L43.0002,37 C43.0002,37.348 42.8202,37.67 42.5242,37.852 C42.3642,37.95 42.1822,38 42.0002,38"></path><path d="M25.0002,46 C24.8472,46 24.6932,45.965 24.5532,45.895 L8.5532,37.895 C8.0592,37.647 7.8582,37.047 8.1052,36.553 C8.3532,36.06 8.9522,35.859 9.4472,36.105 L25.0132,43.889 L41.5742,36.095 C42.0742,35.86 42.6692,36.074 42.9052,36.574 C43.1402,37.074 42.9252,37.67 42.4262,37.905 L25.4262,45.905 C25.2912,45.969 25.1462,46 25.0002,46"></path><path d="M8.9992,17 C8.8492,17 8.6962,16.966 8.5532,16.895 L0.5532,12.895 C0.2082,12.723 -0.0058,12.368 0.0002,11.983 C0.0072,11.599 0.2332,11.251 0.5832,11.091 L24.5832,0.091 C24.8482,-0.03 25.1522,-0.03 25.4162,0.091 L49.4162,11.091 C49.7572,11.247 49.9822,11.581 49.9992,11.955 C50.0162,12.33 49.8222,12.683 49.4962,12.868 L42.4962,16.868 C42.0182,17.145 41.4062,16.977 41.1322,16.496 C40.8582,16.017 41.0242,15.406 41.5042,15.132 L46.8132,12.098 L25.0002,2.1 L3.3142,12.039 L9.4472,15.105 C9.9412,15.353 10.1422,15.953 9.8952,16.447 C9.7192,16.798 9.3662,17 8.9992,17"></path><path d="M25.0002,55 C24.8232,55 24.6462,54.953 24.4882,54.859 C24.1862,54.679 24.0002,54.353 24.0002,54 L24.0002,45 C24.0002,44.447 24.4482,44 25.0002,44 C25.5522,44 26.0002,44.447 26.0002,45 L26.0002,52.321 L48.0002,40.404 L48.0002,13.724 L42.4962,16.868 C42.0182,17.145 41.4062,16.977 41.1322,16.496 C40.8582,16.017 41.0242,15.406 41.5042,15.132 L48.5042,11.132 C48.8122,10.954 49.1922,10.956 49.5022,11.135 C49.8102,11.314 50.0002,11.644 50.0002,12 L50.0002,41 C50.0002,41.367 49.7992,41.704 49.4762,41.879 L25.4762,54.879 C25.3282,54.96 25.1642,55 25.0002,55"></path><path d="M25.0002,55 C24.8362,55 24.6722,54.96 24.5242,54.879 L0.5242,41.879 C0.2012,41.704 0.0002,41.367 0.0002,41 L0.0002,12 C0.0002,11.653 0.1802,11.332 0.4742,11.149 C0.7702,10.967 1.1372,10.95 1.4472,11.105 L9.4472,15.105 C9.9412,15.353 10.1422,15.953 9.8952,16.447 C9.6472,16.94 9.0472,17.14 8.5532,16.895 L2.0002,13.618 L2.0002,40.404 L24.0002,52.321 L24.0002,45 C24.0002,44.447 24.4482,44 25.0002,44 C25.5522,44 26.0002,44.447 26.0002,45 L26.0002,54 C26.0002,54.353 25.8142,54.679 25.5122,54.859 C25.3542,54.953 25.1772,55 25.0002,55"></path></g></g></g></svg>