<svg  fill="#000000" xmlns:dc="http://purl.org/dc/elements/1.1/" xmlns:cc="http://creativecommons.org/ns#" xmlns:rdf="http://www.w3.org/1999/02/22-rdf-syntax-ns#" xmlns:svg="http://www.w3.org/2000/svg" xmlns="http://www.w3.org/2000/svg" version="1.1" viewBox="0 0 100 100" x="0px" y="0px"><g transform="translate(0,-952.36216)"><path style="color:black;font-style:normal;font-variant:normal;font-weight:normal;font-stretch:normal;font-size:medium;line-height:normal;font-family:sans-serif;text-indent:0;text-align:start;text-decoration:none;text-decoration-line:none;text-decoration-style:solid;letter-spacing:normal;word-spacing:normal;text-transform:none;direction:ltr;writing-mode:lr-tb;baseline-shift:baseline;text-anchor:start;white-space:normal;clip-rule:nonzero;display:inline;overflow:visible;visibility:visible;opacity:1;isolation:auto;mix-blend-mode:normal;color-interpolation:sRGB;color-interpolation-filters:linearRGB;fill:#000000;fill-opacity:1;fill-rule:evenodd;stroke:none;stroke-width:5;stroke-linecap:round;stroke-linejoin:round;stroke-miterlimit:4;stroke-dasharray:none;stroke-dashoffset:0;stroke-opacity:1;marker:none;color-rendering:auto;image-rendering:auto;shape-rendering:auto;text-rendering:auto;enable-background:accumulate" d="m 49.9082,959.86402 c -0.3567,0.014 -0.7063,0.1035 -1.0254,0.2636 l -40,20 c -1.8403,0.9221 -1.8403,3.5486 0,4.4707 l 15.5274,7.7637 -15.5274,7.76368 c -1.8428,0.9214 -1.8428,3.5512 0,4.4726 l 15.5274,7.7637 -15.5274,7.7638 c -1.8428,0.9214 -1.8428,3.5512 0,4.4726 l 40,20 c 0.7034,0.3513 1.531,0.3513 2.2344,0 l 40,-20 c 1.8428,-0.9214 1.8428,-3.5512 0,-4.4726 l -15.5274,-7.7638 15.5274,-7.7637 c 1.8428,-0.9214 1.8428,-3.5512 0,-4.4726 l -15.5274,-7.76368 15.5274,-7.7637 c 1.8403,-0.9221 1.8403,-3.5486 0,-4.4707 l -40,-20 c -0.3745,-0.1878 -0.7903,-0.2784 -1.209,-0.2636 z m 0.092,5.2929 34.4121,17.2051 -34.4121,17.2051 -34.4121,-17.2051 z m -20,30 18.8828,9.44138 c 0.7034,0.3513 1.531,0.3513 2.2344,0 l 18.8828,-9.44138 14.4102,7.20508 -34.4102,17.2052 L 15.59,1002.362 Z m 0,19.99998 18.8828,9.4415 c 0.7034,0.3513 1.531,0.3513 2.2344,0 l 18.8828,-9.4415 14.4102,7.2052 -34.4102,17.2051 -34.4102,-17.2051 z"></path></g></svg>
