<svg  fill="#000000" xmlns="http://www.w3.org/2000/svg" xmlns:xlink="http://www.w3.org/1999/xlink" viewBox="0 0 60 60" version="1.1" x="0px" y="0px"><title>6 -Cube- (Outline)</title><desc>Created with Sketch.</desc><g stroke="none" stroke-width="1" fill="none" fill-rule="evenodd"><g transform="translate(-713.000000, -329.000000)" fill="#000000"><g transform="translate(713.000000, 329.000000)"><path d="M59.0002,46 L56.5002,46 C55.9472,46 55.5002,45.552 55.5002,45 C55.5002,44.448 55.9472,44 56.5002,44 L59.0002,44 C59.5532,44 60.0002,44.448 60.0002,45 C60.0002,45.552 59.5532,46 59.0002,46"></path><path d="M28.6428,46 L23.0718,46 C22.5188,46 22.0718,45.552 22.0718,45 C22.0718,44.448 22.5188,44 23.0718,44 L28.6428,44 C29.1958,44 29.6428,44.448 29.6428,45 C29.6428,45.552 29.1958,46 28.6428,46 M39.7868,46 L34.2148,46 C33.6628,46 33.2148,45.552 33.2148,45 C33.2148,44.448 33.6628,44 34.2148,44 L39.7868,44 C40.3388,44 40.7868,44.448 40.7868,45 C40.7868,45.552 40.3388,46 39.7868,46 M50.9288,46 L45.3578,46 C44.8048,46 44.3578,45.552 44.3578,45 C44.3578,44.448 44.8048,44 45.3578,44 L50.9288,44 C51.4818,44 51.9288,44.448 51.9288,45 C51.9288,45.552 51.4818,46 50.9288,46"></path><path d="M17.5002,46 L15.0002,46 C14.4472,46 14.0002,45.552 14.0002,45 L14.0002,42.5 C14.0002,41.948 14.4472,41.5 15.0002,41.5 C15.5532,41.5 16.0002,41.948 16.0002,42.5 L16.0002,44 L17.5002,44 C18.0532,44 18.5002,44.448 18.5002,45 C18.5002,45.552 18.0532,46 17.5002,46"></path><path d="M15.0002,15.6431 C14.4472,15.6431 14.0002,15.1951 14.0002,14.6431 L14.0002,9.0721 C14.0002,8.5191 14.4472,8.0721 15.0002,8.0721 C15.5532,8.0721 16.0002,8.5191 16.0002,9.0721 L16.0002,14.6431 C16.0002,15.1951 15.5532,15.6431 15.0002,15.6431 M15.0002,26.7861 C14.4472,26.7861 14.0002,26.3381 14.0002,25.7861 L14.0002,20.2141 C14.0002,19.6621 14.4472,19.2141 15.0002,19.2141 C15.5532,19.2141 16.0002,19.6621 16.0002,20.2141 L16.0002,25.7861 C16.0002,26.3381 15.5532,26.7861 15.0002,26.7861 M15.0002,37.9291 C14.4472,37.9291 14.0002,37.4811 14.0002,36.9291 L14.0002,31.3571 C14.0002,30.8051 14.4472,30.3571 15.0002,30.3571 C15.5532,30.3571 16.0002,30.8051 16.0002,31.3571 L16.0002,36.9291 C16.0002,37.4811 15.5532,37.9291 15.0002,37.9291"></path><path d="M15.0002,4.5 C14.4472,4.5 14.0002,4.052 14.0002,3.5 L14.0002,1 C14.0002,0.448 14.4472,-5.68434189e-14 15.0002,-5.68434189e-14 C15.5532,-5.68434189e-14 16.0002,0.448 16.0002,1 L16.0002,3.5 C16.0002,4.052 15.5532,4.5 15.0002,4.5"></path><path d="M1.0002,60 C0.7442,60 0.4882,59.902 0.2932,59.707 C-0.0978,59.316 -0.0978,58.684 0.2932,58.293 L2.0612,56.525 C2.4512,56.135 3.0842,56.135 3.4752,56.525 C3.8652,56.916 3.8652,57.549 3.4752,57.939 L1.7072,59.707 C1.5122,59.902 1.2562,60 1.0002,60"></path><path d="M6.256,54.7441 C6,54.7441 5.744,54.6461 5.549,54.4511 C5.158,54.0601 5.158,53.4281 5.549,53.0371 L9.037,49.5491 C9.428,49.1581 10.061,49.1581 10.451,49.5491 C10.842,49.9391 10.842,50.5721 10.451,50.9631 L6.963,54.4511 C6.768,54.6461 6.512,54.7441 6.256,54.7441"></path><path d="M13.2326,47.7676 C12.9766,47.7676 12.7206,47.6696 12.5256,47.4746 C12.1346,47.0836 12.1346,46.4516 12.5256,46.0606 L14.2936,44.2926 C14.6836,43.9026 15.3166,43.9026 15.7076,44.2926 C16.0976,44.6836 16.0976,45.3166 15.7076,45.7066 L13.9396,47.4746 C13.7446,47.6696 13.4886,47.7676 13.2326,47.7676"></path><path d="M2,58 L44,58 L44,16 L2,16 L2,58 Z M45,60 L1,60 C0.447,60 0,59.552 0,59 L0,15 C0,14.448 0.447,14 1,14 L45,14 C45.553,14 46,14.448 46,15 L46,59 C46,59.552 45.553,60 45,60 L45,60 Z"></path><path d="M3.4142,14 L44.5862,14 L56.5862,2 L15.4142,2 L3.4142,14 Z M45.0002,16 L1.0002,16 C0.5962,16 0.2302,15.756 0.0762,15.383 C-0.0788,15.009 0.0072,14.579 0.2932,14.293 L14.2932,0.293 C14.4802,0.105 14.7342,-5.68434189e-14 15.0002,-5.68434189e-14 L59.0002,-5.68434189e-14 C59.4042,-5.68434189e-14 59.7692,0.244 59.9242,0.617 C60.0792,0.991 59.9932,1.421 59.7072,1.707 L45.7072,15.707 C45.5192,15.895 45.2662,16 45.0002,16 L45.0002,16 Z"></path><path d="M46.0002,15.4141 L46.0002,56.5861 L58.0002,44.5861 L58.0002,3.4141 L46.0002,15.4141 Z M45.0002,60.0001 C44.8712,60.0001 44.7412,59.9751 44.6172,59.9241 C44.2432,59.7691 44.0002,59.4041 44.0002,59.0001 L44.0002,15.0001 C44.0002,14.7351 44.1052,14.4801 44.2932,14.2931 L58.2932,0.2931 C58.5792,0.0071 59.0092,-0.0789 59.3832,0.0761 C59.7572,0.2311 60.0002,0.5961 60.0002,1.0001 L60.0002,45.0001 C60.0002,45.2651 59.8952,45.5191 59.7072,45.7071 L45.7072,59.7071 C45.5162,59.8981 45.2602,60.0001 45.0002,60.0001 L45.0002,60.0001 Z"></path></g></g></g></svg>